<?xml version="1.0" encoding="utf-8"?>
<!-- Generator: Adobe Illustrator 16.0.0, SVG Export Plug-In . SVG Version: 6.00 Build 0)  -->
<!DOCTYPE svg PUBLIC "-//W3C//DTD SVG 1.1//EN" "http://www.w3.org/Graphics/SVG/1.1/DTD/svg11.dtd" [
	<!ENTITY ns_extend "http://ns.adobe.com/Extensibility/1.0/">
	<!ENTITY ns_ai "http://ns.adobe.com/AdobeIllustrator/10.0/">
	<!ENTITY ns_graphs "http://ns.adobe.com/Graphs/1.0/">
	<!ENTITY ns_vars "http://ns.adobe.com/Variables/1.0/">
	<!ENTITY ns_imrep "http://ns.adobe.com/ImageReplacement/1.0/">
	<!ENTITY ns_sfw "http://ns.adobe.com/SaveForWeb/1.0/">
	<!ENTITY ns_custom "http://ns.adobe.com/GenericCustomNamespace/1.0/">
	<!ENTITY ns_adobe_xpath "http://ns.adobe.com/XPath/1.0/">
]>
<svg version="1.1" id="Слой_1" xmlns:x="&ns_extend;" xmlns:i="&ns_ai;" xmlns:graph="&ns_graphs;"
	 xmlns="http://www.w3.org/2000/svg" xmlns:xlink="http://www.w3.org/1999/xlink" x="0px" y="0px" width="188.502px"
	 height="68.613px" viewBox="0 0 188.502 68.613" enable-background="new 0 0 188.502 68.613" xml:space="preserve">
<metadata>
	<sfw  xmlns="&ns_sfw;">
		<slices></slices>
		<sliceSourceBounds  height="68.613" width="188.502" y="-74.205" x="2.31" bottomLeftOrigin="true"></sliceSourceBounds>
	</sfw>
</metadata>
<path fill="#FFFFFF" d="M14.405,63.653c0,2.738-2.22,4.959-4.958,4.959c-2.756,0-6.691,0-9.447,0l1.048-3.306
	c2.755,0,5.643,0,8.399,0l0,0c0.913,0,1.652-0.739,1.652-1.653l0,0v-1.652c-3.307,0-5.739,0-9.045,0l1.048-3.307
	c3.306,0,4.69,0,7.997,0v-3.307c-3.307,0-3.685,0-6.991,0l1.048-3.307c3.306,0,2.636,0,5.943,0h3.306
	C14.405,55.938,14.405,59.797,14.405,63.653z M34.246,68.331v0.282h3.306v-4.959v-1.652h3.307c2.74,0,4.96-2.221,4.96-4.96
	c0-2.739-2.221-4.96-4.96-4.96h-6.613v3.307v3.307v3.307v1.652l0,0V68.331L34.246,68.331z M40.858,55.388
	c0.912,0,1.654,0.74,1.654,1.653s-0.742,1.653-1.654,1.653h-3.307v-3.307H40.858z M21.02,52.081h-3.307l3.307,8.267l-3.307,8.266
	h3.307l3.256-8.14l3.257,8.14h3.307l-3.307-8.266l3.307-8.267h-3.307l-3.257,8.142L21.02,52.081z M55.737,52.081
	c-4.565,0-8.266,3.702-8.266,8.267c0,4.565,3.701,8.266,8.266,8.266c4.565,0,8.267-3.7,8.267-8.266
	C64.004,55.782,60.302,52.081,55.737,52.081L55.737,52.081z M60.698,60.347c0,2.739-2.22,4.959-4.96,4.959
	c-2.738,0-4.959-2.221-4.959-4.959s2.222-4.959,4.959-4.959C58.478,55.388,60.698,57.608,60.698,60.347z M101.577,7.891v7.89h7.892
	c2.179,0,3.944-1.766,3.944-3.945c0-2.179-1.766-3.944-3.944-3.944H101.577L101.577,7.891z M101.577,27.617
	c0,6.537-5.297,11.836-11.836,11.836c-6.574,0-15.968,0-22.543,0l2.501-7.89c6.575,0,13.468,0,20.042,0l0,0
	c2.181,0,3.948-1.766,3.948-3.946l0,0v-3.945c-7.892,0-13.698,0-21.587,0l2.501-7.891c7.89,0,11.194,0,19.086,0v-7.89
	c-7.892,0-8.795,0-16.686,0L79.504,0c7.89,0,6.292,0,14.185,0h15.78c6.537,0,11.836,5.299,11.836,11.835
	c0,6.537-5.299,11.836-11.836,11.836h-7.892V27.617L101.577,27.617z M171.97,52.081l-6.612,16.532h3.307l4.959-12.399l1.653,4.133
	l1.654,4.133l1.651-4.133l1.653-4.133l4.961,12.399h3.306l-6.612-16.532h-3.308l-1.651,4.133l-1.654-4.133H171.97L171.97,52.081z
	 M155.438,55.388v3.307h3.308c0.912,0,1.652-0.74,1.652-1.653s-0.74-1.653-1.652-1.653H155.438L155.438,55.388z M157.752,62.001
	h-2.314v1.652v4.959h-3.306v-0.282v-4.678l0,0v-1.652v-3.307v-3.307v-3.307h6.613c2.738,0,4.959,2.222,4.959,4.96
	c0,1.979-1.16,3.688-2.835,4.483l2.835,7.088h-3.307L157.752,62.001L157.752,62.001z M140.904,55.388
	c-2.741,0-4.961,2.221-4.961,4.959s2.22,4.959,4.961,4.959c2.739,0,4.959-2.221,4.959-4.959S143.644,55.388,140.904,55.388
	L140.904,55.388z M140.904,52.081c4.565,0,8.266,3.701,8.266,8.267s-3.7,8.266-8.266,8.266c-4.564,0-8.268-3.7-8.268-8.266
	S136.34,52.081,140.904,52.081L140.904,52.081z M119.412,52.081c0,5.512,0,11.022,0,16.532h3.307v-6.611h6.612v-3.307h-6.612v-3.307
	h6.612v-3.307H119.412L119.412,52.081z M109.492,52.081h-3.308v3.307h3.308v13.225h3.309V55.388h3.305v-3.307h-3.305H109.492
	L109.492,52.081z M79.734,68.613v-3.306V52.081h3.306v13.226h7.936l5.291-13.226h3.306l6.612,16.532h-3.305l-4.962-12.399
	l-4.958,12.399h-3.306H83.04H79.734L79.734,68.613z M69.813,55.388v3.307h3.307c0.915,0,1.653-0.74,1.653-1.653
	s-0.739-1.653-1.653-1.653H69.813L69.813,55.388z M66.507,63.653L66.507,63.653v-1.652v-3.307v-3.307v-3.307h6.613
	c2.74,0,4.96,2.222,4.96,4.96c0,2.74-2.221,4.96-4.96,4.96h-3.307v1.652v4.959h-3.307v-0.282V63.653z"/>
</svg>
