<?xml version="1.0" standalone="no"?>
<!DOCTYPE svg PUBLIC "-//W3C//DTD SVG 1.1//EN" "http://www.w3.org/Graphics/SVG/1.1/DTD/svg11.dtd" >
<svg>
<metadata>
Created by FontForge 20090914 at Thu Sep 10 08:28:40 2015
 By www-data
Copyright (c) Andrew Paglinawan, 2008. All rights reserved.
</metadata>
<defs>
<font id="QuicksandBold-Regular" horiz-adv-x="613" >
  <font-face 
    font-family="Quicksand"
    font-weight="700"
    font-stretch="normal"
    units-per-em="1000"
    panose-1="0 0 0 0 0 0 0 0 0 0"
    ascent="800"
    descent="-200"
    x-height="488"
    cap-height="700"
    bbox="-24 -188 1097 950.001"
    underline-thickness="50"
    underline-position="-50"
    unicode-range="U+0020-U+2122"
  />
<missing-glyph horiz-adv-x="500" 
 />
    <glyph glyph-name=".notdef" horiz-adv-x="500" 
 />
    <glyph glyph-name="space" unicode=" " horiz-adv-x="300" 
 />
    <glyph glyph-name="space" unicode="&#xa0;" horiz-adv-x="300" 
 />
    <glyph glyph-name="exclam" unicode="!" horiz-adv-x="252" 
d="M202 55c0 -15.333 -5.16699 -28.333 -15.5 -39s-23.166 -16 -38.499 -16s-28.333 5.33301 -39 16s-16 23.667 -16 39v20c0 15.333 5.33301 28.333 16 39s23.667 16 39 16s28.166 -5.33301 38.499 -16s15.5 -23.667 15.5 -39v-20zM148 186
c-15.333 0 -28.333 5.33301 -39 16s-16 23.667 -16 39v404c0 15.333 5.33301 28.333 16 39s23.667 16 39 16s28.166 -5.33301 38.499 -16s15.5 -23.667 15.5 -39v-404c0 -15.333 -5.16699 -28.333 -15.5 -39s-23.166 -16 -38.499 -16z" />
    <glyph glyph-name="quotedbl" unicode="&#x22;" horiz-adv-x="410" 
d="M87 647c1.33301 16 7.00098 29.334 17.001 40.001s23.333 16 40 16h39c9.33301 0 17.166 -2.83301 23.499 -8.5s9.5 -13.834 9.5 -24.501c0 -3.33301 -0.333008 -6.83301 -1 -10.5s-1.66699 -7.5 -3 -11.5l-73 -222c-3.33301 -9.33301 -7.83301 -16.833 -13.5 -22.5
s-13.167 -8.5 -22.5 -8.5c-10 0 -18.333 3.5 -25 10.5s-9.66699 16.167 -9 27.5zM306.001 647.001c1.33301 16 7 29.334 17 40.001s23.333 16 40 16h40c9.33301 0 17 -2.83301 23 -8.5s9 -13.834 9 -24.501c0 -3.33301 -0.333008 -6.83301 -1 -10.5s-1.66699 -7.5 -3 -11.5
l-73 -222c-3.33301 -9.33301 -7.83301 -16.833 -13.5 -22.5s-13.167 -8.5 -22.5 -8.5s-17.5 3.5 -24.5 10.5s-9.83301 16.167 -8.5 27.5z" />
    <glyph glyph-name="numbersign" unicode="#" horiz-adv-x="700" 
d="M424 265l30 174h-156l-30 -174h156zM143 161h-46.001c-14.667 0 -27 5 -37 15s-15 22.333 -15 37c0 14 5 26.167 15 36.5s22.333 15.5 37 15.5h64l30 174h-58c-14 0 -26.167 5.16699 -36.5 15.5s-15.5 22.5 -15.5 36.5s5.16699 26.167 15.5 36.5s22.5 15.5 36.5 15.5h76
l20 119c2 13.333 7.83301 23.833 17.5 31.5s21.167 11.5 34.5 11.5c16.667 0 30 -6.33301 40 -19s14 -26.667 12 -42l-18 -101h157l20 119c2 13.333 8 23.833 18 31.5s21.667 11.5 35 11.5c16 0 29.167 -6.33301 39.5 -19s14.166 -26.667 11.499 -42l-17 -101h46
c14 0 26.167 -5 36.5 -15s15.5 -22.333 15.5 -37c0 -14 -5.16699 -26.167 -15.5 -36.5s-22.5 -15.5 -36.5 -15.5h-64l-30 -174h57c14.667 0 27 -5 37 -15s15 -22.333 15 -37c0 -14 -5 -26.167 -15 -36.5s-22.333 -15.5 -37 -15.5h-75l-21 -123
c-2 -12.667 -7.83301 -23 -17.5 -31s-21.167 -12 -34.5 -12c-16.667 0 -30.167 6.33301 -40.5 19s-14.166 26.667 -11.499 42l19 105h-157l-21 -123c-2 -11.333 -7.5 -21.333 -16.5 -30s-21.167 -13 -36.5 -13c-16 0 -29.167 5.83301 -39.5 17.5
s-14.166 26.167 -11.499 43.5z" />
    <glyph glyph-name="dollar" unicode="$" horiz-adv-x="632" 
d="M201 515c0 -10.667 1.33496 -20.334 4.00195 -29.001s7.66699 -16.667 15 -24s17.166 -14.333 29.499 -21s28.166 -13 47.499 -19v177c-32 -3.33301 -56 -12.666 -72 -27.999s-24 -34 -24 -56zM475.002 188c0 22 -6.83203 40.334 -20.499 55.001s-39.834 28 -78.501 40
v-182c32 3.33301 56.5 12.666 73.5 27.999s25.5 35 25.5 59zM293.003 720.001c0 12 4.33496 22.1689 13.002 30.502s19 12.5 31 12.5s22.167 -4.16699 30.5 -12.5s12.5 -18.5 12.5 -30.5v-22c30 -3.33301 57.5 -9.66602 82.5 -18.999s49.167 -21.333 72.5 -36
c8 -4.66699 15 -10.834 21 -18.501s9 -17.5 9 -29.5c0 -15.333 -5.5 -28.333 -16.5 -39s-24.167 -16 -39.5 -16c-10 0 -20 3 -30 9c-36 22 -70.333 36.667 -103 44v-192c76 -19.333 131.167 -45.166 165.5 -77.499s51.5 -75.166 51.5 -128.499
c0 -27.333 -5.16699 -52.333 -15.5 -75s-24.833 -42.334 -43.5 -59.001s-41 -30.334 -67 -41.001s-55 -17.334 -87 -20.001v-60c0 -12 -4.16699 -22.167 -12.5 -30.5s-18.5 -12.5 -30.5 -12.5s-22.333 4.16699 -31 12.5s-13 18.5 -13 30.5v62c-38 4 -74 12.667 -108 26
s-66.333 30.666 -97 51.999c-18 11.333 -27 27.333 -27 48c0 15.333 5.33301 28.333 16 39s23.667 16 39 16c12.667 0 23.667 -3.66699 33 -11c23.333 -17.333 46.833 -31.5 70.5 -42.5s49.5 -19.167 77.5 -24.5v197c-36.667 9.33301 -68.334 20 -95.001 32
s-48.834 26.167 -66.501 42.5s-30.834 35.333 -39.501 57s-13 46.5 -13 74.5c0 26.667 5 51.167 15 73.5s24.333 41.833 43 58.5s40.834 30 66.501 40s54.167 16.333 85.5 19v21z" />
    <glyph glyph-name="ampersand" unicode="&#x26;" horiz-adv-x="696" 
d="M578 405c2 -6.66699 3.33105 -13.168 3.99805 -19.501s1 -12.833 1 -19.5c0.666992 -19.333 -3 -37.666 -11 -54.999s-18.667 -31 -32 -41c-3.33301 -1.33301 -7 -3.33301 -11 -6c0.666992 -4 1 -8 1 -12v-12c0 -33.333 -6.33301 -64.5 -19 -93.5
s-29.834 -54.333 -51.501 -76s-47.167 -38.834 -76.5 -51.501s-60.666 -19 -93.999 -19s-64.5 6.33301 -93.5 19s-54.333 29.834 -76 51.501s-38.834 47 -51.501 76s-19 60.167 -19 93.5c0 35.333 7 68.166 21 98.499s33 56.166 57 77.499c-18.667 30 -28 62.667 -28 98
c0 26 4.83301 50.167 14.5 72.5s23 42 40 59s36.833 30.333 59.5 40s46.667 14.5 72 14.5c26 0 50.167 -4.83301 72.5 -14.5s42 -23 59 -40s30.333 -36.667 40 -59s14.5 -46.5 14.5 -72.5c0 -15.333 -5.33301 -28.333 -16 -39s-23.667 -16 -39 -16s-28.5 5.33301 -39.5 16
s-16.5 23.667 -16.5 39c0 21.333 -7.16699 39.166 -21.5 53.499s-32.166 21.5 -53.499 21.5c-20.667 0 -38.334 -7.16699 -53.001 -21.5s-22 -32.166 -22 -53.499c0 -13.333 3 -25.166 9 -35.499s13.667 -18.833 23 -25.5c11.333 -9.33301 18.5 -20.833 21.5 -34.5
s0.833008 -26.834 -6.5 -39.501h-1c0 -0.666992 -0.166992 -1.16699 -0.5 -1.5s-0.5 -1.16602 -0.5 -2.49902c-1.33301 -2 -3 -3.83301 -5 -5.5s-4 -3.5 -6 -5.5c-1.33301 -1.33301 -2.33301 -2 -3 -2c-0.666992 -0.666992 -1.66699 -1.33398 -3 -2.00098
s-2.16602 -1.16699 -2.49902 -1.5s-1.16602 -0.833008 -2.49902 -1.5c-21.333 -10.667 -38.833 -26.5 -52.5 -47.5s-20.5 -44.167 -20.5 -69.5c0 -18 3.33301 -34.833 10 -50.5s15.834 -29.334 27.501 -41.001s25.334 -20.834 41.001 -27.501s32.5 -10 50.5 -10
s34.833 3.33301 50.5 10s29.5 15.834 41.5 27.501s21.333 25.334 28 41.001s10 32.5 10 50.5v6c-26 -0.666992 -44.5 -3.16699 -55.5 -7.5s-17.833 -8.16602 -20.5 -11.499c-3.33301 -3.33301 -5.5 -6.66602 -6.5 -9.99902s-1.5 -7.33301 -1.5 -12
c0 -3.33301 0.166992 -5.83301 0.5 -7.5s0.5 -2.83398 0.5 -3.50098c4 -14.667 2.5 -28.667 -4.5 -42s-18.167 -22.333 -33.5 -27c-5.33301 -1.33301 -10.333 -2 -15 -2c-12.667 0 -23.834 3.5 -33.501 10.5s-16.167 16.833 -19.5 29.5
c-1.33301 1.33301 -2.66602 5.83301 -3.99902 13.5s-2 17.167 -2 28.5c-0.666992 13.333 1.66602 29.5 6.99902 48.5s16.666 36.5 33.999 52.5c35.333 34 87.333 51 156 51h16.5c5.66699 0 11.167 -0.333008 16.5 -1h4c4.66699 0 8.33398 0.333008 11.001 1
c1.33301 0.666992 2.33301 1.33398 3 2.00098v7v6c0 2.66699 -0.333008 5.66699 -1 9c-4 15.333 -2 29.333 6 42s19.667 20.667 35 24s29.333 1 42 -7s20.667 -19.667 24 -35z" />
    <glyph glyph-name="quotesingle" unicode="'" horiz-adv-x="230" 
d="M87 647c1.33301 16 6.99902 29.334 16.999 40.001s23.333 16 40 16h39c9.33301 0 17.333 -2.83301 24 -8.5s10 -13.834 10 -24.501c0 -3.33301 -0.333008 -6.83301 -1 -10.5s-1.66699 -7.5 -3 -11.5l-73 -222c-7.33301 -20.667 -19.666 -31 -36.999 -31
c-10 0 -18.333 3.5 -25 10.5s-9.66699 16.167 -9 27.5z" />
    <glyph glyph-name="parenleft" unicode="(" horiz-adv-x="430" 
d="M191 -55c-16 12.667 -30.0039 27.167 -42.0039 43.5s-22.333 33.833 -31 52.5c-17.333 38 -29.5 79.167 -36.5 123.5s-10.5 91.5 -10.5 141.5c0 37.333 1.83301 73.166 5.5 107.499s10.167 67.166 19.5 98.499c9.33301 30.667 21.333 59.167 36 85.5
s34.334 49.166 59.001 68.499c34 26.667 73.667 40 119 40c17.333 0 32.166 -6.16699 44.499 -18.5s18.5 -27.166 18.5 -44.499s-6.16699 -32.333 -18.5 -45s-27.166 -19 -44.499 -19c-9.33301 0 -17.166 -1 -23.499 -3s-12.5 -5.33301 -18.5 -10
c-12.667 -9.33301 -24.334 -25.666 -35.001 -48.999c-11.333 -23.333 -20.166 -53.333 -26.499 -90s-9.16602 -77 -8.49902 -121c-1.33301 -66.667 5.33398 -123.667 20.001 -171c6.66699 -23.333 14.334 -42.333 23.001 -57s17.667 -25.334 27 -32.001
c6 -4.66699 12.167 -8 18.5 -10s14.166 -3.33301 23.499 -4c17.333 0 32.166 -6.16699 44.499 -18.5s18.5 -27.166 18.5 -44.499s-6.16699 -32.166 -18.5 -44.499s-27.166 -18.5 -44.499 -18.5h-2c-44.667 0 -83.667 13 -117 39z" />
    <glyph glyph-name="parenright" unicode=")" horiz-adv-x="430" 
d="M242 -55c-33.333 -26 -72.3369 -39 -117.004 -39h-2c-17.333 0 -32.166 6.16699 -44.499 18.5s-18.5 27.166 -18.5 44.499s6.16699 32.166 18.5 44.499s27.166 18.5 44.499 18.5c9.33301 0.666992 17.166 2 23.499 4s12.5 5.33301 18.5 10
c9.33301 6.66699 18.333 17.334 27 32.001s16.334 33.667 23.001 57c14.667 47.333 21.334 104.333 20.001 171c0.666992 44 -2.16602 84.333 -8.49902 121s-15.166 66.667 -26.499 90c-10.667 23.333 -22.334 39.666 -35.001 48.999c-6 4.66699 -12.167 8 -18.5 10
s-14.166 3 -23.499 3c-17.333 0 -32.166 6.33301 -44.499 19s-18.5 27.667 -18.5 45s6.16699 32.166 18.5 44.499s27.166 18.5 44.499 18.5c45.333 0 85 -13.333 119 -40c24.667 -19.333 44.334 -42.166 59.001 -68.499s26.667 -54.833 36 -85.5
c9.33301 -31.333 15.833 -64.166 19.5 -98.499s5.5 -70.166 5.5 -107.499c0 -50 -3.5 -97.167 -10.5 -141.5s-19.167 -85.5 -36.5 -123.5c-8.66699 -18.667 -19 -36.167 -31 -52.5s-26 -30.833 -42 -43.5z" />
    <glyph glyph-name="asterisk" unicode="*" horiz-adv-x="430" 
d="M209 504l-74.9971 -54.999c-4.66699 -3.33301 -8.83398 -5.83301 -12.501 -7.5s-7.83398 -2.5 -12.501 -2.5c-9.33301 0 -17.166 3.33301 -23.499 10s-9.5 14.667 -9.5 24c0 7.33301 2.5 13.666 7.5 18.999s10.167 9.33301 15.5 12l88 38l-88 39
c-6 2.66699 -11.333 6.66699 -16 12s-7 11.666 -7 18.999c0 9.33301 3.33301 17.166 10 23.499s14.667 9.5 24 9.5c7.33301 0 15.333 -3.33301 24 -10l75 -55l-10 89c-1.33301 10.667 1 19.667 7 27s14 11 24 11s18 -3.5 24 -10.5s8.33301 -15.833 7 -26.5l-10 -90l75 55
c8.66699 6.66699 17 10 25 10c9.33301 0 17.166 -3.16699 23.499 -9.5s9.5 -14.166 9.5 -23.499c0 -8 -2.33301 -14.5 -7 -19.5s-10 -8.83301 -16 -11.5l-88 -39l88 -38c6 -2.66699 11.333 -6.66699 16 -12s7 -12 7 -20c0 -9.33301 -3.33301 -17.166 -10 -23.499
s-14.667 -9.5 -24 -9.5c-4 0 -7.83301 0.833008 -11.5 2.5s-7.83398 4.16699 -12.501 7.5l-75 55l10 -89c1.33301 -10.667 -1 -19.667 -7 -27s-14 -11 -24 -11s-18 3.5 -24 10.5s-8.33301 15.833 -7 26.5z" />
    <glyph glyph-name="plus" unicode="+" horiz-adv-x="620" 
d="M261 297h-142c-15.333 0 -28.333 5.33301 -39 16s-16 23.667 -16 39s5.33301 28.333 16 39s23.667 16 39 16h142v139c0 16 5.5 29.5 16.5 40.5s24.5 16.5 40.5 16.5c15.333 0 28.666 -5.5 39.999 -16.5s17 -24.5 17 -40.5v-139h142c15.333 0 28.333 -5.33301 39 -16
s16 -23.667 16 -39s-5.33301 -28.333 -16 -39s-23.667 -16 -39 -16h-142v-139c0 -16 -5.66699 -29.5 -17 -40.5s-24.666 -16.5 -39.999 -16.5c-16 0 -29.5 5.5 -40.5 16.5s-16.5 24.5 -16.5 40.5v139z" />
    <glyph glyph-name="comma" unicode="," horiz-adv-x="230" 
d="M54 -117c0 7.33301 2.16699 13.333 6.5 18s9.83301 7.66699 16.5 9c47.333 15.333 70 45.333 68 90c-14.667 4 -27.834 11.833 -39.501 23.5s-17.5 26.5 -17.5 44.5v8c0 19.333 6.16699 35.333 18.5 48s28.833 19 49.5 19c22.667 0 40.334 -7.83301 53.001 -23.5
s19 -37.167 19 -64.5v-11c0 -34 -4.33301 -62.833 -13 -86.5s-20.667 -43.5 -36 -59.5c-13.333 -13.333 -28.833 -23.833 -46.5 -31.5s-33.5 -11.5 -47.5 -11.5c-10.667 0 -18.5 2.83301 -23.5 8.5s-7.5 12.167 -7.5 19.5z" />
    <glyph glyph-name="hyphen" unicode="-" horiz-adv-x="408" 
d="M125 247c-16 0 -29.833 5.83301 -41.5 17.5s-17.5 25.5 -17.5 41.5c0 16.667 5.83301 30.834 17.5 42.501s25.5 17.5 41.5 17.5h188c16 0 29.833 -5.83301 41.5 -17.5s17.5 -25.834 17.5 -42.501c0 -16 -5.83301 -29.833 -17.5 -41.5s-25.5 -17.5 -41.5 -17.5h-188z" />
    <glyph glyph-name="period" unicode="." horiz-adv-x="230" 
d="M82 67c0 20.667 7.16699 38.334 21.5 53.001s31.833 22 52.5 22s38.334 -7.33301 53.001 -22s22 -32.334 22 -53.001s-7.33301 -38.167 -22 -52.5s-32.334 -21.5 -53.001 -21.5s-38.167 7.16699 -52.5 21.5s-21.5 31.833 -21.5 52.5z" />
    <glyph glyph-name="slash" unicode="/" horiz-adv-x="422" 
d="M115 4c-14.667 5.33301 -24.835 15.166 -30.502 29.499s-5.5 28.5 0.5 42.5l245 583c6 14 16 23.833 30 29.5s28.333 5.5 43 -0.5c13.333 -5.33301 22.833 -15.166 28.5 -29.499s5.5 -28.166 -0.5 -41.499l-245 -584c-4.66699 -10.667 -11.667 -18.834 -21 -24.501
s-19.333 -8.5 -30 -8.5c-3.33301 -0 -6.66602 0.333008 -9.99902 1s-6.66602 1.66699 -9.99902 3z" />
    <glyph glyph-name="zero" unicode="0" horiz-adv-x="710" 
d="M412 173c14 21.333 25.5 47.166 34.5 77.499s13.5 63.5 13.5 99.5s-4.5 69.333 -13.5 100s-20.5 56.667 -34.5 78c-14.667 21.333 -30 37 -46 47s-31.667 14.667 -47 14c-15.333 0.666992 -31.166 -4 -47.499 -14s-32.166 -25.667 -47.499 -47
c-14 -21.333 -25.5 -47.333 -34.5 -78s-13.5 -64 -13.5 -100s4.5 -69.167 13.5 -99.5s20.5 -56.166 34.5 -77.499c15.333 -21.333 31.166 -37 47.499 -47s32.166 -15 47.499 -15s31 5 47 15s31.333 25.667 46 47zM133 111c-22 32 -38.667 68.333 -50 109s-17.333 84 -18 130
c0.666992 46 6.66699 89.333 18 130s28 77 50 109c21.333 32 47.666 58.5 78.999 79.5s67 31.5 107 31.5c38.667 0 73.834 -10.5 105.501 -31.5s58.167 -47.5 79.5 -79.5s37.833 -68.333 49.5 -109s17.5 -84 17.5 -130s-5.83301 -89.333 -17.5 -130s-28.167 -77 -49.5 -109
s-47.833 -58.5 -79.5 -79.5s-66.834 -31.5 -105.501 -31.5c-40 0 -75.667 10.5 -107 31.5s-57.666 47.5 -78.999 79.5z" />
    <glyph glyph-name="one" unicode="1" horiz-adv-x="335" 
d="M273 648l0.00195312 -2.99805v-590c0 -15.333 -5.5 -28.333 -16.5 -39s-24.167 -16 -39.5 -16s-28.333 5.33301 -39 16s-16 23.667 -16 39v492l-40 -23c-8 -5.33301 -17.333 -8 -28 -8c-20.667 0 -36.334 9.33301 -47.001 28c-8.66699 12.667 -11.167 26.5 -7.5 41.5
s12.167 26.167 25.5 33.5l123 73c0.666992 0.666992 1.33398 1 2.00098 1s1.33398 0.333008 2.00098 1c1.33301 0 2.16602 0.333008 2.49902 1s1.16602 1.33398 2.49902 2.00098c1.33301 0 2.33301 0.166992 3 0.5s1.66699 0.5 3 0.5c0.666992 0.666992 2 1 4 1
c1.33301 0.666992 3.66602 1 6.99902 1h3h1h7c0.666992 -0.666992 2 -1 4 -1c1.33301 0 3.33301 -0.666992 6 -2c2 0 3.33301 -0.333008 4 -1c2.66699 -2 4.66699 -3 6 -3c1.33301 -1.33301 2.66602 -2.33301 3.99902 -3c0.666992 -0.666992 1.33398 -1.16699 2.00098 -1.5
s1.33398 -0.833008 2.00098 -1.5c1.33301 -0.666992 2.16602 -1.33398 2.49902 -2.00098s0.833008 -1.33398 1.5 -2.00098c1.33301 -1.33301 2.33301 -2.66602 3 -3.99902l4 -4l1 -2c0 -0.666992 0.166992 -1.16699 0.5 -1.5s0.5 -0.833008 0.5 -1.5
c1.33301 -2.66699 2 -4.33398 2 -5.00098c0.666992 -1.33301 1 -2.33301 1 -3s0.333008 -1.33398 1 -2.00098c0 -1.33301 0.166992 -2.33301 0.5 -3s0.5 -1.33398 0.5 -2.00098c0 -3.33301 0.666992 -5.66602 2 -6.99902z" />
    <glyph glyph-name="two" unicode="2" horiz-adv-x="590" 
d="M462 111c15.333 0 28.3311 -5.50195 38.998 -16.502s16 -24.167 16 -39.5s-5.33301 -28.333 -16 -39s-23.667 -16 -39 -16h-354h-1h-1c-7.33301 0 -14.666 1.5 -21.999 4.5s-13.666 7.5 -18.999 13.5c-10.667 11.333 -15.667 24.5 -15 39.5s6.66699 27.833 18 38.5
l296 268c14.667 13.333 25.334 28.166 32.001 44.499s10 33.5 10 51.5c0 32.667 -11 61.667 -33 87c-13.333 14.667 -28.333 25.334 -45 32.001s-33.667 10 -51 10c-15.333 0 -30.5 -2.66699 -45.5 -8s-28.833 -13.666 -41.5 -24.999l-31 -28
c-11.333 -10.667 -24.5 -15.5 -39.5 -14.5s-27.833 7.16699 -38.5 18.5c-10 11.333 -14.667 24.5 -14 39.5s6.66699 27.833 18 38.5l31 28c22.667 21.333 48 37 76 47s56.333 15 85 15c32.667 0 64.667 -6.66699 96 -20s58.666 -33 81.999 -59c21.333 -22.667 37 -48 47 -76
s15 -56.333 15 -85c0 -32.667 -6.66699 -64.667 -20 -96s-33 -58.666 -59 -81.999l-189 -171h213z" />
    <glyph glyph-name="three" unicode="3" horiz-adv-x="610" 
d="M374 474c13.333 -6 25.834 -12.9941 37.501 -20.9941s22.5 -17.333 32.5 -28c24.667 -24 43 -51.167 55 -81.5s18 -61.5 18 -93.5s-6 -63.167 -18 -93.5s-30.333 -57.833 -55 -82.5c-24 -24 -51.333 -42.167 -82 -54.5s-62 -18.5 -94 -18.5s-63.167 6.16699 -93.5 18.5
s-57.5 30.5 -81.5 54.5c-11.333 11.333 -17 24.666 -17 39.999s5.66699 28.666 17 39.999s24.666 17 39.999 17s28.666 -5.66699 39.999 -17c13.333 -13.333 28.166 -23.166 44.499 -29.499s33.166 -9.5 50.499 -9.5c36.667 0 68.667 13 96 39
c13.333 13.333 23.333 28.333 30 45s10 33.667 10 51s-3.33301 34.166 -10 50.499s-16.667 31.166 -30 44.499s-28.166 23.166 -44.499 29.499s-33.166 9.83301 -50.499 10.5c-16.667 -1.33301 -30.334 4.66699 -41.001 18c-0.666992 0 -1 0.333008 -1 1
c-11.333 11.333 -17.166 24.666 -17.499 39.999s4.83398 28.666 15.501 39.999l102 104h-162c-15.333 0 -28.5 5.5 -39.5 16.5s-16.5 24.5 -16.5 40.5c0 15.333 5.5 28.5 16.5 39.5s24.167 16.5 39.5 16.5h295c16 0 29.5 -5.5 40.5 -16.5s16.5 -24.167 16.5 -39.5
c0 -8.66699 -2.33301 -17.667 -7 -27c-1.33301 -2.66699 -2.83301 -5.16699 -4.5 -7.5s-3.5 -4.5 -5.5 -6.5z" />
    <glyph glyph-name="four" unicode="4" horiz-adv-x="664" 
d="M424 241v247l-199 -247h199zM544 241c15.333 0 28.498 -5.33301 39.498 -16s16.5 -23.667 16.5 -39s-5.5 -28.333 -16.5 -39s-24.167 -16 -39.5 -16h-10v-76c0 -15.333 -5.33301 -28.333 -16 -39s-23.667 -16 -39 -16s-28.333 5.33301 -39 16s-16 23.667 -16 39v76h-313
h-1h-1c-6 0 -11.833 0.833008 -17.5 2.5s-11.167 4.83398 -16.5 9.50098c-12.667 9.33301 -19.667 21.5 -21 36.5s2.66699 28.5 12 40.5l370 460l2 2c1.33301 1.33301 2.33301 2.66602 3 3.99902c2 0.666992 3.66699 1.66699 5 3
c0.666992 0.666992 1.33398 1.16699 2.00098 1.5s1.33398 0.833008 2.00098 1.5c2.66699 1.33301 4.66699 2 6 2c0.666992 2 2 3 4 3l6 2c2 0 3.33301 0.333008 4 1h7h2h2h6c1.33301 -0.666992 3 -1 5 -1c0.666992 -0.666992 1.5 -1 2.5 -1s2.16699 -0.333008 3.5 -1
c0.666992 0 1.33398 -0.166992 2.00098 -0.5s1.33398 -0.5 2.00098 -0.5c1.33301 -1.33301 2.33301 -2.16602 3 -2.49902s1.33398 -0.833008 2.00098 -1.5c1.33301 -0.666992 2.16602 -1.16699 2.49902 -1.5s1.16602 -0.833008 2.49902 -1.5c0.666992 0 1 -0.333008 1 -1
c2 0 3 -0.666992 3 -2l4 -4c0.666992 -0.666992 1.16699 -1.33398 1.5 -2.00098s0.833008 -1.33398 1.5 -2.00098c1.33301 -1.33301 2.66602 -3 3.99902 -5c0 -1.33301 0.666992 -2.66602 2 -3.99902c0.666992 -1.33301 1 -2.33301 1 -3s0.333008 -1.66699 1 -3
c0 -0.666992 0.166992 -1.33398 0.5 -2.00098s0.5 -1.33398 0.5 -2.00098c0.666992 -1.33301 1 -3.33301 1 -6c0 -1.33301 0.166992 -2.16602 0.5 -2.49902s0.5 -1.16602 0.5 -2.49902v-3v-404h10z" />
    <glyph glyph-name="five" unicode="5" horiz-adv-x="605" 
d="M259 497c32 0 63.166 -5.99707 93.499 -17.9971s57.5 -30.333 81.5 -55c24.667 -24 43 -51.333 55 -82s18 -62 18 -94s-6.16699 -63.167 -18.5 -93.5s-30.5 -57.5 -54.5 -81.5c-24 -24.667 -51.167 -43 -81.5 -55s-61.5 -18 -93.5 -18h-2c-31.333 0 -62.333 6 -93 18
s-57.667 30.333 -81 55c-11.333 10.667 -17 23.834 -17 39.501s5.66699 29.167 17 40.5c10.667 11.333 23.834 17 39.501 17s29.167 -5.66699 40.5 -17c13.333 -13.333 28.166 -23.333 44.499 -30s33.5 -10 51.5 -10c17.333 0 34.166 3.33301 50.499 10
s31.166 16.667 44.499 30s23.333 28.166 30 44.499s10 33.166 10 50.499c0 18 -3.33301 35.167 -10 51.5s-16.667 31.166 -30 44.499s-28.166 23.166 -44.499 29.499s-33.166 9.5 -50.499 9.5s-34.333 -3.16699 -51 -9.5s-31.667 -16.166 -45 -29.499
c-11.333 -11.333 -24.666 -17 -39.999 -17s-28.666 5.66699 -39.999 17c-2 2 -3.83301 4.16699 -5.5 6.5s-3.5 4.5 -5.5 6.5c0 2 -0.333008 3 -1 3c0 2 -0.666992 3.66699 -2 5c0 1.33301 -0.166992 2.5 -0.5 3.5s-0.5 2.16699 -0.5 3.5c0 0.666992 -0.166992 1 -0.5 1
s-0.5 0.333008 -0.5 1c-1.33301 6 -1.33301 11.667 0 17l30 259c3.33301 17.333 11.666 30.666 24.999 39.999l4 2c0.666992 0.666992 1.16699 1 1.5 1s0.833008 0.333008 1.5 1c8 4 16.667 6 26 6h295c16 0 29.5 -5.5 40.5 -16.5s16.5 -24.5 16.5 -40.5
c0 -15.333 -5.5 -28.5 -16.5 -39.5s-24.5 -16.5 -40.5 -16.5h-246l-12 -99c22 6 44.333 9 67 9z" />
    <glyph glyph-name="six" unicode="6" horiz-adv-x="642" 
d="M308 111c18 0 35 3.33301 51 10s30 16 42 28s21.5 26 28.5 42s10.5 33 10.5 51s-3.5 35 -10.5 51s-16.5 30 -28.5 42s-26 21.5 -42 28.5s-33 10.5 -51 10.5s-35 -3.5 -51 -10.5s-30 -16.5 -42 -28.5s-21.333 -26 -28 -42s-10 -33 -10 -51s3.33301 -35 10 -51
s16 -30 28 -42s26 -21.333 42 -28s33 -10 51 -10zM308 484c33.333 0 64.834 -6.33887 94.501 -19.0059s55.5 -30 77.5 -52s39.333 -47.667 52 -77s19 -60.666 19 -93.999s-6.33301 -64.666 -19 -93.999s-30 -55 -52 -77s-47.833 -39.333 -77.5 -52s-61.167 -19 -94.5 -19
c-31.333 0 -61 5.5 -89 16.5s-52.833 26.333 -74.5 46s-39.334 42.667 -53.001 69s-21.834 54.833 -24.501 85.5c0 0.666992 -0.333008 1.33398 -1 2.00098c-0.666992 9.33301 -1.16699 18.833 -1.5 28.5s-0.5 19.167 -0.5 28.5c0 34 2.66699 68.333 8 103
s14.333 68.667 27 102s29.334 64.833 50.001 94.5s47 55.167 79 76.5c21.333 14 44.5 25 69.5 33s51.833 12.667 80.5 14c15.333 0.666992 28.5 -4.16602 39.5 -14.499s17.167 -23.166 18.5 -38.499c0.666992 -15.333 -4.33301 -28.5 -15 -39.5s-23.667 -17.167 -39 -18.5
c-19.333 -0.666992 -36.5 -3.5 -51.5 -8.5s-29.167 -11.5 -42.5 -19.5c-25.333 -17.333 -46.333 -40.666 -63 -69.999c-2.66699 -4 -5 -8.16699 -7 -12.5l-6 -13.5c30 13.333 62 20 96 20z" />
    <glyph glyph-name="seven" unicode="7" horiz-adv-x="587" 
d="M516 634c-0.666992 -2.66699 -1.66895 -6.00293 -3.00195 -10.0029l-250 -591c-4 -10.667 -10.667 -18.834 -20 -24.501s-19.666 -8.5 -30.999 -8.5c-3.33301 0 -6.83301 0.333008 -10.5 1s-7.16699 1.66699 -10.5 3c-14 6.66699 -23.833 17 -29.5 31
s-5.83398 27.667 -0.500977 41l216 513h-258c-15.333 0 -28.333 5.5 -39 16.5s-16 24.167 -16 39.5s5.33301 28.333 16 39s23.667 16 39 16h343c4 0 7.33301 -0.333008 10 -1c3.33301 -0.666992 6.83301 -1.83398 10.5 -3.50098s7.16699 -3.16699 10.5 -4.5l3 -3
c2 -0.666992 3.33301 -2 4 -4c0.666992 -1.33301 1.33398 -2.16602 2.00098 -2.49902s1.33398 -0.833008 2.00098 -1.5c0.666992 -1.33301 1.66699 -2.66602 3 -3.99902s2 -3 2 -5c0.666992 -1.33301 2 -3 4 -5c0 -0.666992 0.166992 -1.5 0.5 -2.5s0.5 -1.83301 0.5 -2.5
c0.666992 -1.33301 1 -2.16602 1 -2.49902s0.333008 -1.16602 1 -2.49902c1.33301 -7.33301 1.33301 -14.666 0 -21.999z" />
    <glyph glyph-name="eight" unicode="8" horiz-adv-x="630" 
d="M295 109c18 0 34.833 3.33301 50.5 10s29.334 15.834 41.001 27.501s20.834 25.334 27.501 41.001s10 32.5 10 50.5s-3.33301 34.833 -10 50.5s-15.834 29.334 -27.501 41.001s-25.334 21 -41.001 28s-32.5 10.5 -50.5 10.5s-34.833 -3.5 -50.5 -10.5
s-29.5 -16.333 -41.5 -28s-21.5 -25.334 -28.5 -41.001s-10.5 -32.5 -10.5 -50.5s3.5 -34.833 10.5 -50.5s16.5 -29.334 28.5 -41.001s25.833 -20.834 41.5 -27.501s32.5 -10 50.5 -10zM295 591c-16 0 -29.5 -5.33301 -40.5 -16s-16.5 -23.667 -16.5 -39
s5.5 -28.666 16.5 -39.999s24.5 -17 40.5 -17c15.333 0 28.333 5.66699 39 17s16 24.666 16 39.999s-5.33301 28.333 -16 39s-23.667 16 -39 16zM426 437c32 -21.333 57.833 -49.333 77.5 -84s29.5 -73 29.5 -115c0 -32.667 -6.33301 -63.5 -19 -92.5
s-29.667 -54.167 -51 -75.5s-46.5 -38.333 -75.5 -51s-59.833 -19 -92.5 -19c-33.333 -0 -64.5 6.33301 -93.5 19s-54.333 29.667 -76 51s-38.834 46.5 -51.501 75.5s-19 59.833 -19 92.5c0 42 9.66699 80.333 29 115s45.333 62.667 78 84c-22 28 -33 61 -33 99
c0 22.667 4.33301 43.834 13 63.501s20.5 37 35.5 52s32.5 26.833 52.5 35.5s41.667 13 65 13c22.667 0 43.834 -4.33301 63.501 -13s37 -20.5 52 -35.5s26.833 -32.333 35.5 -52s13 -40.834 13 -63.501c0 -38 -11 -71 -33 -99z" />
    <glyph glyph-name="nine" unicode="9" horiz-adv-x="642" 
d="M309 589c-18 0 -35 -3.33301 -51 -10s-30 -16 -42 -28s-21.5 -26 -28.5 -42s-10.5 -33 -10.5 -51s3.5 -35 10.5 -51s16.5 -30 28.5 -42s26 -21.5 42 -28.5s33 -10.5 51 -10.5s35 3.5 51 10.5s30 16.5 42 28.5s21.333 26 28 42s10 33 10 51s-3.33301 35 -10 51
s-16 30 -28 42s-26 21.333 -42 28s-33 10 -51 10zM309 216c-33.333 0 -64.832 6.33691 -94.499 19.0039s-55.5 30 -77.5 52s-39.333 47.667 -52 77s-19 60.666 -19 93.999s6.33301 64.666 19 93.999s30 55 52 77s47.833 39.333 77.5 52s61.167 19 94.5 19
c31.333 0 61 -5.66699 89 -17s52.667 -26.666 74 -45.999s38.833 -42.166 52.5 -68.499s22.167 -54.833 25.5 -85.5c0 -0.666992 0.333008 -1.33398 1 -2.00098c0.666992 -9.33301 1.16699 -18.833 1.5 -28.5s0.5 -19.167 0.5 -28.5c0 -34 -2.66699 -68.333 -8 -103
s-14.333 -68.667 -27 -102s-29.334 -64.833 -50.001 -94.5s-47 -55.167 -79 -76.5c-21.333 -14 -44.5 -25 -69.5 -33s-51.833 -12.667 -80.5 -14c-15.333 -0.666992 -28.5 4.16602 -39.5 14.499s-17.167 23.166 -18.5 38.499c-0.666992 15.333 4.33301 28.5 15 39.5
s23.667 17.167 39 18.5c19.333 0.666992 36.5 3.5 51.5 8.5s29.167 11.5 42.5 19.5c25.333 17.333 46.333 40.666 63 69.999c2.66699 4 5 8.16699 7 12.5l6 13.5c-30 -13.333 -62 -20 -96 -20z" />
    <glyph glyph-name="colon" unicode=":" horiz-adv-x="240" 
d="M87 465c0 20.667 7.16699 38.334 21.5 53.001s31.833 22 52.5 22s38.334 -7.33301 53.001 -22s22 -32.334 22 -53.001s-7.33301 -38.167 -22 -52.5s-32.334 -21.5 -53.001 -21.5s-38.167 7.16699 -52.5 21.5s-21.5 31.833 -21.5 52.5zM87 67
c0 20.667 7.16699 38.334 21.5 53.001s31.833 22 52.5 22s38.334 -7.33301 53.001 -22s22 -32.334 22 -53.001s-7.33301 -38.167 -22 -52.5s-32.334 -21.5 -53.001 -21.5s-38.167 7.16699 -52.5 21.5s-21.5 31.833 -21.5 52.5z" />
    <glyph glyph-name="semicolon" unicode=";" horiz-adv-x="240" 
d="M59 -128c0 9.33301 2.83008 16.667 8.49707 22s12.834 9 21.501 11c25.333 6 44.833 17.333 58.5 34s19.834 37 18.501 61c-17.333 4.66699 -33.333 14.167 -48 28.5s-22 32.166 -22 53.499v2c0 23.333 7.5 42.833 22.5 58.5s35.167 23.5 60.5 23.5
c28 0 49.833 -10 65.5 -30s23.5 -47.333 23.5 -82v-4c0 -36.667 -5.16699 -68.5 -15.5 -95.5s-24.833 -49.833 -43.5 -68.5c-15.333 -15.333 -33.166 -27.166 -53.499 -35.499s-39.833 -12.5 -58.5 -12.5c-13.333 0 -23 3.33301 -29 10s-9 14.667 -9 24zM95.9971 457.001
c0 24 8.16699 44.167 24.5 60.5s37.166 24.5 62.499 24.5s46.166 -8.16699 62.499 -24.5s24.5 -36.5 24.5 -60.5v-2c0 -24 -8.16699 -44.167 -24.5 -60.5s-37.166 -24.5 -62.499 -24.5s-46.166 8.16699 -62.499 24.5s-24.5 36.5 -24.5 60.5v2z" />
    <glyph glyph-name="semicolon" unicode="&#x37e;" horiz-adv-x="240" 
d="M59 -128c0 9.33301 2.83008 16.667 8.49707 22s12.834 9 21.501 11c25.333 6 44.833 17.333 58.5 34s19.834 37 18.501 61c-17.333 4.66699 -33.333 14.167 -48 28.5s-22 32.166 -22 53.499v2c0 23.333 7.5 42.833 22.5 58.5s35.167 23.5 60.5 23.5
c28 0 49.833 -10 65.5 -30s23.5 -47.333 23.5 -82v-4c0 -36.667 -5.16699 -68.5 -15.5 -95.5s-24.833 -49.833 -43.5 -68.5c-15.333 -15.333 -33.166 -27.166 -53.499 -35.499s-39.833 -12.5 -58.5 -12.5c-13.333 0 -23 3.33301 -29 10s-9 14.667 -9 24zM95.9971 457.001
c0 24 8.16699 44.167 24.5 60.5s37.166 24.5 62.499 24.5s46.166 -8.16699 62.499 -24.5s24.5 -36.5 24.5 -60.5v-2c0 -24 -8.16699 -44.167 -24.5 -60.5s-37.166 -24.5 -62.499 -24.5s-46.166 8.16699 -62.499 24.5s-24.5 36.5 -24.5 60.5v2z" />
    <glyph glyph-name="less" unicode="&#x3c;" horiz-adv-x="620" 
d="M213 347l237 -238.996c12.667 -13.333 19 -28.5 19 -45.5s-6.33301 -31.833 -19 -44.5c-13.333 -12 -28 -18 -44 -18c-18 0 -33.333 6 -46 18l-281 285c-2 0.666992 -3.66699 2.66699 -5 6c-0.666992 0 -1 0.166992 -1 0.5s-0.333008 0.5 -1 0.5s-1 0.333008 -1 1
c-1.33301 1.33301 -2 2.66602 -2 3.99902s-0.333008 2.66602 -1 3.99902c-2 0.666992 -3 2 -3 4c-0.666992 1.33301 -1 2.5 -1 3.5s-0.333008 1.83301 -1 2.5c0 1.33301 -0.333008 2.33301 -1 3s-1 1.33398 -1 2.00098v7c0 1.33301 -0.166992 2.33301 -0.5 3
s-0.5 1.66699 -0.5 3c0 0.666992 0.166992 1.5 0.5 2.5s0.5 1.83301 0.5 2.5v7c0 1.33301 0.333008 2.16602 1 2.49902s1 0.833008 1 1.5c0.666992 1.33301 1 2.66602 1 3.99902s0.333008 2.66602 1 3.99902c0 0.666992 0.166992 1 0.5 1s0.5 0.333008 0.5 1
c1.33301 1.33301 2.16602 2.83301 2.49902 4.5s1.16602 3.16699 2.49902 4.5v1c0.666992 0.666992 1.33398 1 2.00098 1c1.33301 2.66699 3.33301 5 6 7l281 285c12.667 12 27.834 18 45.501 18s32.5 -6 44.5 -18c12.667 -12.667 19 -27.667 19 -45
s-6.33301 -32.333 -19 -45z" />
    <glyph glyph-name="equal" unicode="=" horiz-adv-x="620" 
d="M115 372c-10 0 -18.5 3.33301 -25.5 10s-10.5 15 -10.5 25c0 9.33301 3.5 17.5 10.5 24.5s15.5 10.5 25.5 10.5h186c10 0 18.333 -3.5 25 -10.5s10 -15.167 10 -24.5c0 -10 -3.33301 -18.333 -10 -25s-15 -10 -25 -10h-186zM115 259c-10 0 -18.5 3.5 -25.5 10.5
s-10.5 15.5 -10.5 25.5s3.5 18.5 10.5 25.5s15.5 10.5 25.5 10.5h186c10 0 18.333 -3.5 25 -10.5s10 -15.5 10 -25.5s-3.33301 -18.5 -10 -25.5s-15 -10.5 -25 -10.5h-186z" />
    <glyph glyph-name="greater" unicode="&#x3e;" horiz-adv-x="620" 
d="M498 320l-2.00098 -4.00195c-0.666992 -1.33301 -1.66699 -3 -3 -5c0 -0.666992 -0.333008 -1 -1 -1l-3.5 -3.5l-3.5 -3.5l-281 -285c-6 -6 -13 -10.5 -21 -13.5s-16 -4.5 -24 -4.5c-17.333 0 -32.333 6 -45 18c-12.667 12.667 -19 27.5 -19 44.5s6.33301 32.167 19 45.5
l237 239l-237 239c-12.667 12.667 -19 27.667 -19 45s6.33301 32.333 19 45c12 12 26.833 18 44.5 18s32.834 -6 45.501 -18l281 -285l3.5 -3.5l3.5 -3.5l1 -1v-1c1.33301 -2 2.33301 -3.66699 3 -5l2 -4c0 -0.666992 0.166992 -1 0.5 -1s0.5 -0.333008 0.5 -1
c0.666992 -1.33301 1 -2.66602 1 -3.99902s0.666992 -3 2 -5c0 -0.666992 0.166992 -1 0.5 -1s0.5 -0.666992 0.5 -2v-7c0 -0.666992 0.166992 -1.5 0.5 -2.5s0.5 -1.83301 0.5 -2.5s-0.166992 -1.5 -0.5 -2.5s-0.5 -1.83301 -0.5 -2.5v-8c0 -0.666992 -0.166992 -1 -0.5 -1
s-0.5 -0.333008 -0.5 -1c-1.33301 -2 -2 -3.66699 -2 -5s-0.333008 -2.66602 -1 -3.99902c0 -0.666992 -0.166992 -1 -0.5 -1s-0.5 -0.666992 -0.5 -2z" />
    <glyph glyph-name="question" unicode="?" horiz-adv-x="534" 
d="M443 490c0 -24.667 -3.99902 -48.166 -11.999 -70.499s-19.333 -42.5 -34 -60.5s-31.834 -33.333 -51.501 -46s-41.167 -21.667 -64.5 -27v-65c0 -14 -4.66699 -25.667 -14 -35s-21 -14 -35 -14c-13.333 0 -24.833 4.66699 -34.5 14s-14.5 21 -14.5 35v104
c0 0.666992 0.166992 1 0.5 1s0.5 0.333008 0.5 1c-0.666992 0.666992 -1 1.33398 -1 2.00098c0 13.333 4.83301 24.833 14.5 34.5s21.167 14.5 34.5 14.5c16 0 30.833 3 44.5 9s25.667 14 36 24s18.5 21.833 24.5 35.5s9 28.167 9 43.5c0 16 -3 30.833 -9 44.5
s-14.167 25.5 -24.5 35.5s-22.333 17.833 -36 23.5s-28.5 8.5 -44.5 8.5c-20.667 0 -39.5 -5 -56.5 -15s-30.167 -23.333 -39.5 -40c-7.33301 -12 -17.5 -19.833 -30.5 -23.5s-25.5 -1.83398 -37.5 5.49902c-11.333 7.33301 -18.833 17.333 -22.5 30s-1.83398 25 5.49902 37
c18 31.333 43 56.5 75 75.5s67.333 28.5 106 28.5c28.667 0 55.834 -5.5 81.501 -16.5s48.167 -26 67.5 -45s34.5 -41.333 45.5 -67s16.5 -52.834 16.5 -81.501zM232.001 116.001c14 0 25.667 -4.83301 35 -14.5s14 -21.167 14 -34.5v-18c0 -14 -4.66699 -25.667 -14 -35
s-21 -14 -35 -14c-13.333 0 -24.833 4.66699 -34.5 14s-14.5 21 -14.5 35v18c0 13.333 4.83301 24.833 14.5 34.5s21.167 14.5 34.5 14.5z" />
    <glyph glyph-name="at" unicode="@" horiz-adv-x="980" 
d="M460 284c7.33301 8.66699 13.333 18.668 18 30.001s7 23.666 7 36.999s-2.33301 25.5 -7 36.5s-10.667 20.833 -18 29.5c-8 7.33301 -16.833 13.333 -26.5 18s-20.167 7 -31.5 7s-21.833 -2.33301 -31.5 -7s-18.167 -10.667 -25.5 -18c-16.667 -18 -25 -40 -25 -66
c0 -26.667 8.33301 -49 25 -67c15.333 -16.667 34.333 -25 57 -25c22 0 41.333 8.33301 58 25zM402 700.001c48.667 0 94.167 -9.16504 136.5 -27.498s79.333 -43.333 111 -75s56.667 -68.667 75 -111s27.5 -87.5 27.5 -135.5c0 -59.333 -13 -113 -39 -161v-1
c-1.33301 -1.33301 -4 -5.33301 -8 -12s-9.66699 -14.334 -17 -23.001c-8.66699 -8.66699 -19.167 -17.667 -31.5 -27s-27.833 -16.333 -46.5 -21c-9.33301 -2 -18 -3 -26 -3c-16 -0.666992 -30.833 2.66602 -44.5 9.99902s-24.167 16.333 -31.5 27
c-7.33301 9.33301 -12.666 19.333 -15.999 30c-28 -14.667 -58 -22 -90 -22c-27.333 0 -52.833 5.33301 -76.5 16s-44.167 25.334 -61.5 44.001s-30.833 40.167 -40.5 64.5s-14.5 50.5 -14.5 78.5c0 27.333 4.83301 53.166 14.5 77.499s23.167 45.5 40.5 63.5
c17.333 18.667 37.833 33.5 61.5 44.5s49.167 16.5 76.5 16.5c28 0 53.833 -5.5 77.5 -16.5s44.167 -25.833 61.5 -44.5c17.333 -18 30.833 -39.167 40.5 -63.5s14.5 -50.166 14.5 -77.499v-8v-4v-119c1.33301 1.33301 2.5 2.33301 3.5 3s2.16699 1.66699 3.5 3
c3.33301 3.33301 6.16602 6.5 8.49902 9.5s3.83301 5.16699 4.5 6.5c16.667 33.333 25 69.666 25 108.999c0 32.667 -6.16699 63.5 -18.5 92.5s-29.333 54.167 -51 75.5s-47 38.333 -76 51s-60.167 19 -93.5 19c-32.667 0 -63.5 -6.33301 -92.5 -19
s-54.167 -29.667 -75.5 -51s-38.333 -46.5 -51 -75.5s-19 -59.833 -19 -92.5c0 -33.333 6.33301 -64.5 19 -93.5s29.667 -54.333 51 -76s46.5 -38.667 75.5 -51s59.833 -18.5 92.5 -18.5c20.667 0 40.667 2 60 6c14.667 4 28.667 2.16699 42 -5.5
s21.666 -18.834 24.999 -33.501c3.33301 -15.333 1.33301 -29.5 -6 -42.5s-18.666 -21.5 -33.999 -25.5c-29.333 -7.33301 -58.333 -11 -87 -11c-48 -0 -93.333 9.33301 -136 28s-79.667 43.834 -111 75.501s-56.166 68.667 -74.499 111s-27.5 87.833 -27.5 136.5
c0 48 9.16699 93.167 27.5 135.5s43.166 79.333 74.499 111s68.333 56.667 111 75s88 27.5 136 27.5z" />
    <glyph glyph-name="A" unicode="A" horiz-adv-x="646" 
d="M258 275h162l-81 215zM510 35l-49.0049 130h-243l-49 -130c-4.66699 -11.333 -11.667 -20 -21 -26s-19.666 -9 -30.999 -9c-6.66699 0 -13 1 -19 3c-14.667 5.33301 -25.167 15 -31.5 29s-6.83301 28.333 -1.5 43l221 589c4.66699 11.333 11.834 20.166 21.501 26.499
s20.167 9.16602 31.5 8.49902c11.333 0.666992 21.833 -2.16602 31.5 -8.49902s16.834 -15.166 21.501 -26.499l221 -589c5.33301 -14.667 4.83301 -29 -1.5 -43s-16.833 -23.667 -31.5 -29c-5.33301 -2 -11.666 -3 -18.999 -3c-11.333 0 -21.666 3 -30.999 9
s-16 14.667 -20 26z" />
    <glyph glyph-name="B" unicode="B" horiz-adv-x="594" 
d="M215 318l-0.000976562 -207.001h125c28.667 0.666992 53 10.834 73 30.501s30 44.167 30 73.5c0 14 -2.66699 27.333 -8 40s-12.666 23.5 -21.999 32.5s-20.333 16.333 -33 22s-26 8.5 -40 8.5h-125zM214.999 588.999v-160h86c22 0 40.667 8 56 24s23 35 23 57
s-7.66699 40.667 -23 56s-34 23 -56 23h-86zM158.999 -0.000976562c-15.333 0 -28.334 5.33105 -39.001 15.998s-16 23.667 -16 39v590c0 15.333 5.33301 28.333 16 39s23.667 16 39 16h3h1h138c26 0 50.667 -5 74 -15s43.5 -23.5 60.5 -40.5s30.5 -37.167 40.5 -60.5
s15 -48 15 -74c0 -21.333 -3.33301 -41.666 -10 -60.999s-16 -37 -28 -53c30 -19.333 54.333 -44.833 73 -76.5s28 -66.5 28 -104.5c0 -30 -5.66699 -58 -17 -84s-26.666 -48.667 -45.999 -68s-42 -34.666 -68 -45.999s-53.667 -17 -83 -17h-177l-1 1
c-1.33301 0 -2 -0.166992 -2 -0.5s-0.333008 -0.5 -1 -0.5z" />
    <glyph glyph-name="C" unicode="C" horiz-adv-x="771" 
d="M440 0c-50 0 -97.166 9.50098 -141.499 28.501s-83.166 44.667 -116.499 77s-59.833 70.333 -79.5 114s-29.5 90.5 -29.5 140.5c0 49.333 9.83301 95.833 29.5 139.5s46.167 81.834 79.5 114.501s72.166 58.5 116.499 77.5s91.5 28.5 141.5 28.5
c44 0 85.5 -6.83301 124.5 -20.5s74.5 -32.834 106.5 -57.501c12 -10 19 -22.667 21 -38s-1.66699 -29.333 -11 -42c-10 -12.667 -23 -20 -39 -22s-29.667 1.66699 -41 11c-44.667 36.667 -98.334 55 -161.001 55c-34.667 0 -67.5 -6.5 -98.5 -19.5
s-58.167 -30.5 -81.5 -52.5c-22.667 -23.333 -40.5 -49.666 -53.5 -78.999s-19.5 -61 -19.5 -95s6.5 -66 19.5 -96s30.833 -56 53.5 -78c23.333 -22 50.5 -39.5 81.5 -52.5s63.833 -19.5 98.5 -19.5c61.333 0 115 18.333 161 55c11.333 8.66699 25 12 41 10s29 -9 39 -21
c9.33301 -12.667 13 -26.834 11 -42.501s-9 -28.167 -21 -37.5c-32 -24.667 -67.5 -43.834 -106.5 -57.501s-80.5 -20.5 -124.5 -20.5z" />
    <glyph glyph-name="D" unicode="D" horiz-adv-x="719" 
d="M215 589v-478.001h62c32.667 0 63.5 6.33301 92.5 19s54.333 29.834 76 51.501s38.667 47 51 76s18.5 60.167 18.5 93.5c0 32.667 -6.16699 63.5 -18.5 92.5s-29.333 54.167 -51 75.5s-47 38.333 -76 51s-59.833 19 -92.5 19h-62zM159 -0.000976562
c-15.333 0 -28.333 5.33496 -39 16.002s-16 23.667 -16 39v590c0 15.333 5.33301 28.333 16 39s23.667 16 39 16h118c48 0 93.333 -9.16699 136 -27.5s79.667 -43.333 111 -75s56.166 -68.667 74.499 -111s27.5 -87.5 27.5 -135.5
c0 -48.667 -9.16699 -94.334 -27.5 -137.001s-43.166 -79.834 -74.499 -111.501s-68.333 -56.667 -111 -75s-88 -27.5 -136 -27.5h-118z" />
    <glyph glyph-name="E" unicode="E" horiz-adv-x="593" 
d="M159 0c-15.333 0 -28.333 5.33301 -39 16s-16 23.667 -16 39v590c0 15.333 5.33301 28.333 16 39s23.667 16 39 16h1h2h324c14.667 0 27.5 -5.33301 38.5 -16s16.5 -23.667 16.5 -39s-5.5 -28.5 -16.5 -39.5s-23.833 -16.5 -38.5 -16.5h-271v-183h233
c15.333 0 28.333 -5.5 39 -16.5s16 -23.833 16 -38.5c0 -15.333 -5.33301 -28.5 -16 -39.5s-23.667 -16.5 -39 -16.5h-233v-184h271c14.667 0 27.5 -5.5 38.5 -16.5s16.5 -24.167 16.5 -39.5s-5.5 -28.333 -16.5 -39s-23.833 -16 -38.5 -16h-324h-2v1z" />
    <glyph glyph-name="F" unicode="F" horiz-adv-x="605" 
d="M159 0c-15.333 0 -28.333 5.33301 -39 16s-16 23.667 -16 39v590c0 15.333 5.33301 28.333 16 39s23.667 16 39 16h1h2h324c14.667 0 27.5 -5.33301 38.5 -16s16.5 -23.667 16.5 -39s-5.5 -28.5 -16.5 -39.5s-23.833 -16.5 -38.5 -16.5h-271v-183h233
c15.333 0 28.333 -5.5 39 -16.5s16 -23.833 16 -38.5c0 -15.333 -5.33301 -28.5 -16 -39.5s-23.667 -16.5 -39 -16.5h-233v-240c0 -15.333 -5.5 -28.333 -16.5 -39s-24.167 -16 -39.5 -16z" />
    <glyph glyph-name="G" unicode="G" horiz-adv-x="814" 
d="M442 0c-50.667 0 -98.335 9.33008 -143.002 27.9971s-83.834 44.167 -117.501 76.5s-60.167 70.333 -79.5 114s-29 90.5 -29 140.5s9.66699 97 29 141s45.833 82.333 79.5 115s72.834 58.334 117.501 77.001s92.334 28 143.001 28c42.667 0 83.5 -6.83301 122.5 -20.5
s74.167 -32.834 105.5 -57.501c13.333 -9.33301 20.833 -22 22.5 -38s-2.16602 -30.333 -11.499 -43c-9.33301 -12 -22 -19 -38 -21s-30.333 2 -43 12c-21.333 16.667 -45.5 29.834 -72.5 39.501s-55.5 14.5 -85.5 14.5c-36 0 -69.333 -6.33301 -100 -19
s-57.334 -30.667 -80.001 -54c-23.333 -22.667 -41.666 -48.834 -54.999 -78.501s-20 -61.5 -20 -95.5c0 -33.333 6.66699 -64.666 20 -93.999s31.666 -55.333 54.999 -78c22.667 -23.333 49.334 -41.333 80.001 -54s64 -19 100 -19c25.333 0 49.5 3.5 72.5 10.5
s44.5 16.167 64.5 27.5v137h-143c-15.333 0 -28.666 5.66699 -39.999 17s-17 24.666 -17 39.999c0 16 5.66699 29.333 17 40s24.666 16 39.999 16h197h1h1c16 0 29.667 -5.33301 41 -16s17 -24 17 -40v-221c0 -3.33301 -0.333008 -6.16602 -1 -8.49902
s-1.33398 -5.16602 -2.00098 -8.49902c-0.666992 -1.33301 -1 -2.16602 -1 -2.49902s-0.333008 -1.16602 -1 -2.49902v-1c-3.33301 -9.33301 -9.66602 -17.333 -18.999 -24c-32 -24.667 -67.167 -43.834 -105.5 -57.501s-78.833 -20.5 -121.5 -20.5z" />
    <glyph glyph-name="H" unicode="H" horiz-adv-x="709" 
d="M159 0c-15.333 0 -28.333 5.33301 -39 16s-16 23.667 -16 39v590c0 15.333 5.33301 28.333 16 39s23.667 16 39 16s28.5 -5.33301 39.5 -16s16.5 -23.667 16.5 -39v-240h259v240c0 15.333 5.33301 28.333 16 39s23.667 16 39 16s28.5 -5.33301 39.5 -16
s16.5 -23.667 16.5 -39v-590c0 -15.333 -5.5 -28.333 -16.5 -39s-24.167 -16 -39.5 -16s-28.333 5.33301 -39 16s-16 23.667 -16 39v240h-259v-240c0 -15.333 -5.5 -28.333 -16.5 -39s-24.167 -16 -39.5 -16z" />
    <glyph glyph-name="I" unicode="I" horiz-adv-x="305" 
d="M111 55v590c0 15.333 5.33301 28.333 16 39s23.667 16 39 16s28.5 -5.33301 39.5 -16s16.5 -23.667 16.5 -39v-590c0 -15.333 -5.5 -28.333 -16.5 -39s-24.167 -16 -39.5 -16s-28.333 5.33301 -39 16s-16 23.667 -16 39z" />
    <glyph glyph-name="J" unicode="J" horiz-adv-x="594" 
d="M87 241c15.333 5.33301 29.667 4.5 43 -2.5s22.333 -17.833 27 -32.5c9.33301 -28 25.833 -50.833 49.5 -68.5s50.834 -26.5 81.501 -26.5c18.667 0 36.5 3.66699 53.5 11s31.667 17.166 44 29.499s22.166 26.833 29.499 43.5s11 34.334 11 53.001v397
c0 15.333 5.5 28.333 16.5 39s24.167 16 39.5 16s28.333 -5.33301 39 -16s16 -23.667 16 -39v-397c0 -34 -6.5 -66.167 -19.5 -96.5s-30.833 -56.666 -53.5 -78.999s-49.167 -40 -79.5 -53s-62.5 -19.5 -96.5 -19.5c-27.333 0 -53.5 4.33301 -78.5 13
s-47.833 20.5 -68.5 35.5s-38.667 33 -54 54s-27 44.167 -35 69.5c-5.33301 15.333 -4.33301 29.666 3 42.999s18 22 32 26z" />
    <glyph glyph-name="K" unicode="K" horiz-adv-x="715" 
d="M159 0c-15.333 0 -28.333 5.33105 -39 15.998s-16 23.667 -16 39v585c0 14.667 5.33301 27.5 16 38.5s23.667 16.5 39 16.5s28.333 -5.5 39 -16.5s16 -23.833 16 -38.5v-287l324 325c11.333 11.333 24.333 17 39 17s27.667 -5.66699 39 -17
c10.667 -10.667 16 -23.5 16 -38.5s-5.33301 -28.167 -16 -39.5l-220 -219l222 -291c10 -11.333 14.167 -24.666 12.5 -39.999s-8.5 -27.666 -20.5 -36.999c-9.33301 -8.66699 -21 -13 -35 -13c-16 0 -29.667 6.66699 -41 20l-216 283l-104 -106v-142
c0 -15.333 -5.33301 -28.333 -16 -39s-23.667 -16 -39 -16z" />
    <glyph glyph-name="L" unicode="L" horiz-adv-x="563" 
d="M159 0c-15.333 0 -28.333 5.33301 -39 16s-16 23.667 -16 39v590c0 15.333 5.33301 28.333 16 39s23.667 16 39 16s28.5 -5.33301 39.5 -16s16.5 -23.667 16.5 -39v-534h271c14.667 0 27.5 -5.5 38.5 -16.5s16.5 -24.167 16.5 -39.5s-5.5 -28.333 -16.5 -39
s-23.833 -16 -38.5 -16h-324h-2h-1z" />
    <glyph glyph-name="M" unicode="M" horiz-adv-x="844" 
d="M650 700c15.333 -0.666992 28.499 -6.16797 39.499 -16.501s16.5 -23.166 16.5 -38.499v-590c0 -15.333 -5.5 -28.333 -16.5 -39s-24.167 -16 -39.5 -16s-28.333 5.33301 -39 16s-16 23.667 -16 39v421l-144 -200c-11.333 -15.333 -26.333 -23 -45 -23h-1h-1
c-19.333 0 -34.666 7.66699 -45.999 23l-143 200v-421c0 -15.333 -5.5 -28.333 -16.5 -39s-24.167 -16 -39.5 -16s-28.333 5.33301 -39 16s-16 23.667 -16 39v590c0 15.333 5.33301 28.333 16 39s23.667 16 39 16h3c8 0 16 -2 24 -6s14.667 -9.66699 20 -17l199 -276
l199 276c11.333 15.333 26.333 23 45 23h1z" />
    <glyph glyph-name="N" unicode="N" horiz-adv-x="771" 
d="M214 470l0.000976562 -415c0 -15.333 -5.33301 -28.333 -16 -39s-23.334 -16 -38.001 -16c-15.333 -0 -28.333 5.33301 -39 16s-16 23.667 -16 39v581v1c-0.666992 8.66699 1 17.167 5 25.5s9.66699 15.166 17 20.499c12.667 8.66699 26.334 11.834 41.001 9.50098
s26.334 -9.5 35.001 -21.5l323 -447v412c0 14.667 5.16699 27.334 15.5 38.001s23.166 16 38.499 16s28.333 -5.33301 39 -16s16 -23.334 16 -38.001v-581c0 -15.333 -5.33301 -28.333 -16 -39s-23.667 -16 -39 -16c-16 0 -29.667 6.66699 -41 20
c-2.66699 2.66699 -4.33398 4.66699 -5.00098 6z" />
    <glyph glyph-name="O" unicode="O" horiz-adv-x="850" 
d="M575 186c20.667 21.333 37.167 47.166 49.5 77.499s18.5 62.5 18.5 96.5s-6.16699 66.167 -18.5 96.5s-28.833 56.5 -49.5 78.5c-21.333 22.667 -45.5 40.167 -72.5 52.5s-55.5 18.5 -85.5 18.5c-32 0 -61.667 -6.16699 -89 -18.5s-51.666 -29.833 -72.999 -52.5
c-21.333 -22 -38 -48.167 -50 -78.5s-18 -62.5 -18 -96.5s6 -66.167 18 -96.5s28.667 -56.166 50 -77.499c21.333 -22.667 45.666 -40.334 72.999 -53.001s57 -19 89 -19c30 0 58.5 6.33301 85.5 19s51.167 30.334 72.5 53.001zM417 720c46 0 89.833 -9.5 131.5 -28.5
s77.5 -45.167 107.5 -78.5c31.333 -33.333 56 -71.333 74 -114s27 -89 27 -139s-9 -96.5 -27 -139.5s-42.667 -80.833 -74 -113.5c-30 -32.667 -65.833 -58.667 -107.5 -78s-85.5 -29 -131.5 -29c-48 0 -93.167 9.66699 -135.5 29s-78.833 45.333 -109.5 78
c-31.333 32.667 -55.666 70.5 -72.999 113.5s-26 89.5 -26 139.5s8.66699 96.333 26 139s41.666 80.667 72.999 114c30.667 33.333 67.167 59.5 109.5 78.5s87.5 28.5 135.5 28.5z" />
    <glyph glyph-name="P" unicode="P" horiz-adv-x="583" 
d="M215 589l0.00195312 -205.998h123c14.667 0 28.167 2.66699 40.5 8s23.166 12.666 32.499 21.999s16.833 20.166 22.5 32.499s8.5 25.5 8.5 39.5c-0.666992 29.333 -10.834 54 -30.501 74s-44.167 30 -73.5 30h-123zM553.002 485.002
c0 -29.333 -5.66699 -56.835 -17 -82.502s-26.666 -48.167 -45.999 -67.5s-42 -34.666 -68 -45.999s-54 -17 -84 -17h-123v-217c0 -15.333 -5.5 -28.333 -16.5 -39s-24.167 -16 -39.5 -16s-28.333 5.33301 -39 16s-16 23.667 -16 39v590c0 15.333 5.33301 28.333 16 39
s23.667 16 39 16h1h178c30 0 58 -5.66699 84 -17s48.667 -26.666 68 -45.999s34.666 -42 45.999 -68s17 -54 17 -84z" />
    <glyph glyph-name="Q" unicode="Q" horiz-adv-x="844" 
d="M184 341c0 -36 6.16699 -69.167 18.5 -99.5s29.166 -57.166 50.499 -80.499c20.667 -22.667 44.834 -40.334 72.501 -53.001s57.834 -19 90.501 -19c32 0 62 6.33301 90 19s53 30.334 75 53.001c21.333 23.333 38.166 50.166 50.499 80.499s18.5 63.5 18.5 99.5
s-6.16699 69.167 -18.5 99.5s-29.166 56.5 -50.499 78.5c-22 23.333 -47 41.333 -75 54s-58 19 -90 19c-32.667 0 -62.834 -6.33301 -90.501 -19s-51.834 -30.667 -72.501 -54c-21.333 -22 -38.166 -48.167 -50.499 -78.5s-18.5 -63.5 -18.5 -99.5zM821 -16
c10 -12.667 13.998 -26.8301 11.998 -42.4971s-9.66699 -29.167 -23 -40.5c-55.333 -42 -110.333 -63 -165 -63h-3c-35.333 0 -67.833 6 -97.5 18s-58.167 26 -85.5 42c-10 5.33301 -20.167 9.16602 -30.5 11.499s-20.5 3.5 -30.5 3.5c-8 0 -16.167 -0.666992 -24.5 -2
s-15.666 -3 -21.999 -5s-11.833 -4 -16.5 -6s-7.33398 -3.33301 -8.00098 -4c-10 -5.33301 -20.333 -7.66602 -31 -6.99902s-19.667 4 -27 10l-6 2c-0.666992 0.666992 -1.33398 1 -2.00098 1l-8 10c-2.66699 3.33301 -4.66699 7.66602 -6 12.999
c-7.33301 15.333 -8.16602 30.166 -2.49902 44.499s15.5 25.166 29.5 32.499l3 2c-40.667 19.333 -77.667 44.666 -111 75.999c-30.667 34 -55 73.333 -73 118s-27 92.334 -27 143.001c0 50 9 97 27 141s42.333 83 73 117c32 34.667 69.333 61.834 112 81.501
s88.667 29.5 138 29.5s95.333 -9.83301 138 -29.5s79.334 -46.834 110.001 -81.501c32 -34 57 -73 75 -117s27 -91 27 -141c0 -50.667 -9 -98.334 -27 -143.001s-43 -84 -75 -118c-31.333 -32.667 -68.333 -59 -111 -79l-23 -9c21.333 -11.333 41.333 -20.166 60 -26.499
s36 -9.5 52 -9.5c14.667 0 29.5 2.5 44.5 7.5s32.833 15.167 53.5 30.5c12.667 10 26.834 14 42.501 12s28.5 -9.33301 38.5 -22z" />
    <glyph glyph-name="R" unicode="R" horiz-adv-x="625" 
d="M324 383c14 0 27.333 2.66895 40 8.00195s23.667 12.666 33 21.999s16.666 20.166 21.999 32.499s8 25.5 8 39.5c0 14.667 -2.66699 28.334 -8 41.001s-12.666 23.667 -21.999 33s-20.333 16.666 -33 21.999s-26 8 -40 8h-123v-206h123zM532 117.002
c17.333 -5.33301 28.998 -16.6699 34.998 -34.0029c5.33301 -14.667 4.5 -28.667 -2.5 -42s-17.833 -22.666 -32.5 -27.999c-2 -0.666992 -4.83301 -1.33398 -8.5 -2.00098s-8.16699 -1 -13.5 -1h-1c-5.33301 0 -11.333 0.666992 -18 2s-13.667 4.33301 -21 9
c-6.66699 4 -12.667 9 -18 15s-10 12.667 -14 20c-7.33301 14.667 -12.666 31.334 -15.999 50.001s-5 42 -5 70c-0.666992 17.333 -4.66699 31.666 -12 42.999c-3.33301 5.33301 -7.66602 10.5 -12.999 15.5s-11 9.5 -17 13.5c-10.667 7.33301 -21.5 12.833 -32.5 16.5
s-18.833 6.16699 -23.5 7.5h-118v-217c0 -15.333 -5.5 -28.333 -16.5 -39s-24.167 -16 -39.5 -16s-28.333 5.33301 -39 16s-16 23.667 -16 39v590c0 15.333 5.33301 28.333 16 39s23.667 16 39 16h1h178c30 0 58 -5.66699 84 -17s48.667 -26.666 68 -45.999
s34.5 -42 45.5 -68s16.5 -54 16.5 -84c0 -33.333 -7 -64 -21 -92s-33 -52 -57 -72c14 -10.667 25.667 -23 35 -37c10 -14.667 18 -31 24 -49s9 -37.667 9 -59c-0.666992 -15.333 -0.5 -27.666 0.5 -36.999s2.16699 -16.666 3.5 -21.999z" />
    <glyph glyph-name="S" unicode="S" horiz-adv-x="667" 
d="M90 101c-11.333 9.33301 -17.6641 21 -18.9971 35s2.33398 26.667 11.001 38c9.33301 11.333 21 17.666 35 18.999s26.667 -2.66699 38 -12c10.667 -9.33301 23.334 -18.5 38.001 -27.5s30.334 -17.333 47.001 -25s34 -13.667 52 -18s36 -6.5 54 -6.5
c25.333 0 48.666 3.33301 69.999 10s39.666 15.667 54.999 27c28.667 21.333 43 45.333 43 72c0 11.333 -3 22 -9 32c-3.33301 5.33301 -7.33301 10.333 -12 15s-10.667 9.66699 -18 15c-14.667 9.33301 -33.667 18.166 -57 26.499s-50 15.166 -80 20.499h-2
c-23.333 4.66699 -45.833 10 -67.5 16s-42.167 13.667 -61.5 23s-36.833 20.333 -52.5 33s-29.167 27.667 -40.5 45c-15.333 24.667 -23 52 -23 82s7.5 57.5 22.5 82.5s34.167 46.167 57.5 63.5s49.833 30.5 79.5 39.5s60.834 13.5 93.501 13.5c24 0 46.5 -2.66699 67.5 -8
s40.5 -12 58.5 -20s34.667 -16.667 50 -26l42 -26c11.333 -8 18.5 -19 21.5 -33s0.5 -26.667 -7.5 -38c-7.33301 -12 -18 -19.5 -32 -22.5s-27 -0.5 -39 7.5c-25.333 17.333 -50.833 32.333 -76.5 45s-53.834 19 -84.501 19c-22.667 0 -43.667 -3.16699 -63 -9.5
s-35.666 -14.5 -48.999 -24.5s-23 -20.333 -29 -31s-9 -21.334 -9 -32.001c0 -11.333 2.33301 -20.666 7 -27.999c5.33301 -8.66699 14.333 -17.334 27 -26.001c13.333 -9.33301 30.666 -17.666 51.999 -24.999s45.666 -13.666 72.999 -18.999h2
c25.333 -5.33301 49.666 -11.333 72.999 -18s45 -14.667 65 -24c20.667 -10 39.667 -21.667 57 -35s31.666 -29.333 42.999 -48c16 -25.333 24 -53.666 24 -84.999c0 -32 -8 -61.333 -24 -88s-36.667 -49 -62 -67c-24.667 -18 -52.667 -32 -84 -42s-65 -15 -101 -15
c-27.333 0 -53.333 3.16699 -78 9.5s-47.834 14.333 -69.501 24s-41.667 20.334 -60 32.001s-34.5 23.167 -48.5 34.5z" />
    <glyph glyph-name="T" unicode="T" horiz-adv-x="648" 
d="M587 645c0 -15.333 -5.33301 -28.5 -16 -39.5s-23.667 -16.5 -39 -16.5h-159v-534c0 -15.333 -5.33301 -28.333 -16 -39s-23.667 -16 -39 -16s-28.333 5.33301 -39 16s-16 23.667 -16 39v534h-158c-15.333 0 -28.333 5.5 -39 16.5s-16 24.167 -16 39.5
s5.33301 28.333 16 39s23.667 16 39 16h427c15.333 0 28.333 -5.33301 39 -16s16 -23.667 16 -39z" />
    <glyph glyph-name="U" unicode="U" horiz-adv-x="814" 
d="M683 289c0 -40 -7.50195 -77.5 -22.502 -112.5s-35.667 -65.5 -62 -91.5s-57 -46.667 -92 -62s-72.5 -23 -112.5 -23s-77.667 7.66699 -113 23s-66 36 -92 62s-46.5 56.5 -61.5 91.5s-22.5 72.5 -22.5 112.5v356c0 15.333 5.33301 28.333 16 39s23.667 16 39 16
s28.5 -5.33301 39.5 -16s16.5 -23.667 16.5 -39v-356c0 -24.667 4.66699 -47.834 14 -69.501s22 -40.5 38 -56.5s34.833 -28.667 56.5 -38s44.834 -14 69.501 -14s47.834 4.66699 69.501 14s40.5 22 56.5 38s28.667 34.833 38 56.5s14 44.834 14 69.501v356
c0 15.333 5.5 28.333 16.5 39s24.167 16 39.5 16s28.333 -5.33301 39 -16s16 -23.667 16 -39v-356z" />
    <glyph glyph-name="V" unicode="V" horiz-adv-x="750" 
d="M333 10l-1 -0.00390625c-0.666992 0.666992 -3 2.33398 -7 5.00098c0 0.666992 -0.166992 1 -0.5 1s-0.5 0.666992 -0.5 2c-2.66699 2.66699 -4.33398 4.66699 -5.00098 6c-0.666992 0 -1 0.333008 -1 1l-2 4c-0.666992 1.33301 -1.66699 2.66602 -3 3.99902l-245 584
c-6 13.333 -6.16699 27.166 -0.5 41.499s15.834 24.166 30.501 29.499c13.333 6 27 6.16699 41 0.5s24 -15.5 30 -29.5l195 -463l195 463c6 14 16.167 23.833 30.5 29.5s28.166 5.5 41.499 -0.5c14 -5.33301 23.833 -15.166 29.5 -29.499s5.83398 -28.166 0.500977 -41.499
l-247 -584c-0.666992 -1.33301 -1.16699 -2.66602 -1.5 -3.99902s-1.16602 -2.66602 -2.49902 -3.99902c0 -0.666992 -0.333008 -1 -1 -1c-0.666992 -1.33301 -1.5 -2.33301 -2.5 -3s-1.83301 -1.66699 -2.5 -3s-1.33398 -2.33301 -2.00098 -3
c-1.33301 -1.33301 -2.33301 -2.16602 -3 -2.49902s-1.66699 -1.16602 -3 -2.49902l-2 -1c-1.33301 -0.666992 -2.66602 -1.5 -3.99902 -2.5s-2.66602 -1.83301 -3.99902 -2.5c-0.666992 0 -1.33398 -0.333008 -2.00098 -1c-1.33301 0 -4 -0.666992 -8 -2h-2
c-2.66699 -0.666992 -6 -1 -10 -1c-4.66699 -0 -8 0.333008 -10 1h-2c-2.66699 1.33301 -5.33398 2 -8.00098 2l-1 1h-1c-1.33301 0.666992 -2.83301 1.5 -4.5 2.5s-3.16699 2.16699 -4.5 3.5z" />
    <glyph glyph-name="W" unicode="W" horiz-adv-x="1102" 
d="M998 688c13.333 -5.33301 22.8389 -15.167 28.5059 -29.5s5.5 -28.166 -0.5 -41.499l-245 -583c-1.33301 -4 -3 -7 -5 -9l-1 -1c-0.666992 -1.33301 -2.33398 -3.33301 -5.00098 -6c0 -1.33301 -0.166992 -2 -0.5 -2s-0.5 -0.333008 -0.5 -1
c-2.66699 -1.33301 -5 -3 -7 -5h-1c-1.33301 -1.33301 -2.66602 -2.5 -3.99902 -3.5s-3 -1.83301 -5 -2.5h-1c-0.666992 0 -1 -0.333008 -1 -1c-1.33301 0 -4 -0.666992 -8 -2h-2c-2 -0.666992 -5.33301 -1 -10 -1c-4 0 -7 0.333008 -9 1h-3c-4 1.33301 -6.33301 2 -7 2
c-0.666992 0.666992 -1.33398 1 -2.00098 1c-2.66699 0.666992 -5.66699 2.66699 -9 6h-1c-1.33301 1.33301 -2.5 2.33301 -3.5 3s-2.16699 1.33398 -3.5 2.00098c-0.666992 0.666992 -1.33398 1.66699 -2.00098 3s-1.33398 2.33301 -2.00098 3s-1.33398 1.66699 -2.00098 3
h-2v1c-1.33301 1.33301 -2.16602 2.83301 -2.49902 4.5s-0.833008 3.16699 -1.5 4.5l-131 310l-131 -310c-0.666992 -1.33301 -1.33398 -2.83301 -2.00098 -4.5s-1.33398 -3.16699 -2.00098 -4.5l-1 -1l-6 -6c0 -1.33301 -0.166992 -2 -0.5 -2s-0.5 -0.333008 -0.5 -1
c-1.33301 -0.666992 -3.33301 -2.33398 -6 -5.00098h-2c-1.33301 -1.33301 -2.66602 -2.5 -3.99902 -3.5s-2.66602 -1.83301 -3.99902 -2.5h-1c-0.666992 0 -1 -0.333008 -1 -1c-2.66699 0 -5.33398 -0.666992 -8.00098 -2h-3c-2 -0.666992 -5 -1 -9 -1
c-4.66699 0 -8 0.333008 -10 1h-3c-4 1.33301 -6.33301 2 -7 2c-0.666992 0.666992 -1.33398 1 -2.00098 1c-3.33301 0.666992 -6.33301 2.66699 -9 6h-1c-1.33301 1.33301 -2.5 2.33301 -3.5 3s-2.16699 1.33398 -3.5 2.00098
c-0.666992 0.666992 -1.33398 1.66699 -2.00098 3c-1.33301 1.33301 -2.16602 2.33301 -2.49902 3s-1.16602 1.66699 -2.49902 3v1c-1.33301 1.33301 -2.16602 2.83301 -2.49902 4.5s-1.16602 3.16699 -2.49902 4.5l-246 583c-5.33301 13.333 -5.33301 27.166 0 41.499
s15.333 24.166 30 29.499c13.333 6 27.166 6.16699 41.499 0.5s24.166 -15.5 29.499 -29.5l196 -463l129 307c4.66699 11.333 11.667 19.833 21 25.5s19.666 8.5 30.999 8.5c10.667 0 20.667 -2.83301 30 -8.5s16.666 -14.167 21.999 -25.5l129 -307l195 463
c6 14 16 23.833 30 29.5s28.333 5.5 43 -0.5z" />
    <glyph glyph-name="X" unicode="X" horiz-adv-x="722" 
d="M593 681c12.667 -8.66699 20 -20.334 22 -35.001s-1.33301 -28.334 -10 -41.001l-190 -258l190 -260c8.66699 -12 12 -25.5 10 -40.5s-9.33301 -26.833 -22 -35.5c-10.667 -7.33301 -21.334 -11 -32.001 -11c-18 0 -33 7.66699 -45 23l-168 231l-169 -231
c-12 -15.333 -26.667 -23 -44 -23c-12 0 -22.667 3.66699 -32 11c-12.667 8.66699 -20.167 20.5 -22.5 35.5s0.833984 28.5 9.50098 40.5l190 260l-190 258c-8.66699 12.667 -11.834 26.334 -9.50098 41.001s9.83301 26.334 22.5 35.001c12 9.33301 25.5 13 40.5 11
s26.833 -9.66699 35.5 -23l169 -230l168 230c9.33301 13.333 21.333 21 36 23s28.334 -1.66699 41.001 -11z" />
    <glyph glyph-name="Y" unicode="Y" horiz-adv-x="604" 
d="M579 682c12 -9.33301 19.166 -21.333 21.499 -36s-0.833984 -28 -9.50098 -40l-205 -281v-270c0 -15.333 -5.33301 -28.333 -16 -39s-23.667 -16 -39 -16c-14.667 -0 -27.5 5.33301 -38.5 16s-16.5 23.667 -16.5 39v270l-203 281c-9.33301 12 -13 25.333 -11 40
s9.33301 26.667 22 36s26.334 12.833 41.001 10.5s26.334 -9.83301 35.001 -22.5l171 -234l171 234c9.33301 12.667 21.5 20.167 36.5 22.5s28.5 -1.16699 40.5 -10.5z" />
    <glyph glyph-name="Z" unicode="Z" horiz-adv-x="667" 
d="M603 614v-1.99707l-368 -501h322c15.333 0 28.5 -5.5 39.5 -16.5s16.5 -24.167 16.5 -39.5s-5.5 -28.333 -16.5 -39s-24.167 -16 -39.5 -16h-431c-4 0 -7.33301 0.333008 -10 1c-1.33301 0 -2.33301 0.333008 -3 1c-1.33301 0 -2.5 0.166992 -3.5 0.5
s-2.16699 0.5 -3.5 0.5c-0.666992 0.666992 -1.16699 1 -1.5 1s-0.833008 0.666992 -1.5 2c-0.666992 0 -2.33398 0.666992 -5.00098 2l-4 2v1c-0.666992 0 -1.66699 0.666992 -3 2c-2 2 -3.33301 3.66699 -4 5c-1.33301 0.666992 -2.66602 1.66699 -3.99902 3
c-0.666992 0.666992 -1.16699 1.33398 -1.5 2.00098s-0.833008 1.33398 -1.5 2.00098c-1.33301 4 -2 5.66699 -2 5c-0.666992 1.33301 -1.33398 2.16602 -2.00098 2.49902s-1 1.16602 -1 2.49902c-0.666992 1.33301 -1 2.33301 -1 3s-0.333008 1.66699 -1 3
c0 0.666992 -0.166992 1.16699 -0.5 1.5s-0.5 1.16602 -0.5 2.49902s-0.166992 2.5 -0.5 3.5s-0.5 2.16699 -0.5 3.5v3v1c0 3.33301 0.333008 5.66602 1 6.99902v5c0.666992 0.666992 1 1.33398 1 2.00098s0.333008 1.66699 1 3c0 0.666992 0.166992 1.33398 0.5 2.00098
s0.5 1.66699 0.5 3c2 0.666992 3 2 3 4c0.666992 0.666992 1.66699 2.33398 3 5.00098h1l367 502h-323c-15.333 0 -28.333 5.5 -39 16.5s-16 24.167 -16 39.5s5.33301 28.333 16 39s23.667 16 39 16h431h1h7c0.666992 0 1.33398 -0.166992 2.00098 -0.5
s1.33398 -0.5 2.00098 -0.5c1.33301 0 2.33301 -0.166992 3 -0.5s1.66699 -0.5 3 -0.5c0.666992 -0.666992 1.33398 -1 2.00098 -1s1.33398 -0.333008 2.00098 -1c1.33301 0 3 -1 5 -3c1.33301 -0.666992 2.16602 -1.16699 2.49902 -1.5s1.16602 -0.833008 2.49902 -1.5h1
c1.33301 -0.666992 2 -1.16699 2 -1.5s0.333008 -0.833008 1 -1.5c1.33301 -0.666992 2.16602 -1.33398 2.49902 -2.00098s0.833008 -1.33398 1.5 -2.00098s1.16699 -1.33398 1.5 -2.00098s0.833008 -1.33398 1.5 -2.00098c2 -0.666992 3.33301 -2 4 -4
c1.33301 -2.66699 2.33301 -4.33398 3 -5.00098c0 -1.33301 0.666992 -2.66602 2 -3.99902c0 -1.33301 0.166992 -2.5 0.5 -3.5s0.5 -1.83301 0.5 -2.5c1.33301 -1.33301 2 -3 2 -5c0.666992 -2 1 -4 1 -6v-4v-7c-0.666992 -1.33301 -1 -2.66602 -1 -3.99902
s-0.333008 -2.33301 -1 -3s-1 -1.66699 -1 -3c-0.666992 -1.33301 -1 -2.33301 -1 -3s-0.333008 -1.66699 -1 -3c-0.666992 -0.666992 -1 -1.16699 -1 -1.5s-0.333008 -0.833008 -1 -1.5c-1.33301 -2.66699 -2.33301 -4.33398 -3 -5.00098z" />
    <glyph glyph-name="bracketleft" unicode="[" horiz-adv-x="430" 
d="M98 640c0 16.667 5.66699 30.8301 17 42.4971s25.333 17.5 42 17.5h206c13.333 0 24.666 -4.66699 33.999 -14s14 -20.666 14 -33.999s-4.66699 -24.5 -14 -33.5s-20.666 -13.5 -33.999 -13.5h-149v-640h149c13.333 0 24.666 -4.5 33.999 -13.5s14 -20.167 14 -33.5
s-4.66699 -24.666 -14 -33.999s-20.666 -14 -33.999 -14h-206c-16.667 0 -30.667 5.83301 -42 17.5s-17 25.834 -17 42.501v710z" />
    <glyph glyph-name="backslash" unicode="\" horiz-adv-x="448" 
d="M389 4c-3.33301 -1.33301 -6.66699 -2.33301 -10 -3s-6.66602 -1 -9.99902 -1c-10.667 -0 -20.667 2.83301 -30 8.5s-16.333 13.834 -21 24.501l-245 584c-6 13.333 -6.16699 27.166 -0.5 41.499s15.167 24.166 28.5 29.499c14.667 6 29 6.16699 43 0.5
s24 -15.5 30 -29.5l245 -583c6 -14 6.16699 -28.167 0.5 -42.5s-15.834 -24.166 -30.501 -29.499z" />
    <glyph glyph-name="bracketright" unicode="]" horiz-adv-x="430" 
d="M368 -70c0 -16.667 -5.83301 -30.8301 -17.5 -42.4971s-25.834 -17.5 -42.501 -17.5h-206c-13.333 0 -24.5 4.66699 -33.5 14s-13.5 20.666 -13.5 33.999s4.5 24.5 13.5 33.5s20.167 13.5 33.5 13.5h150v640h-150c-13.333 0 -24.5 4.5 -33.5 13.5
s-13.5 20.167 -13.5 33.5s4.5 24.666 13.5 33.999s20.167 14 33.5 14h206c16.667 0 30.834 -5.83301 42.501 -17.5s17.5 -25.834 17.5 -42.501v-710z" />
    <glyph glyph-name="asciicircum" unicode="^" horiz-adv-x="500" 
d="M180 532c-13.333 -17.333 -25 -29 -35 -35s-22.333 -9 -37 -9c-8 0 -14.667 1.83301 -20 5.5s-8 8.5 -8 14.5c0 8.66699 4 18.667 12 30l95 130c8 11.333 16.667 20.166 26 26.499s21 9.5 35 9.5h9c14 0 25.667 -3.16699 35 -9.5s18.333 -15.166 27 -26.499l95 -130
c7.33301 -11.333 11 -21.333 11 -30c0 -6 -2.66699 -10.833 -8 -14.5s-12 -5.5 -20 -5.5c-15.333 0 -28 3 -38 9s-21.667 17.667 -35 35l-72 93z" />
    <glyph glyph-name="underscore" unicode="_" horiz-adv-x="600" 
d="M23 -160c-13.333 0 -24.5 4.5 -33.5 13.5s-13.5 20.167 -13.5 33.5s4.5 24.5 13.5 33.5s20.167 13.5 33.5 13.5h604c13.333 0 24.5 -4.5 33.5 -13.5s13.5 -20.167 13.5 -33.5s-4.5 -24.5 -13.5 -33.5s-20.167 -13.5 -33.5 -13.5h-604z" />
    <glyph glyph-name="grave" unicode="`" horiz-adv-x="500" 
d="M318 590c-14 0 -26.333 1.66699 -37 5s-21.667 10.666 -33 21.999l-68 64c-11.333 10 -17 20 -17 30c0 4.66699 2.16699 9.33398 6.5 14.001s10 8.83398 17 12.501s14.833 6.66699 23.5 9s17 3.5 25 3.5c20 0 36 -9.66699 48 -29l57 -88c2 -3.33301 4 -7 6 -11
s3 -7.66699 3 -11c0 -6.66699 -2.83301 -11.834 -8.5 -15.501s-13.167 -5.5 -22.5 -5.5z" />
    <glyph glyph-name="a" unicode="a" horiz-adv-x="619" 
d="M371 146c12 13.333 21.5 28.666 28.5 45.999s10.5 36.333 10.5 57c0 21.333 -3.5 40.666 -10.5 57.999s-16.5 32.333 -28.5 45c-12 13.333 -26.167 23.5 -42.5 30.5s-33.166 10.5 -50.499 10.5c-18 0 -35.167 -3.5 -51.5 -10.5s-30.166 -17.167 -41.499 -30.5
c-12 -12.667 -21.333 -27.667 -28 -45s-10 -36.666 -10 -57.999c0 -41.333 12.667 -75.666 38 -102.999c11.333 -12.667 25.166 -22.334 41.499 -29.001s33.5 -10 51.5 -10c17.333 0 34.166 3.33301 50.499 10s30.5 16.334 42.5 29.001zM516 446v-197v-196
c0 -14.667 -5.16699 -27.167 -15.5 -37.5s-22.833 -15.5 -37.5 -15.5c-13.333 0 -24.5 4.16699 -33.5 12.5s-15.167 18.5 -18.5 30.5c-19.333 -13.333 -40 -23.833 -62 -31.5s-45.667 -11.5 -71 -11.5c-34 0 -65.5 6.5 -94.5 19.5s-54.167 30.833 -75.5 53.5
c-21.333 23.333 -38 50 -50 80s-18 62 -18 96c0 34.667 6 67 18 97s28.667 56.333 50 79c21.333 23.333 46.5 41.666 75.5 54.999s60.5 20 94.5 20c25.333 0 49 -4 71 -12s42.667 -18.667 62 -32c3.33301 12.667 9.5 23.167 18.5 31.5s20.167 12.5 33.5 12.5
c14.667 0 27.167 -5.16699 37.5 -15.5s15.5 -23.166 15.5 -38.499z" />
    <glyph glyph-name="b" unicode="b" horiz-adv-x="660" 
d="M242 350c-12.667 -12.667 -22.5 -27.667 -29.5 -45s-10.5 -36 -10.5 -56c0 -19.333 3.5 -37.5 10.5 -54.5s16.833 -31.833 29.5 -44.5c26 -27.333 57.333 -41 94 -41s68 13.667 94 41c12.667 12.667 22.5 27.5 29.5 44.5s10.5 35.167 10.5 54.5
c0 20 -3.5 38.667 -10.5 56s-16.833 32.333 -29.5 45c-26 27.333 -57.333 41 -94 41s-68 -13.667 -94 -41zM93 54l0.000976562 195.001v1v396c0 14.667 5.16699 27.334 15.5 38.001s23.166 16 38.499 16s28.333 -5.33301 39 -16s16 -23.334 16 -38.001v-188
c18.667 13.333 39.5 23.666 62.5 30.999s46.833 11 71.5 11c34 0 65.667 -6.66699 95 -20s55 -31.333 77 -54s39.333 -49.334 52 -80.001s19 -63 19 -97s-6.33301 -66 -19 -96s-30 -56.333 -52 -79s-47.667 -40.667 -77 -54s-61 -20 -95 -20
c-25.333 0 -49.5 3.83301 -72.5 11.5s-44.167 18.167 -63.5 31.5c-2.66699 -12 -8.83398 -22.167 -18.501 -30.5s-21.167 -12.5 -34.5 -12.5c-15.333 0 -28.166 5.33301 -38.499 16s-15.5 23.334 -15.5 38.001z" />
    <glyph glyph-name="c" unicode="c" horiz-adv-x="571" 
d="M312 0c-34.667 0 -67.333 6.49512 -98 19.4951s-57.5 30.833 -80.5 53.5s-41.333 49.167 -55 79.5s-20.5 62.5 -20.5 96.5c0 34.667 6.83301 67.167 20.5 97.5s32 56.833 55 79.5s49.833 40.667 80.5 54s63.334 20 98.001 20c30 0 58.667 -5 86 -15
s51.666 -23.333 72.999 -40c11.333 -9.33301 18 -21.166 20 -35.499s-1 -27.166 -9 -38.499c-10 -12 -22.167 -19 -36.5 -21s-27.166 1.66699 -38.499 11c-13.333 9.33301 -27.833 17 -43.5 23s-32.834 9 -51.501 9c-20 0 -39 -3.83301 -57 -11.5
s-33.833 -18.167 -47.5 -31.5s-24.334 -28.666 -32.001 -45.999s-11.5 -35.666 -11.5 -54.999s3.83301 -37.666 11.5 -54.999s18.334 -32.5 32.001 -45.5s29.5 -23.333 47.5 -31s37 -11.5 57 -11.5c18 0 35 3 51 9s30.667 13.667 44 23c11.333 8.66699 24.166 12 38.499 10
s26.5 -9 36.5 -21c8 -11.333 11 -24 9 -38s-8.66699 -26 -20 -36c-21.333 -15.333 -45.666 -28 -72.999 -38s-56 -15 -86 -15z" />
    <glyph glyph-name="d" unicode="d" horiz-adv-x="660" 
d="M397 350c-26 27.333 -57.333 41 -94 41s-68 -13.667 -94 -41c-12.667 -12.667 -22.5 -27.667 -29.5 -45s-10.5 -36 -10.5 -56c0 -19.333 3.5 -37.5 10.5 -54.5s16.833 -31.833 29.5 -44.5c26 -27.333 57.333 -41 94 -41s68 13.667 94 41
c12.667 12.667 22.5 27.5 29.5 44.5s10.5 35.167 10.5 54.5c0 20 -3.5 38.667 -10.5 56s-16.833 32.333 -29.5 45zM546 54c0 -14.667 -5.16602 -27.335 -15.499 -38.002s-23.166 -16 -38.499 -16c-13.333 0 -24.833 4.16699 -34.5 12.5s-15.834 18.5 -18.501 30.5
c-19.333 -13.333 -40.5 -23.833 -63.5 -31.5s-47.167 -11.5 -72.5 -11.5c-34 0 -65.667 6.66699 -95 20s-55 31.333 -77 54s-39.333 49 -52 79s-19 62 -19 96s6.33301 66.333 19 97s30 57.334 52 80.001s47.667 40.667 77 54s61 20 95 20c24.667 0 48.5 -3.66699 71.5 -11
s43.833 -17.666 62.5 -30.999v188c0 14.667 5.33301 27.334 16 38.001s23.667 16 39 16s28.166 -5.33301 38.499 -16s15.5 -23.334 15.5 -38.001v-396v-1v-195z" />
    <glyph glyph-name="e" unicode="e" horiz-adv-x="609" 
d="M302 405c-21.333 -1.33301 -40 -5.49902 -56 -12.499s-29.5 -15.833 -40.5 -26.5s-19.667 -22 -26 -34s-10.5 -23 -12.5 -33h283c-2.66699 10 -7.66699 20.833 -15 32.5s-17.333 22.667 -30 33s-27.5 19.166 -44.5 26.499s-36.5 12 -58.5 14zM302 0.000976562
c-34 0 -65.8281 6.66699 -95.4951 20s-55.5 31.333 -77.5 54s-39.333 49.167 -52 79.5s-19 62.5 -19 96.5s6.33301 66.167 19 96.5s30 56.833 52 79.5s47.833 40.667 77.5 54s61.5 20 95.5 20c32.667 0 63.167 -5.83301 91.5 -17.5s53.166 -27.667 74.499 -48
s38.666 -44.666 51.999 -72.999s21 -59.5 23 -93.5v-5v-4.5c0 -1.66699 -0.333008 -3.16699 -1 -4.5c-1.33301 -12 -6.83301 -21.667 -16.5 -29s-21.5 -11 -35.5 -11h-318c2.66699 -11.333 6.66699 -23 12 -35s12.666 -22.333 21.999 -31c10.667 -12 25 -22.167 43 -30.5
s35.667 -13.166 53 -14.499c18 -1.33301 36.667 0.166992 56 4.5s35.333 11.166 48 20.499c5.33301 5.33301 11.666 9.33301 18.999 12s14.5 4 21.5 4s13.667 -1.16699 20 -3.5s11.166 -5.5 14.499 -9.5c6.66699 -7.33301 11.167 -17.333 13.5 -30
s-2.16699 -24.334 -13.5 -35.001c-48 -44 -107.667 -66 -179 -66z" />
    <glyph glyph-name="f" unicode="f" horiz-adv-x="362" 
d="M266 584c-0.666992 0 -2.33398 -3.83301 -5.00098 -11.5s-4 -20.834 -4 -39.501v-14h30c15.333 0 28.333 -5.33301 39 -16s16 -23.667 16 -39s-5.33301 -28.333 -16 -39s-23.667 -16 -39 -16h-30v-353c0 -15.333 -5.33301 -28.333 -16 -39s-23.667 -16 -39 -16
s-28.333 5.33301 -39 16s-16 23.667 -16 39v353h-26c-15.333 0 -28.5 5.33301 -39.5 16s-16.5 23.667 -16.5 39s5.5 28.333 16.5 39s24.167 16 39.5 16h26v14c0 18.667 1.33301 36 4 52s7.66699 31.333 15 46c7.33301 15.333 17.333 28.333 30 39s26.667 18.334 42 23.001
c10 3.33301 19.833 5.5 29.5 6.5s19.834 1.5 30.501 1.5c15.333 0 28.333 -5.33301 39 -16s16 -23.667 16 -39s-5.33301 -28.5 -16 -39.5s-23.667 -16.5 -39 -16.5c-13.333 0 -22 -1 -26 -3c-2.66699 -0.666992 -4.66699 -1.66699 -6 -3z" />
    <glyph glyph-name="g" unicode="g" horiz-adv-x="660" 
d="M395 145c11.333 11.333 20.502 26 27.502 44s10.5 37.667 10.5 59c0 20 -3.5 39 -10.5 57s-16.167 33 -27.5 45c-26.667 28.667 -58.334 43 -95.001 43s-67.334 -14.333 -92.001 -43c-12 -12 -21.667 -27 -29 -45s-11 -37 -11 -57c0 -21.333 3.66699 -41 11 -59
s17 -32.667 29 -44c12 -13.333 26 -23.5 42 -30.5s32.667 -10.5 50 -10.5c37.333 0 69 13.667 95 41zM540.002 248l-0.000976562 -0.999023v-186c0 -32.667 -6.33301 -63.5 -19 -92.5s-29.834 -54.5 -51.501 -76.5s-47 -39.333 -76 -52s-60.167 -19 -93.5 -19
c-38 0 -73 8.33301 -105 25c-13.333 6 -22.5 16.167 -27.5 30.5s-3.83301 28.166 3.5 41.499c6.66699 13.333 16.834 22.333 30.501 27s27.5 4 41.5 -2c17.333 -9.33301 36.333 -14 57 -14c32.667 0 61 10.167 85 30.5s39.333 45.833 46 76.5
c-18 -12.667 -38.167 -22.5 -60.5 -29.5s-45.833 -10.5 -70.5 -10.5c-33.333 0 -64.666 6.83301 -93.999 20.5s-54.666 32.167 -75.999 55.5c-21.333 22 -38.333 48 -51 78s-19 62.667 -19 98c0 34.667 6.33301 67.167 19 97.5s29.667 57.166 51 80.499
c21.333 22.667 46.666 40.667 75.999 54s60.666 20 93.999 20c26 0 50.333 -3.66699 73 -11s43 -17.666 61 -30.999c2.66699 12 8.83398 22 18.501 30s21.167 12 34.5 12c15.333 0 28 -5.16699 38 -15.5s15 -22.833 15 -37.5v-199z" />
    <glyph glyph-name="h" unicode="h" 
d="M204 281l0.000976562 -225.997c0 -15.333 -5.5 -28.333 -16.5 -39s-24.167 -16 -39.5 -16c-12.667 0 -23.834 4 -33.501 12s-16.167 17.667 -19.5 29c-1.33301 5.33301 -2 10 -2 14v590c0 15.333 5.33301 28.333 16 39s23.667 16 39 16s28.5 -5.33301 39.5 -16
s16.5 -23.667 16.5 -39v-174c16 8.66699 33 15.667 51 21s36.667 8 56 8c30 0 58.333 -5.83301 85 -17.5s49.834 -27.334 69.501 -47.001s35.167 -42.834 46.5 -69.501s17 -55 17 -85v-226c0 -15.333 -5.33301 -28.333 -16 -39s-23.667 -16 -39 -16s-28.333 5.33301 -39 16
s-16 23.667 -16 39v226c0 14.667 -2.83301 28.5 -8.5 41.5s-13.334 24.333 -23.001 34s-21.167 17.5 -34.5 23.5s-27.333 9 -42 9c-30 -0.666992 -55.167 -11.334 -75.5 -32.001s-30.833 -46 -31.5 -76z" />
    <glyph glyph-name="i" unicode="i" horiz-adv-x="281" 
d="M202 646v-21c0 -15.333 -5.16699 -28.333 -15.5 -39s-23.166 -16 -38.499 -16s-28.166 5.33301 -38.499 16s-15.5 23.667 -15.5 39v21c0 15.333 5.16699 28.166 15.5 38.499s23.166 15.5 38.499 15.5s28.166 -5.16699 38.499 -15.5s15.5 -23.166 15.5 -38.499zM148 499
c15.333 0 28.166 -5.16699 38.499 -15.5s15.5 -23.5 15.5 -39.5v-390c0 -15.333 -5.16699 -28.166 -15.5 -38.499s-23.166 -15.5 -38.499 -15.5s-28.166 5.16699 -38.499 15.5s-15.5 23.166 -15.5 38.499v390c0 16 5.16699 29.167 15.5 39.5s23.166 15.5 38.499 15.5z" />
    <glyph glyph-name="j" unicode="j" horiz-adv-x="249" 
d="M50 -177c-16 0 -29.166 5.16699 -39.499 15.5s-15.5 23.5 -15.5 39.5c0 14.667 5.16699 27.167 15.5 37.5s23.5 15.5 39.5 15.5v514c0 15.333 5.33301 28.333 16 39s23.334 16 38.001 16c15.333 0 28.166 -5.33301 38.499 -16s15.5 -23.667 15.5 -39v-514
c0 -14.667 -2.83301 -28.5 -8.5 -41.5s-13.334 -24.5 -23.001 -34.5s-21.167 -17.833 -34.5 -23.5s-27.333 -8.5 -42 -8.5zM106.001 569c-15.333 0 -28.333 5.5 -39 16.5s-16 23.833 -16 38.5v20c0 16 5.33301 29.167 16 39.5s23.667 15.5 39 15.5
s28.166 -5.16699 38.499 -15.5s15.5 -23.5 15.5 -39.5v-20c0 -14.667 -5.16699 -27.5 -15.5 -38.5s-23.166 -16.5 -38.499 -16.5z" />
    <glyph glyph-name="k" unicode="k" horiz-adv-x="560" 
d="M148 0c-15.333 0 -28.334 5.33203 -39.001 15.999s-16 23.667 -16 39v590c0 15.333 5.33301 28.333 16 39s23.667 16 39 16s28.5 -5.33301 39.5 -16s16.5 -23.667 16.5 -39v-346l205 205c10.667 10.667 23.667 16 39 16s28.333 -5.33301 39 -16
c11.333 -11.333 17 -24.5 17 -39.5s-5.66699 -27.833 -17 -38.5l-150 -150l154 -185c9.33301 -12 13.333 -25.667 12 -41s-8 -27.666 -20 -36.999c-5.33301 -4.66699 -11 -8 -17 -10s-12 -3 -18 -3c-8 0 -15.667 1.66699 -23 5s-13.666 8.33301 -18.999 15l-147 178l-55 -55
v-88c0 -15.333 -5.5 -28.333 -16.5 -39s-24.167 -16 -39.5 -16z" />
    <glyph glyph-name="l" unicode="l" horiz-adv-x="249" 
d="M100 645c0 15.333 5.33301 28.333 16 39s23.667 16 39 16s28.5 -5.33301 39.5 -16s16.5 -23.667 16.5 -39v-590c0 -15.333 -5.5 -28.333 -16.5 -39s-24.167 -16 -39.5 -16s-28.333 5.33301 -39 16s-16 23.667 -16 39v590z" />
    <glyph glyph-name="m" unicode="m" horiz-adv-x="951" 
d="M615 393c-14 0 -27.3369 -2.66504 -40.0039 -7.99805s-23.667 -12.5 -33 -21.5s-16.666 -19.5 -21.999 -31.5s-8.33301 -25 -9 -39v-3v-237c0 -14.667 -5.16699 -27.167 -15.5 -37.5s-22.833 -15.5 -37.5 -15.5c-14 0 -26.5 5.16699 -37.5 15.5s-16.5 22.833 -16.5 37.5
v237v3c0 14 -2.83301 27 -8.5 39s-13.167 22.5 -22.5 31.5s-20.166 16.167 -32.499 21.5s-25.5 8 -39.5 8s-27 -2.66699 -39 -8s-22.667 -12.666 -32 -21.999s-16.666 -20.333 -21.999 -33s-8 -26 -8 -40v-237c0 -1.33301 -0.166992 -2.5 -0.5 -3.5s-0.5 -2.16699 -0.5 -3.5
v-3c-0.666992 -1.33301 -1 -2.33301 -1 -3s-0.666992 -1.66699 -2 -3v-5c-4.66699 -9.33301 -11.5 -17 -20.5 -23s-18.833 -9 -29.5 -9c-2 0 -3.83301 0.166992 -5.5 0.5s-3.16699 0.5 -4.5 0.5c-12 3.33301 -22.167 9.5 -30.5 18.5s-12.5 20.167 -12.5 33.5v237v1v155
c0 15.333 5.16699 28.166 15.5 38.499s22.833 15.5 37.5 15.5c10.667 0 20.334 -2.66699 29.001 -8s15 -12.666 19 -21.999c16 9.33301 33 16.666 51 21.999s36.667 8 56 8c32 0 61.333 -6.16699 88 -18.5s49.667 -29.166 69 -50.499c18.667 21.333 41.5 38.166 68.5 50.499
s56.5 18.5 88.5 18.5c28.667 0 55.667 -5.5 81 -16.5s47.333 -26 66 -45s33.5 -41.333 44.5 -67s16.5 -52.834 16.5 -81.501v-237c0 -14.667 -5.16699 -27.167 -15.5 -37.5s-22.833 -15.5 -37.5 -15.5s-27.334 5.16699 -38.001 15.5s-16 22.833 -16 37.5v237
c0 14 -2.66699 27.333 -8 40s-12.666 23.667 -21.999 33s-20 16.666 -32 21.999s-25 8 -39 8z" />
    <glyph glyph-name="n" unicode="n" 
d="M301 500c28.667 0 55.832 -5.5 81.499 -16.5s47.834 -26 66.501 -45s33.5 -41.167 44.5 -66.5s16.5 -52 16.5 -80v-239c0 -14.667 -5 -27.167 -15 -37.5s-22.333 -15.5 -37 -15.5c-14 0 -26.333 5.16699 -37 15.5s-16 22.833 -16 37.5v239c0 14 -2.66699 27.167 -8 39.5
s-12.833 23 -22.5 32s-20.834 16.167 -33.501 21.5s-26 8 -40 8s-27.167 -2.66699 -39.5 -8s-23 -12.5 -32 -21.5s-16 -19.667 -21 -32s-7.5 -25.5 -7.5 -39.5v-239c0 -4 -0.666992 -7.33301 -2 -10c-2.66699 -12 -8.83398 -22.167 -18.501 -30.5s-21.167 -12.5 -34.5 -12.5
c-15.333 0 -28 5.16699 -38 15.5s-15 22.833 -15 37.5v239v155c0 14.667 5 27.167 15 37.5s22.667 15.5 38 15.5c10.667 0 20.334 -2.83301 29.001 -8.5s15.334 -13.167 20.001 -22.5c15.333 9.33301 32 16.833 50 22.5s36.667 8.5 56 8.5z" />
    <glyph glyph-name="o" unicode="o" horiz-adv-x="625" 
d="M215 353c-24 -28 -35.999 -62.667 -35.999 -104s12 -76.666 36 -105.999c26 -24.667 58 -37 96 -37c35.333 0 66 12.333 92 37c26 29.333 39 64.666 39 105.999s-13 76 -39 104c-12.667 11.333 -26.834 20.5 -42.501 27.5s-32.167 10.5 -49.5 10.5
c-19.333 0 -37 -3.5 -53 -10.5s-30.333 -16.167 -43 -27.5zM311.001 -3c-34.667 0 -66.334 6.83301 -95.001 20.5s-54.334 32.167 -77.001 55.5c-21.333 22 -38.166 48 -50.499 78s-18.5 62.667 -18.5 98c0 34 6.16699 65.667 18.5 95s29.166 56 50.499 80
c22.667 23.333 48.334 41.833 77.001 55.5s60.334 20.5 95.001 20.5c33.333 0 64.333 -6.83301 93 -20.5s53.334 -32.167 74.001 -55.5c22.667 -24 40 -50.667 52 -80s18 -61 18 -95c0 -35.333 -6 -68 -18 -98s-29.333 -56 -52 -78
c-20.667 -23.333 -45.334 -41.833 -74.001 -55.5s-59.667 -20.5 -93 -20.5z" />
    <glyph glyph-name="p" unicode="p" horiz-adv-x="660" 
d="M242 350c-13.333 -13.333 -23.167 -28.666 -29.5 -45.999s-9.5 -35.666 -9.5 -54.999s3.16699 -38 9.5 -56s16.166 -32.667 29.499 -44c24.667 -28 56.334 -42 95.001 -42c17.333 0 34 3.5 50 10.5s30.667 17.5 44 31.5c11.333 11.333 20.666 26 27.999 44
s11 36.667 11 56s-3.66699 37.666 -11 54.999s-16.666 32.666 -27.999 45.999c-13.333 13.333 -28 23.5 -44 30.5s-32.667 10.5 -50 10.5c-38 0 -69.667 -13.667 -95 -41zM145.999 -188c-14.667 0 -27.166 5.5 -37.499 16.5s-15.5 23.5 -15.5 37.5v382v1v198
c0 14.667 5.16699 27.167 15.5 37.5s22.833 15.5 37.5 15.5c14 0 26.167 -4 36.5 -12s16.5 -17.667 18.5 -29c18.667 12 39.667 21.833 63 29.5s47.666 11.5 72.999 11.5c33.333 0 64.666 -6.66699 93.999 -20s55 -31.333 77 -54s39.333 -49.334 52 -80.001s19 -63 19 -97
s-6.33301 -66.167 -19 -96.5s-30 -56.666 -52 -78.999s-47.667 -40 -77 -53s-60.666 -19.5 -93.999 -19.5c-25.333 0 -49.5 3.5 -72.5 10.5s-43.5 17.167 -61.5 30.5v-176c0 -14 -5.5 -26.5 -16.5 -37.5s-24.5 -16.5 -40.5 -16.5z" />
    <glyph glyph-name="q" unicode="q" horiz-adv-x="660" 
d="M396 349c-11.333 13.333 -25.166 23.833 -41.499 31.5s-33.5 11.5 -51.5 11.5c-17.333 0 -34 -3.83301 -50 -11.5s-30.667 -18.167 -44 -31.5c-12 -12 -21.833 -26.667 -29.5 -44s-11.5 -35.666 -11.5 -54.999c0 -20.667 3.83301 -39.667 11.5 -57s17.5 -32 29.5 -44
c26 -28 57.333 -42 94 -42c18 0 35.167 3.5 51.5 10.5s30.166 17.5 41.499 31.5c27.333 25.333 41 59 41 101c0 19.333 -3.5 37.666 -10.5 54.999s-17.167 32 -30.5 44zM492 -187c-15.333 0 -28.335 5.33301 -39.002 16s-16 23 -16 37v176
c-19.333 -13.333 -40.166 -23.666 -62.499 -30.999s-46.166 -11 -71.499 -11c-34 0 -65.667 6.5 -95 19.5s-55 30.833 -77 53.5s-39.333 49.167 -52 79.5s-19 62.833 -19 97.5c0 34 6.33301 66.167 19 96.5s30 56.833 52 79.5s47.667 40.667 77 54s61 20 95 20
c25.333 0 49.5 -3.83301 72.5 -11.5s44.167 -17.834 63.5 -30.501c2 11.333 8 21.166 18 29.499s21.667 12.5 35 12.5c15.333 0 28.166 -5.16699 38.499 -15.5s15.5 -23.166 15.5 -38.499v-196v-1v-383c0 -14 -5.16699 -26.333 -15.5 -37s-23.166 -16 -38.499 -16z" />
    <glyph glyph-name="r" unicode="r" horiz-adv-x="439" 
d="M348 499c15.333 0 28 -5.00195 38 -15.002s15 -22.333 15 -37c0 -14 -5 -26.333 -15 -37s-22.667 -16 -38 -16c-23.333 0 -43.333 -6.33301 -60 -19c-9.33301 -6 -17.833 -13.167 -25.5 -21.5s-14.5 -17.166 -20.5 -26.499c-12 -16 -21.167 -32.167 -27.5 -48.5
l-13.5 -35.5v-190c0 -14.667 -5.33301 -27.167 -16 -37.5s-23.667 -15.5 -39 -15.5c-14.667 0 -27.167 5.16699 -37.5 15.5s-15.5 22.833 -15.5 37.5v394c0 14.667 5.16699 27 15.5 37s22.833 15 37.5 15c15.333 0 28.333 -5 39 -15s16 -22.333 16 -37v-7l10.5 10.5
c3.66699 3.66699 7.16699 6.83398 10.5 9.50098c16.667 11.333 35.5 20.833 56.5 28.5s44.167 11.167 69.5 10.5z" />
    <glyph glyph-name="s" unicode="s" horiz-adv-x="492" 
d="M76 69c-11.333 9.33301 -17.6689 21.1641 -19.002 35.4971s2.66699 27.166 12 38.499c9.33301 12 21.333 18.667 36 20s27.667 -2.66699 39 -12c12.667 -11.333 29.334 -21.666 50.001 -30.999s40.667 -13.666 60 -12.999c13.333 0 26 1.83301 38 5.5s22 8.16699 30 13.5
c7.33301 6 12.166 11.5 14.499 16.5s3.5 9.5 3.5 13.5c0 3.33301 -1 6.66602 -3 9.99902c-1.33301 3.33301 -5.66602 7.33301 -12.999 12c-7.33301 5.33301 -18 10.5 -32 15.5s-30 9.16699 -48 12.5h-1c-15.333 3.33301 -30.333 7 -45 11s-28.667 9 -42 15
c-13.333 6.66699 -25.833 14.667 -37.5 24s-22.167 20.666 -31.5 33.999c-11.333 18.667 -17 39.667 -17 63s5.66699 44.333 17 63s25.333 34.334 42 47.001c36 24.667 77 37 123 37c17.333 0 33.333 -1.83301 48 -5.5s28.334 -8.33398 41.001 -14.001s24 -11.667 34 -18
l27 -17.5c12 -8 19.5 -19.167 22.5 -33.5s0.833008 -27.833 -6.5 -40.5c-8 -12 -19.167 -19.5 -33.5 -22.5s-27.833 -0.166992 -40.5 8.5c-16 10.667 -31.333 19.5 -46 26.5s-30 10.5 -46 10.5c-12.667 0 -24.167 -1.66699 -34.5 -5s-18.833 -7.66602 -25.5 -12.999
c-6.66699 -4.66699 -11 -9 -13 -13s-3 -7.33301 -3 -10c0 -3.33301 0.666992 -6 2 -8c2 -3.33301 5.66699 -6.66602 11 -9.99902c6.66699 -4.66699 16.167 -9 28.5 -13s27.166 -7.66699 44.499 -11l1 -1h1c16.667 -3.33301 32.667 -7.16602 48 -11.499
s30.333 -10.166 45 -17.499c13.333 -6 26.333 -13.833 39 -23.5s23.334 -21.5 32.001 -35.5c12.667 -21.333 19 -43.333 19 -66c0 -24.667 -6 -46.834 -18 -66.501s-27 -36.167 -45 -49.5c-18 -12.667 -38 -22.5 -60 -29.5s-45.333 -10.5 -70 -10.5
c-39.333 0.666992 -73.833 8.33398 -103.5 23.001s-54.5 30 -74.5 46z" />
    <glyph glyph-name="t" unicode="t" horiz-adv-x="400" 
d="M262 500c15.333 0 28.499 -5.33203 39.499 -15.999s16.5 -23.667 16.5 -39s-5.5 -28.333 -16.5 -39s-24.167 -16 -39.5 -16h-25v-279c15.333 0 28.333 -5.5 39 -16.5s16 -24.167 16 -39.5s-5.33301 -28.333 -16 -39s-23.667 -16 -39 -16s-29.666 3 -42.999 9
s-25 14 -35 24s-18 21.667 -24 35s-9 27.666 -9 42.999v279h-29c-15.333 0 -28.333 5.33301 -39 16s-16 23.667 -16 39s5.33301 28.333 16 39s23.667 16 39 16h29v145c0 15.333 5.5 28.333 16.5 39s24.167 16 39.5 16s28.333 -5.33301 39 -16s16 -23.667 16 -39v-145h25z
" />
    <glyph glyph-name="u" unicode="u" 
d="M502 208c0 -28.667 -5.66699 -55.5 -17 -80.5s-26.5 -47 -45.5 -66s-41.333 -34 -67 -45s-52.834 -16.5 -81.501 -16.5s-55.5 5.5 -80.5 16.5s-47 26 -66 45s-34 41 -45 66s-16.5 51.833 -16.5 80.5v239c0 14 5.16699 26.333 15.5 37s22.833 16 37.5 16
c15.333 0 28 -5.33301 38 -16s15 -23 15 -37v-239c0 -28.667 9.83301 -52.834 29.5 -72.501s43.834 -29.5 72.501 -29.5c29.333 0 54 9.83301 74 29.5s30.333 43.834 31 72.501v239c0 14 4.83301 26.333 14.5 37s22.167 16 37.5 16c14 0 26.5 -5.33301 37.5 -16
s16.5 -23 16.5 -37v-239z" />
    <glyph glyph-name="v" unicode="v" horiz-adv-x="582" 
d="M459 488c14 -6 23.833 -15.5 29.5 -28.5s5.5 -26.167 -0.5 -39.5l-164 -388c-1.33301 -3.33301 -2.66602 -5.66602 -3.99902 -6.99902l-1 -1c-1.33301 -1.33301 -2.33301 -2.5 -3 -3.5s-1.66699 -2.16699 -3 -3.5l-1 -1l-3 -3l-3 -3c-0.666992 0 -1 -0.333008 -1 -1
c-2.66699 -2.66699 -5 -4.33398 -7 -5.00098h-2v-1c-2.66699 0 -5.33398 -0.666992 -8.00098 -2h-2c-2.66699 -0.666992 -6 -1 -10 -1c-3.33301 -0 -6.33301 0.333008 -9 1h-2c-4 1.33301 -6.66699 2 -8 2v1h-2l-4 2c-1.33301 0.666992 -3 1.66699 -5 3l-1 1l-3 3l-3 3
c-0.666992 0 -1.33398 0.333008 -2.00098 1c-1.33301 2.66699 -3 5 -5 7c-0.666992 0 -1 0.333008 -1 1c-1.33301 0.666992 -2.66602 3 -3.99902 7l-162 388c-6 13.333 -6.16699 26.5 -0.5 39.5s15.5 22.5 29.5 28.5c12 6 24.667 6 38 0s23 -15.667 29 -29l115 -272l116 272
c5.33301 13.333 14.5 23 27.5 29s26.167 6 39.5 0z" />
    <glyph glyph-name="w" unicode="w" horiz-adv-x="861" 
d="M707 489c13.333 -6 23.001 -15.6641 29.001 -28.9971s6 -26.666 0 -39.999l-165 -388c-0.666992 -1.33301 -1.16699 -2.66602 -1.5 -3.99902s-1.16602 -2.66602 -2.49902 -3.99902l-1 -1c-0.666992 -1.33301 -2.33398 -3.33301 -5.00098 -6l-2 -1
c-2.66699 -2.66699 -4.66699 -4.33398 -6 -5.00098c0 -0.666992 -0.166992 -1 -0.5 -1s-0.5 -0.333008 -0.5 -1c-1.33301 -1.33301 -2.66602 -2.33301 -3.99902 -3s-3 -1.33398 -5 -2.00098c-0.666992 0 -1 -0.333008 -1 -1c-1.33301 0 -4 -0.666992 -8 -2h-2
c-2 -0.666992 -5.33301 -1 -10 -1c-4 0 -7 0.333008 -9 1h-2c-2.66699 1.33301 -5 2 -7 2l-1 1h-1c-3.33301 0.666992 -6.33301 2.66699 -9 6v1c-1.33301 0.666992 -2.33301 1.33398 -3 2.00098l-3 3h-1c-0.666992 0 -1 0.333008 -1 1
c-2.66699 2.66699 -4.33398 4.66699 -5.00098 6c-0.666992 0 -1 0.333008 -1 1c-1.33301 1.33301 -2.16602 2.66602 -2.49902 3.99902s-0.833008 2.66602 -1.5 3.99902l-73 173l-71 -173c-0.666992 -1.33301 -2.33398 -4 -5.00098 -8v-1l-6 -6l-1 -1l-6 -6
c-4.66699 -3.33301 -7.66699 -5.33301 -9 -6h-2c-0.666992 0 -1 -0.333008 -1 -1c-2.66699 0 -4.66699 -0.666992 -6 -2h-2c-2.66699 -0.666992 -6 -1 -10 -1c-4.66699 0 -8 0.333008 -10 1h-3c-2.66699 1.33301 -4.66699 2 -6 2c-0.666992 0.666992 -1.33398 1 -2.00098 1
c-4 1.33301 -7 3.33301 -9 6c-0.666992 0 -1 0.333008 -1 1c-2 2 -4 3.66699 -6 5l-2 1c-0.666992 1.33301 -1.33398 2.33301 -2.00098 3s-1.33398 1.66699 -2.00098 3c-0.666992 0 -1 0.333008 -1 1c-1.33301 1.33301 -2.16602 2.66602 -2.49902 3.99902
s-1.16602 2.66602 -2.49902 3.99902l-164 388c-6 13.333 -6.16699 26.666 -0.5 39.999s15.5 23 29.5 29c12 5.33301 24.667 5.33301 38 0s22.666 -15.333 27.999 -30l118 -269l70 167c4.66699 10 11.334 17.833 20.001 23.5s18.334 8.5 29.001 8.5
c11.333 0 21.333 -2.83301 30 -8.5s15 -13.5 19 -23.5l71 -167l118 269c5.33301 14.667 14.666 24.667 27.999 30s26.333 5.33301 39 0z" />
    <glyph glyph-name="x" unicode="x" horiz-adv-x="570" 
d="M444 483c10.667 -8 17.1689 -19.167 19.502 -33.5s-0.833984 -26.833 -9.50098 -37.5l-119 -164l119 -165c8.66699 -11.333 11.834 -24.333 9.50098 -39s-8.83301 -25.667 -19.5 -33s-21.334 -11 -32.001 -11c-8 0 -15.667 2 -23 6s-14.333 9.33301 -21 16l-100 137
l-100 -137c-5.33301 -6.66699 -11.5 -12 -18.5 -16s-14.5 -6 -22.5 -6c-12 0 -22.667 3.66699 -32 11c-11.333 7.33301 -18.166 18.333 -20.499 33s0.833984 27.667 9.50098 39l120 165l-120 164c-8.66699 10.667 -11.834 23.167 -9.50098 37.5s9.16602 25.5 20.499 33.5
c12 8.66699 24.833 11.834 38.5 9.50098s25.167 -9.16602 34.5 -20.499l100 -134l100 134c9.33301 11.333 21.166 18.166 35.499 20.499s27.833 -0.833984 40.5 -9.50098z" />
    <glyph glyph-name="y" unicode="y" horiz-adv-x="588" 
d="M416 500c14.667 0 27.332 -5.00293 37.999 -15.0029s16 -22.667 16 -38v-236v-142c0 -33.333 -6.16699 -64.666 -18.5 -93.999s-29.333 -54.666 -51 -75.999s-47 -38.166 -76 -50.499s-60.167 -18.5 -93.5 -18.5c-18 0 -35.833 2.33301 -53.5 7s-34.167 10.667 -49.5 18
c-14 6 -23.333 15.833 -28 29.5s-4 27.5 2 41.5c6.66699 12 17.167 20.333 31.5 25s27.5 3.66699 39.5 -3c20 -9.33301 39.333 -14 58 -14c30 0.666992 56.333 9.5 79 26.5s38 38.5 46 64.5c-14 -8 -29.167 -14 -45.5 -18s-32.833 -6 -49.5 -6
c-28.667 0 -55.667 5.5 -81 16.5s-47.5 26 -66.5 45s-34 41.333 -45 67s-16.5 52.834 -16.5 81.501v236c0 15.333 5.33301 28 16 38s22.667 15 36 15c15.333 0 28 -5 38 -15s15 -22.667 15 -38v-236c0 -14.667 2.66699 -28.167 8 -40.5s12.833 -23 22.5 -32
s20.834 -16.167 33.501 -21.5s26 -8 40 -8c28.667 0 53 9.66699 73 29s30 43.666 30 72.999v236c0 15.333 4.83301 28 14.5 38s22.167 15 37.5 15z" />
    <glyph glyph-name="z" unicode="z" horiz-adv-x="554" 
d="M445 417l-0.00292969 -0.999023l-226 -310h184c14 0 26.333 -5 37 -15s16 -22.667 16 -38c0 -14.667 -5.33301 -27.167 -16 -37.5s-23 -15.5 -37 -15.5h-289c-4 0 -7.33301 0.333008 -10 1h-3c-2.66699 1.33301 -4.66699 2 -6 2l-4 2
c-0.666992 0 -1.33398 0.333008 -2.00098 1s-1.33398 1 -2.00098 1c-1.33301 2.66699 -2 3.66699 -2 3c-0.666992 0 -1 0.333008 -1 1c-0.666992 0 -1.66699 0.666992 -3 2l-2 2c-0.666992 0.666992 -1.33398 1 -2.00098 1c-1.33301 2 -2.66602 3.66699 -3.99902 5
c-0.666992 1.33301 -1.66699 2.66602 -3 3.99902c-1.33301 0.666992 -2 2 -2 4c-2 0.666992 -3 2.33398 -3 5.00098l-2 5c0 0.666992 -0.166992 1.33398 -0.5 2.00098s-0.5 1.33398 -0.5 2.00098v7c-0.666992 0.666992 -1 1.66699 -1 3v1c0 1.33301 0.166992 2.5 0.5 3.5
s0.5 2.16699 0.5 3.5v4c0.666992 0.666992 1 1.33398 1 2.00098s0.333008 1.66699 1 3c0 1.33301 0.166992 2.33301 0.5 3s0.5 1.33398 0.5 2.00098c0.666992 0 1.33398 0.333008 2.00098 1s1 1.33398 1 2.00098c0 1.33301 1 3 3 5h1l225 311h-183c-14 0 -26.333 5 -37 15
s-16 22.667 -16 38c0 14.667 5.33301 27.167 16 37.5s23 15.5 37 15.5h289c1.33301 0 2.33301 -0.166992 3 -0.5s1.66699 -0.5 3 -0.5h5c1.33301 -0.666992 2.33301 -1 3 -1s1.33398 -0.333008 2.00098 -1c1.33301 0 2.33301 -0.166992 3 -0.5s1.33398 -0.5 2.00098 -0.5
l3 -3c1.33301 0 2.33301 -0.333008 3 -1s1.66699 -1.33398 3 -2.00098l1 -1c1.33301 0 2 -0.666992 2 -2l2 -2l3 -3l3 -3c0.666992 -1.33301 1.66699 -2.66602 3 -3.99902s2.33301 -2 3 -2c0 -1.33301 0.333008 -2.33301 1 -3s1 -1.66699 1 -3
c0.666992 -0.666992 1 -2.33398 1 -5.00098c0.666992 -1.33301 1 -2.33301 1 -3s0.333008 -1.33398 1 -2.00098v-6c0 -0.666992 0.166992 -1.33398 0.5 -2.00098s0.5 -1.33398 0.5 -2.00098v-1c-0.666992 -0.666992 -1 -1.66699 -1 -3v-2
c0 -2.66699 -0.333008 -4.66699 -1 -6c0 -2 -0.333008 -3.66699 -1 -5c0 -2.66699 -1 -4.33398 -3 -5.00098v-3c-1.33301 -1.33301 -2.16602 -2.33301 -2.49902 -3s-1.16602 -1.33398 -2.49902 -2.00098z" />
    <glyph glyph-name="braceleft" unicode="{" horiz-adv-x="480" 
d="M394 -135c-38.667 8.66699 -70.667 18.999 -96 30.999s-45.333 26 -60 42s-25 34 -31 54s-9 42.333 -9 67c0 4 0.166992 9.16699 0.5 15.5s0.5 13 0.5 20s0.166992 13.833 0.5 20.5s0.5 12 0.5 16c0 36.667 -7.16699 63.5 -21.5 80.5s-38.5 26.167 -72.5 27.5
c-16 1.33301 -28.5 6.33301 -37.5 15s-13.5 19.667 -13.5 33s4.5 24.333 13.5 33s21.5 13.667 37.5 15c34 1.33301 58.167 10.5 72.5 27.5s21.5 44.167 21.5 81.5c0 4 -0.166992 9.33301 -0.5 16s-0.5 13.5 -0.5 20.5s-0.166992 13.667 -0.5 20s-0.5 11.5 -0.5 15.5
c0 24 3 46 9 66s16.333 38 31 54s34.667 30 60 42s57.333 22.333 96 31c15.333 3.33301 28.333 1 39 -7s16 -19.333 16 -34c0 -12 -3.16699 -21.333 -9.5 -28s-12.5 -11 -18.5 -13c-24 -7.33301 -43.333 -15 -58 -23s-26 -17 -34 -27s-13.167 -21.5 -15.5 -34.5
s-3.5 -27.833 -3.5 -44.5c0 -10 0.333008 -22.167 1 -36.5s1 -26.833 1 -37.5c0 -39.333 -9 -69.333 -27 -90s-43.667 -36.334 -77 -47.001c34 -11.333 59.833 -27.166 77.5 -47.499s26.5 -50.166 26.5 -89.499c0 -10.667 -0.333008 -23.167 -1 -37.5s-1 -26.5 -1 -36.5
c0 -17.333 1.16699 -32.333 3.5 -45s7.5 -24 15.5 -34s19.333 -19 34 -27s34 -15.667 58 -23c6 -2 12.167 -6.33301 18.5 -13s9.5 -16 9.5 -28c0 -14.667 -5.33301 -26 -16 -34s-23.667 -10.333 -39 -7z" />
    <glyph glyph-name="bar" unicode="|" horiz-adv-x="286" 
d="M121 755c0 13.333 4.66699 24.666 14 33.999s20.666 14 33.999 14s24.833 -4.66699 34.5 -14s14.5 -20.666 14.5 -33.999v-840c0 -13.333 -4.83301 -24.666 -14.5 -33.999s-21.167 -14 -34.5 -14s-24.666 4.66699 -33.999 14s-14 20.666 -14 33.999v840z" />
    <glyph glyph-name="braceright" unicode="}" horiz-adv-x="480" 
d="M108 709c38.667 -8.66699 70.667 -18.999 96 -30.999s45.333 -26 60 -42s25 -34 31 -54s9 -42 9 -66c0 -4 -0.166992 -9.16699 -0.5 -15.5s-0.5 -13 -0.5 -20s-0.166992 -13.833 -0.5 -20.5s-0.5 -12 -0.5 -16c0 -37.333 7.33301 -64.5 22 -81.5s39 -26.167 73 -27.5
c15.333 -1.33301 27.5 -6.33301 36.5 -15s13.5 -19.667 13.5 -33s-4.5 -24.333 -13.5 -33s-21.167 -13.667 -36.5 -15c-34 -1.33301 -58.333 -10.5 -73 -27.5s-22 -43.833 -22 -80.5c0 -4 0.166992 -9.33301 0.5 -16s0.5 -13.5 0.5 -20.5s0.166992 -13.667 0.5 -20
s0.5 -11.5 0.5 -15.5c0 -24.667 -3 -47 -9 -67s-16.333 -38 -31 -54s-34.667 -30 -60 -42s-57.333 -22.333 -96 -31c-15.333 -3.33301 -28.333 -1 -39 7s-16 19.333 -16 34c0 12 3.16699 21.333 9.5 28s12.833 11 19.5 13c24 7.33301 43.167 15 57.5 23s25.5 17 33.5 27
s13.167 21.333 15.5 34s3.5 27.667 3.5 45c0 10 -0.333008 22.167 -1 36.5s-1 26.833 -1 37.5c0 39.333 9 69.333 27 90s43.667 36.334 77 47.001c-34 11.333 -59.833 27.166 -77.5 47.499s-26.5 50.166 -26.5 89.499c0 10.667 0.333008 23.167 1 37.5s1 26.5 1 36.5
c0 16.667 -1.16699 31.5 -3.5 44.5s-7.5 24.5 -15.5 34.5s-19.167 19 -33.5 27s-33.5 15.667 -57.5 23c-6.66699 2 -13.167 6.33301 -19.5 13s-9.5 16 -9.5 28c0 14.667 5.33301 26 16 34s23.667 10.333 39 7z" />
    <glyph glyph-name="asciitilde" unicode="~" horiz-adv-x="460" 
d="M154 247c-3.33301 -5.33301 -7.66602 -10 -12.999 -14s-11.666 -6 -18.999 -6c-10 0 -18.667 3.33301 -26 10s-11 14.667 -11 24c0 2.66699 0.333008 6.16699 1 10.5s1.66699 8.16602 3 11.499c10.667 29.333 23.5 51.833 38.5 67.5s36.167 23.5 63.5 23.5
c14 0 27.667 -2 41 -6s26 -8.5 38 -13.5s23.5 -9.5 34.5 -13.5s20.833 -6 29.5 -6c12 0 21.333 2.33301 28 7s13 12.667 19 24c3.33301 5.33301 7.66602 10.166 12.999 14.499s11.666 6.5 18.999 6.5c10 0 18.667 -3.5 26 -10.5s11 -14.833 11 -23.5
c0 -3.33301 -0.333008 -7.16602 -1 -11.499s-1.66699 -8.16602 -3 -11.499c-10.667 -29.333 -23.5 -51.833 -38.5 -67.5s-36.167 -23.5 -63.5 -23.5c-14 0 -27.667 2 -41 6s-26 8.5 -38 13.5l-34.5 14c-11 4.33301 -20.833 6.5 -29.5 6.5c-12 0 -21.333 -2.5 -28 -7.5
s-13 -13.167 -19 -24.5z" />
    <glyph glyph-name="exclamdown" unicode="&#xa1;" horiz-adv-x="252" 
d="M202 645v-20c0 -15.333 -5.16699 -28.333 -15.5 -39s-23.166 -16 -38.499 -16s-28.333 5.33301 -39 16s-16 23.667 -16 39v20c0 15.333 5.33301 28.333 16 39s23.667 16 39 16s28.166 -5.33301 38.499 -16s15.5 -23.667 15.5 -39zM148 514
c15.333 0 28.166 -5.33301 38.499 -16s15.5 -23.667 15.5 -39v-404c0 -15.333 -5.16699 -28.333 -15.5 -39s-23.166 -16 -38.499 -16s-28.333 5.33301 -39 16s-16 23.667 -16 39v404c0 15.333 5.33301 28.333 16 39s23.667 16 39 16z" />
    <glyph glyph-name="cent" unicode="&#xa2;" horiz-adv-x="581" 
d="M170 297c0 -24.667 6.33301 -48 19 -70l88 210c-31.333 -9.33301 -57 -27 -77 -53s-30 -55 -30 -87zM418 183c11.333 9.33301 24.333 13.002 39 11.002s27.334 -9.33301 38.001 -22c8 -11.333 11 -24.166 9 -38.499s-8.66699 -26.5 -20 -36.5
c-22 -16 -46.833 -29 -74.5 -39s-56.834 -15 -87.501 -15c-30 0 -58.333 4.66699 -85 14l-23 -54c-4.66699 -10.667 -11.667 -18.834 -21 -24.501s-19.333 -8.5 -30 -8.5c-3.33301 0 -6.66602 0.333008 -9.99902 1s-6.66602 1.66699 -9.99902 3
c-14.667 5.33301 -24.834 15.166 -30.501 29.499s-5.5 28.5 0.5 42.5l29 69c-24.667 23.333 -44.167 50.5 -58.5 81.5s-21.5 64.5 -21.5 100.5c0 35.333 6.83301 68.5 20.5 99.5s32.334 58 56.001 81s51.334 41.333 83.001 55s65.167 20.5 100.5 20.5h4l32 76
c6 14 16 23.833 30 29.5s28.333 5.5 43 -0.5c13.333 -5.33301 22.833 -15.166 28.5 -29.499s5.5 -28.166 -0.5 -41.499l-25 -59c9.33301 -4.66699 18.166 -9.5 26.499 -14.5s16.166 -10.5 23.499 -16.5c11.333 -9.33301 18 -21.333 20 -36s-1 -27.667 -9 -39
c-10.667 -12.667 -23.167 -19.834 -37.5 -21.501s-27.5 2.16602 -39.5 11.499c-4 3.33301 -8.16699 6.16602 -12.5 8.49902l-13.5 7.5l-113 -271c12.667 -4 27 -6 43 -6c18 0 35.167 3 51.5 9s31.166 13.667 44.499 23z" />
    <glyph glyph-name="sterling" unicode="&#xa3;" horiz-adv-x="644" 
d="M66 43c0 10 2.66602 18.9932 7.99902 26.9932s13.666 13.667 24.999 17l51 15v176h-32c-14.667 0 -27 5 -37 15s-15 22.333 -15 37c0 14 5 26.167 15 36.5s22.333 15.5 37 15.5h32v92c0 36.667 5.33301 69.834 16 99.501s26 54.5 46 74.5c40 41.333 96 62 168 62
c46 0 84.5 -7.66699 115.5 -23s57.5 -34.666 79.5 -57.999c5.33301 -5.33301 9.83301 -11.666 13.5 -18.999s5.5 -15.666 5.5 -24.999c0 -17.333 -5.83301 -31.666 -17.5 -42.999s-26.167 -17 -43.5 -17c-11.333 0 -20.5 2 -27.5 6s-12.5 8.33301 -16.5 13
c-15.333 16.667 -31.166 29.5 -47.499 38.5s-36.166 13.5 -59.499 13.5c-16 0 -30 -2.33301 -42 -7s-22.667 -11.667 -32 -21c-22 -23.333 -33 -55.666 -33 -96.999v-89h202c14 0 26.167 -5.16699 36.5 -15.5s15.5 -22.5 15.5 -36.5c0 -14.667 -5.16699 -27 -15.5 -37
s-22.5 -15 -36.5 -15h-202v-171h276c15.333 0 28.166 -5.16699 38.499 -15.5s15.5 -23.166 15.5 -38.499s-5.16699 -28 -15.5 -38s-23.166 -15 -38.499 -15h-438c-14 0 -25.333 4.16699 -34 12.5s-13 18.5 -13 30.5z" />
    <glyph glyph-name="yen" unicode="&#xa5;" horiz-adv-x="686" 
d="M405 191l154 -0.00195312c12 0 22.333 -4.33301 31 -13s13 -19.334 13 -32.001c0 -12 -4.33301 -22.333 -13 -31s-19 -13 -31 -13h-154v-48c0 -16.667 -5.66699 -30.667 -17 -42s-25.333 -17 -42 -17s-30.667 5.66699 -42 17s-17 25.333 -17 42v48h-154
c-12 0 -22.333 4.33301 -31 13s-13 19 -13 31c0 12.667 4.33301 23.334 13 32.001s19 13 31 13h154v73h-154c-12 0 -22.333 4.33301 -31 13s-13 19 -13 31c0 12.667 4.33301 23.334 13 32.001s19 13 31 13h119l-184 252c-10 14 -15 28 -15 42
c0 15.333 5.83301 28.833 17.5 40.5s26.167 17.5 43.5 17.5c13.333 0 24.5 -3 33.5 -9s17.167 -14.333 24.5 -25l175 -261l177 260c6 9.33301 13.5 17.5 22.5 24.5s20.167 10.5 33.5 10.5c16 0 29.833 -5.16699 41.5 -15.5s17.5 -24.166 17.5 -41.499
c0 -15.333 -5 -29.666 -15 -42.999l-186 -252h121c12 0 22.333 -4.33301 31 -13s13 -19.334 13 -32.001c0 -12 -4.33301 -22.333 -13 -31s-19 -13 -31 -13h-154v-73z" />
    <glyph glyph-name="section" unicode="&#xa7;" horiz-adv-x="632" 
 />
    <glyph glyph-name="dieresis" unicode="&#xa8;" horiz-adv-x="500" 
d="M333 636c0 18 6.16699 33.333 18.5 46s27.5 19 45.5 19s33.333 -6.33301 46 -19s19 -28 19 -46s-6.33301 -33.167 -19 -45.5s-28 -18.5 -46 -18.5s-33.167 6.16699 -45.5 18.5s-18.5 27.5 -18.5 45.5zM133 636c0 18 6.16699 33.333 18.5 46s27.5 19 45.5 19
s33.333 -6.33301 46 -19s19 -28 19 -46s-6.33301 -33.167 -19 -45.5s-28 -18.5 -46 -18.5s-33.167 6.16699 -45.5 18.5s-18.5 27.5 -18.5 45.5z" />
    <glyph glyph-name="copyright" unicode="&#xa9;" horiz-adv-x="830" 
d="M419 159c-27.333 0 -52.832 5.00098 -76.499 15.001s-44 23.833 -61 41.5s-30.333 38.167 -40 61.5s-14.5 48.666 -14.5 75.999v2c0 26.667 4.83301 51.834 14.5 75.501s23 44.5 40 62.5s37.5 32.167 61.5 42.5s50 15.5 78 15.5c30.667 0 56 -3.83301 76 -11.5
s38 -18.167 54 -31.5c4.66699 -3.33301 8.5 -7.5 11.5 -12.5s4.5 -10.833 4.5 -17.5c0 -10.667 -3.5 -19.5 -10.5 -26.5s-15.5 -10.5 -25.5 -10.5c-7.33301 0 -15.333 3.33301 -24 10c-11.333 9.33301 -24.166 17 -38.499 23s-30.166 9 -47.499 9
s-33.166 -3.33301 -47.499 -10s-26.666 -15.834 -36.999 -27.501s-18.5 -25.167 -24.5 -40.5s-9 -31.666 -9 -48.999v-2c0 -17.333 3 -33.666 9 -48.999s14.167 -28.833 24.5 -40.5s22.666 -20.834 36.999 -27.501s30.166 -10 47.499 -10
c19.333 0 36.166 3.16699 50.499 9.5s28.166 15.166 41.499 26.499c2.66699 2 5.66699 4 9 6s7.66602 3 12.999 3c9.33301 0 17.5 -3.5 24.5 -10.5s10.5 -15.167 10.5 -24.5c0 -10.667 -3.66699 -19 -11 -25c-18.667 -16 -38.667 -28.833 -60 -38.5s-48 -14.5 -80 -14.5z
M414.001 24.001c46 0 88.833 8.66699 128.5 26s74 40.666 103 69.999s51.833 63.833 68.5 103.5s25 81.834 25 126.501v2c0 44.667 -8.16699 86.667 -24.5 126s-39 73.666 -68 102.999s-63.167 52.5 -102.5 69.5s-82 25.5 -128 25.5s-88.833 -8.66699 -128.5 -26
s-74 -40.666 -103 -69.999s-51.833 -63.833 -68.5 -103.5s-25 -81.834 -25 -126.501v-2c0 -44.667 8.16699 -86.667 24.5 -126s39 -73.666 68 -102.999s63.167 -52.5 102.5 -69.5s82 -25.5 128 -25.5zM414.001 -11.999c-50.667 0 -98 9.5 -142 28.5
s-82.167 44.833 -114.5 77.5s-57.833 70.834 -76.5 114.501s-28 90.167 -28 139.5v2c0 49.333 9.33301 95.833 28 139.5s44.334 82 77.001 115s71.167 59.167 115.5 78.5s91.833 29 142.5 29s98 -9.5 142 -28.5s82.167 -44.833 114.5 -77.5s57.833 -70.834 76.5 -114.501
s28 -90.167 28 -139.5v-2c0 -49.333 -9.33301 -95.833 -28 -139.5s-44.334 -82 -77.001 -115s-71.167 -59.167 -115.5 -78.5s-91.833 -29 -142.5 -29z" />
    <glyph glyph-name="ordfeminine" unicode="&#xaa;" horiz-adv-x="390" 
d="M99 296c-9.33301 0 -17.333 3.33301 -24 10s-10 14.667 -10 24s3.33301 17.333 10 24s14.667 10 24 10h218c9.33301 0 17.166 -3.33301 23.499 -10s9.5 -14.667 9.5 -24s-3.16699 -17.333 -9.5 -24s-14.166 -10 -23.499 -10h-218zM259 486
c15.333 17.333 23.002 38.333 23.002 63c0 13.333 -2 25.333 -6 36s-9.66699 19.667 -17 27c-15.333 16 -34.333 24 -57 24c-23.333 0 -42 -8 -56 -24c-15.333 -15.333 -23 -36.333 -23 -63c0 -25.333 7.66699 -46.333 23 -63c7.33301 -6.66699 15.666 -12.167 24.999 -16.5
s19.666 -6.5 30.999 -6.5s21.833 2.16699 31.5 6.5s18.167 9.83301 25.5 16.5zM347.002 669v-119.996v-118c0 -9.33301 -3.16699 -17.166 -9.5 -23.499s-14.166 -9.5 -23.499 -9.5c-8 0 -14.833 2.66699 -20.5 8s-9.16699 11.666 -10.5 18.999
c-11.333 -8.66699 -23.833 -15.334 -37.5 -20.001s-28.167 -7 -43.5 -7c-20.667 0 -39.667 4.16699 -57 12.5s-32.666 19.5 -45.999 33.5c-13.333 13.333 -23.5 29 -30.5 47s-10.5 37.333 -10.5 58c0 21.333 3.5 41.166 10.5 59.499s17.167 34.166 30.5 47.499
s28.666 24.166 45.999 32.499s36.333 12.5 57 12.5c15.333 0 29.833 -2.33301 43.5 -7s26.167 -11 37.5 -19c1.33301 7.33301 4.83301 13.5 10.5 18.5s12.5 7.5 20.5 7.5c9.33301 0 17.166 -3 23.499 -9s9.5 -13.667 9.5 -23z" />
    <glyph glyph-name="guillemotleft" unicode="&#xab;" horiz-adv-x="515" 
d="M240 42c-9.33301 0 -17.499 2.00293 -24.499 6.00293s-12.833 9 -17.5 15l-129 166c-4.66699 6 -8.16699 11.667 -10.5 17s-3.5 11.333 -3.5 18c0 12 4.66699 23.667 14 35l126 163c5.33301 7.33301 12 13.166 20 17.499s16.667 6.5 26 6.5
c13.333 0 24.666 -5 33.999 -15s14 -21.667 14 -35c0 -6.66699 -1.33301 -12.834 -4 -18.501s-5.66699 -10.834 -9 -15.501l-106 -137l108 -140c8 -10 12 -21 12 -33c0 -14 -4.83301 -25.833 -14.5 -35.5s-21.5 -14.5 -35.5 -14.5zM492.001 42.0029
c-9.33301 0 -17.499 2.00293 -24.499 6.00293s-12.833 9 -17.5 15l-129 166c-4.66699 6 -8.33398 11.667 -11.001 17s-4 11.333 -4 18c0 11.333 5 23 15 35l126 163c5.33301 7.33301 11.833 13.166 19.5 17.499s16.167 6.5 25.5 6.5c14 0 25.667 -5 35 -15
s14 -21.667 14 -35c0 -6.66699 -1.33301 -12.834 -4 -18.501s-6 -10.834 -10 -15.501l-105 -137l107 -140c8.66699 -10.667 13 -21.667 13 -33c-0.666992 -14 -5.66699 -25.833 -15 -35.5s-21 -14.5 -35 -14.5z" />
    <glyph glyph-name="registered" unicode="&#xae;" horiz-adv-x="416" 
d="M215 541c8 0 15 2.99902 21 8.99902s9 13 9 21c0 8.66699 -3 15.834 -9 21.501s-13 8.5 -21 8.5h-36v-60h36zM275 462.999c5.33301 -1.33301 8.99902 -4.66797 10.999 -10.001c1.33301 -4 1 -8 -1 -12s-5.33301 -6.66699 -10 -8c-0.666992 0 -1.5 -0.166992 -2.5 -0.5
s-2.16699 -0.5 -3.5 -0.5c-4 0 -8 1 -12 3c-3.33301 2 -6.33301 5.33301 -9 10c-4 8.66699 -6 20.667 -6 36c-1.33301 6 -2.66602 10 -3.99902 12c-2 2.66699 -5 5.66699 -9 9c-3.33301 2 -6.5 3.5 -9.5 4.5s-5.16699 1.83301 -6.5 2.5h-34v-64
c0 -4.66699 -1.66699 -8.5 -5 -11.5s-7.33301 -4.5 -12 -4.5c-10.667 0 -16 5.33301 -16 16v173c0 10.667 5.33301 16 16 16h53c17.333 0 32 -6.16699 44 -18.5s18 -27.166 18 -44.499c0 -18.667 -7.66699 -34.667 -23 -48c2 -1.33301 4 -2.83301 6 -4.5
s3.66699 -3.83398 5 -6.50098c6 -9.33301 9 -19.666 9 -30.999c0 -4.66699 0.166992 -8.5 0.5 -11.5s0.5 -5.16699 0.5 -6.5zM207.999 378.997c22 0 42.333 4.16699 61 12.5s34.834 19.5 48.501 33.5s24.5 30.5 32.5 49.5s12 39.167 12 60.5v1
c0 21.333 -3.83301 41.333 -11.5 60s-18.5 35 -32.5 49s-30.333 25.167 -49 33.5s-39 12.5 -61 12.5s-42.333 -4.16699 -61 -12.5s-34.834 -19.5 -48.501 -33.5s-24.5 -30.5 -32.5 -49.5s-12 -39.167 -12 -60.5v-1c0 -21.333 3.83301 -41.333 11.5 -60s18.5 -35 32.5 -49
s30.333 -25.167 49 -33.5s39 -12.5 61 -12.5zM207.999 359.997c-24.667 0 -47.5 4.66699 -68.5 14s-39.333 21.833 -55 37.5s-28 34 -37 55s-13.5 43.5 -13.5 67.5v1c0 24 4.5 46.5 13.5 67.5s21.333 39.5 37 55.5s34.167 28.667 55.5 38s44 14 68 14
c24.667 0 47.5 -4.66699 68.5 -14s39.333 -21.833 55 -37.5s28 -34 37 -55s13.5 -43.5 13.5 -67.5v-1c0 -24 -4.5 -46.5 -13.5 -67.5s-21.333 -39.5 -37 -55.5s-34.167 -28.667 -55.5 -38s-44 -14 -68 -14z" />
    <glyph glyph-name="degree" unicode="&#xb0;" horiz-adv-x="450" 
d="M241 447c13.333 0 25.833 2.66699 37.5 8s21.667 12.333 30 21s14.833 18.834 19.5 30.501s7 23.834 7 36.501v2c0 12.667 -2.33301 24.834 -7 36.501s-11.167 21.834 -19.5 30.501s-18.333 15.5 -30 20.5s-24.167 7.5 -37.5 7.5c-14 0 -26.667 -2.5 -38 -7.5
s-21.333 -11.833 -30 -20.5s-15.334 -18.834 -20.001 -30.501s-7 -23.834 -7 -36.501v-2c0 -12.667 2.33301 -24.834 7 -36.501s11.334 -21.834 20.001 -30.501s18.667 -15.667 30 -21s24 -8 38 -8zM241 381c-22 0 -43 4.33301 -63 13s-37.833 20.5 -53.5 35.5
s-28 32.167 -37 51.5s-13.5 40 -13.5 62v2c0 22 4.5 42.667 13.5 62s21.333 36.333 37 51s33.5 26.334 53.5 35.001s41 13 63 13s43 -4.33301 63 -13s37.667 -20.334 53 -35.001s27.5 -31.667 36.5 -51s13.5 -40 13.5 -62v-2c0 -22 -4.5 -42.667 -13.5 -62
s-21.167 -36.5 -36.5 -51.5s-33 -26.833 -53 -35.5s-41 -13 -63 -13z" />
    <glyph glyph-name="acute" unicode="&#xb4;" horiz-adv-x="500" 
d="M231 590c-8.66699 0 -15.833 1.83301 -21.5 5.5s-8.5 8.83398 -8.5 15.501c0 3.33301 0.833008 7 2.5 11s3.5 7.66699 5.5 11l57 88c12 19.333 28 29 48 29c8 0 16.167 -1.16699 24.5 -3.5s16 -5.33301 23 -9s12.833 -7.83398 17.5 -12.501s7 -9.33398 7 -14.001
c0 -10 -5.66699 -20 -17 -30l-67 -64c-12 -11.333 -23.333 -18.666 -34 -21.999s-23 -5 -37 -5z" />
    <glyph glyph-name="cedilla" unicode="&#xb8;" horiz-adv-x="500" 
d="M279 -131c-4 -9.33301 -8.83203 -16.499 -14.499 -21.499s-13.834 -7.5 -24.501 -7.5c-6 0 -13 1.33301 -21 4s-15.667 6 -23 10s-13.5 8.66699 -18.5 14s-7.5 10.666 -7.5 15.999c0 8 2.66699 15.667 8 23l71 103h91z" />
    <glyph glyph-name="guillemotright" unicode="&#xbb;" horiz-adv-x="515" 
d="M252 42c-9.33301 0 -17.499 2.00293 -24.499 6.00293s-12.833 9 -17.5 15l-129 166c-4.66699 6 -8.16699 11.667 -10.5 17s-3.5 11.333 -3.5 18c0 12 4.66699 23.667 14 35l126 163c5.33301 7.33301 12 13.166 20 17.499s16.667 6.5 26 6.5
c13.333 0 24.666 -5 33.999 -15s14 -21.667 14 -35c0 -6.66699 -1.33301 -12.834 -4 -18.501s-5.66699 -10.834 -9 -15.501l-106 -137l108 -140c8 -10 12 -21 12 -33c0 -14 -4.83301 -25.833 -14.5 -35.5s-21.5 -14.5 -35.5 -14.5zM504.001 42.0029
c-9.33301 0 -17.499 2.00293 -24.499 6.00293s-12.833 9 -17.5 15l-129 166c-4.66699 6 -8.33398 11.667 -11.001 17s-4 11.333 -4 18c0 11.333 5 23 15 35l126 163c5.33301 7.33301 11.833 13.166 19.5 17.499s16.167 6.5 25.5 6.5c14 0 25.667 -5 35 -15
s14 -21.667 14 -35c0 -6.66699 -1.33301 -12.834 -4 -18.501s-6 -10.834 -10 -15.501l-105 -137l107 -140c8.66699 -10.667 13 -21.667 13 -33c-0.666992 -14 -5.66699 -25.833 -15 -35.5s-21 -14.5 -35 -14.5z" />
    <glyph glyph-name="questiondown" unicode="&#xbf;" horiz-adv-x="534" 
d="M458 210c0 -29.333 -5.50098 -56.667 -16.501 -82s-26.167 -47.5 -45.5 -66.5s-41.833 -34 -67.5 -45s-52.834 -16.5 -81.501 -16.5c-38.667 0 -74 9.5 -106 28.5s-57 44.167 -75 75.5c-7.33301 12 -9.16602 24.333 -5.49902 37s11.167 22.667 22.5 30
c12 7.33301 24.5 9.16602 37.5 5.49902s23.167 -11.5 30.5 -23.5c9.33301 -16.667 22.5 -30 39.5 -40s35.833 -15 56.5 -15c16 0 30.833 2.83301 44.5 8.5s25.667 13.5 36 23.5s18.5 21.833 24.5 35.5s9 28.5 9 44.5c0 15.333 -3 29.833 -9 43.5s-14.167 25.5 -24.5 35.5
s-22.333 18 -36 24s-28.5 9 -44.5 9c-13.333 0 -24.833 4.83301 -34.5 14.5s-14.5 21.167 -14.5 34.5c0 0.666992 0.333008 1.33398 1 2.00098c0 0.666992 -0.166992 1 -0.5 1s-0.5 0.333008 -0.5 1v104c0 14 4.83301 25.667 14.5 35s21.167 14 34.5 14
c14 0 25.667 -4.66699 35 -14s14 -21 14 -35v-65c23.333 -5.33301 44.833 -14.333 64.5 -27s36.834 -28 51.501 -46s26 -38.167 34 -60.5s12 -45.833 12 -70.5zM246.999 583.999c-13.333 0 -24.833 4.83301 -34.5 14.5s-14.5 21.167 -14.5 34.5v18
c0 14 4.83301 25.667 14.5 35s21.167 14 34.5 14c14 0 25.667 -4.66699 35 -14s14 -21 14 -35v-18c0 -13.333 -4.66699 -24.833 -14 -34.5s-21 -14.5 -35 -14.5z" />
    <glyph glyph-name="Agrave" unicode="&#xc0;" horiz-adv-x="649" 
d="M400 790c-14 0 -26.333 1.66699 -37 5s-21.667 10.666 -33 21.999l-68 64c-11.333 10 -17 20 -17 30c0 4.66699 2.16699 9.33398 6.5 14.001s10 8.83398 17 12.501s14.833 6.66699 23.5 9s17 3.5 25 3.5c20 0 36 -9.66699 48 -29l57 -88c2 -3.33301 4 -7 6 -11
s3 -7.66699 3 -11c0 -6.66699 -2.83301 -11.834 -8.5 -15.501s-13.167 -5.5 -22.5 -5.5zM258 275h162l-81 215zM510 35l-49.0049 130h-243l-49 -130c-4.66699 -11.333 -11.667 -20 -21 -26s-19.666 -9 -30.999 -9c-6.66699 0 -13 1 -19 3
c-14.667 5.33301 -25.167 15 -31.5 29s-6.83301 28.333 -1.5 43l221 589c4.66699 11.333 11.834 20.166 21.501 26.499s20.167 9.16602 31.5 8.49902c11.333 0.666992 21.833 -2.16602 31.5 -8.49902s16.834 -15.166 21.501 -26.499l221 -589
c5.33301 -14.667 4.83301 -29 -1.5 -43s-16.833 -23.667 -31.5 -29c-5.33301 -2 -11.666 -3 -18.999 -3c-11.333 0 -21.666 3 -30.999 9s-16 14.667 -20 26z" />
    <glyph glyph-name="Aacute" unicode="&#xc1;" horiz-adv-x="646" 
d="M279 790c-8.66699 0 -15.833 1.83301 -21.5 5.5s-8.5 8.83398 -8.5 15.501c0 3.33301 0.833008 7 2.5 11s3.5 7.66699 5.5 11l57 88c12 19.333 28 29 48 29c8 0 16.167 -1.16699 24.5 -3.5s16 -5.33301 23 -9s12.833 -7.83398 17.5 -12.501s7 -9.33398 7 -14.001
c0 -10 -5.66699 -20 -17 -30l-67 -64c-12 -11.333 -23.333 -18.666 -34 -21.999s-23 -5 -37 -5zM258.001 275h162l-81 215zM510.001 35l-49.0049 130h-243l-49 -130c-4.66699 -11.333 -11.667 -20 -21 -26s-19.666 -9 -30.999 -9c-6.66699 0 -13 1 -19 3
c-14.667 5.33301 -25.167 15 -31.5 29s-6.83301 28.333 -1.5 43l221 589c4.66699 11.333 11.834 20.166 21.501 26.499s20.167 9.16602 31.5 8.49902c11.333 0.666992 21.833 -2.16602 31.5 -8.49902s16.834 -15.166 21.501 -26.499l221 -589
c5.33301 -14.667 4.83301 -29 -1.5 -43s-16.833 -23.667 -31.5 -29c-5.33301 -2 -11.666 -3 -18.999 -3c-11.333 0 -21.666 3 -30.999 9s-16 14.667 -20 26z" />
    <glyph glyph-name="Acircumflex" unicode="&#xc2;" horiz-adv-x="664" 
d="M287 817c-13.333 -11.333 -25.499 -18.666 -36.499 -21.999s-23.5 -5 -37.5 -5c-7.33301 0 -13.666 1.66699 -18.999 5s-8 8.33301 -8 15c0 3.33301 1.16699 7.16602 3.5 11.499s5.16602 8.5 8.49902 12.5l66 83c7.33301 9.33301 15.333 16.5 24 21.5s20 7.5 34 7.5h36
c14 0 25.333 -2.5 34 -7.5s16.667 -12.167 24 -21.5l66 -83c3.33301 -4 6.16602 -8.16699 8.49902 -12.5s3.5 -8.16602 3.5 -11.499c0 -6.66699 -2.83301 -11.667 -8.5 -15s-12.5 -5 -20.5 -5c-14 0 -26.5 1.66699 -37.5 5s-23.167 10.666 -36.5 21.999l-52 45zM259.001 275
h162l-81 215zM511.001 35l-49.0049 130h-243l-49 -130c-4.66699 -11.333 -11.667 -20 -21 -26s-19.666 -9 -30.999 -9c-6.66699 0 -13 1 -19 3c-14.667 5.33301 -25.167 15 -31.5 29s-6.83301 28.333 -1.5 43l221 589c4.66699 11.333 11.834 20.166 21.501 26.499
s20.167 9.16602 31.5 8.49902c11.333 0.666992 21.833 -2.16602 31.5 -8.49902s16.834 -15.166 21.501 -26.499l221 -589c5.33301 -14.667 4.83301 -29 -1.5 -43s-16.833 -23.667 -31.5 -29c-5.33301 -2 -11.666 -3 -18.999 -3c-11.333 0 -21.666 3 -30.999 9
s-16 14.667 -20 26z" />
    <glyph glyph-name="Atilde" unicode="&#xc3;" horiz-adv-x="664" 
d="M228 803c-3.33301 -5.33301 -7.66699 -10 -13 -14s-12 -6 -20 -6c-10 0 -18.667 3.33301 -26 10s-11 14.334 -11 23.001c0 3.33301 0.333008 7.16602 1 11.499s1.66699 8.16602 3 11.499c10.667 29.333 23.667 51.833 39 67.5s36.333 23.5 63 23.5
c14 0 27.667 -2.16699 41 -6.5s26.166 -9 38.499 -14l34.5 -13.5c10.667 -4 20.667 -6 30 -6c11.333 0 20.333 2.5 27 7.5s13 13.167 19 24.5c3.33301 5.33301 7.83301 10 13.5 14s12.167 6 19.5 6c10 0 18.667 -3.33301 26 -10s11 -14.334 11 -23.001
c0 -3.33301 -0.333008 -7.16602 -1 -11.499s-1.66699 -8.16602 -3 -11.499c-10.667 -29.333 -23.667 -51.833 -39 -67.5s-36.333 -23.5 -63 -23.5c-14 0 -27.667 2 -41 6s-26.166 8.5 -38.499 13.5l-35 14c-11 4.33301 -20.833 6.5 -29.5 6.5
c-11.333 0 -20.333 -2.5 -27 -7.5s-13 -13.167 -19 -24.5zM258.999 275h162l-81 215zM510.999 35l-49.0049 130h-243l-49 -130c-4.66699 -11.333 -11.667 -20 -21 -26s-19.666 -9 -30.999 -9c-6.66699 0 -13 1 -19 3c-14.667 5.33301 -25.167 15 -31.5 29
s-6.83301 28.333 -1.5 43l221 589c4.66699 11.333 11.834 20.166 21.501 26.499s20.167 9.16602 31.5 8.49902c11.333 0.666992 21.833 -2.16602 31.5 -8.49902s16.834 -15.166 21.501 -26.499l221 -589c5.33301 -14.667 4.83301 -29 -1.5 -43s-16.833 -23.667 -31.5 -29
c-5.33301 -2 -11.666 -3 -18.999 -3c-11.333 0 -21.666 3 -30.999 9s-16 14.667 -20 26z" />
    <glyph glyph-name="Adieresis" unicode="&#xc4;" horiz-adv-x="663" 
d="M377 836c0 18 6.16699 33.333 18.5 46s27.5 19 45.5 19s33.333 -6.33301 46 -19s19 -28 19 -46s-6.33301 -33.167 -19 -45.5s-28 -18.5 -46 -18.5s-33.167 6.16699 -45.5 18.5s-18.5 27.5 -18.5 45.5zM177 836c0 18 6.16699 33.333 18.5 46s27.5 19 45.5 19
s33.333 -6.33301 46 -19s19 -28 19 -46s-6.33301 -33.167 -19 -45.5s-28 -18.5 -46 -18.5s-33.167 6.16699 -45.5 18.5s-18.5 27.5 -18.5 45.5zM259 275h162l-81 215zM511 35l-49.0049 130h-243l-49 -130c-4.66699 -11.333 -11.667 -20 -21 -26s-19.666 -9 -30.999 -9
c-6.66699 0 -13 1 -19 3c-14.667 5.33301 -25.167 15 -31.5 29s-6.83301 28.333 -1.5 43l221 589c4.66699 11.333 11.834 20.166 21.501 26.499s20.167 9.16602 31.5 8.49902c11.333 0.666992 21.833 -2.16602 31.5 -8.49902s16.834 -15.166 21.501 -26.499l221 -589
c5.33301 -14.667 4.83301 -29 -1.5 -43s-16.833 -23.667 -31.5 -29c-5.33301 -2 -11.666 -3 -18.999 -3c-11.333 0 -21.666 3 -30.999 9s-16 14.667 -20 26z" />
    <glyph glyph-name="Aring" unicode="&#xc5;" horiz-adv-x="646" 
d="M326 685c13.333 0 24.666 4.5 33.999 13.5s14 20.167 14 33.5v2c0 13.333 -4.66699 24.5 -14 33.5s-20.666 13.5 -33.999 13.5s-24.666 -4.5 -33.999 -13.5s-14 -20.167 -14 -33.5v-2c0 -13.333 4.66699 -24.5 14 -33.5s20.666 -13.5 33.999 -13.5zM449 165
l-243.003 0.00195312l-49 -130c-4.66699 -11.333 -11.667 -20 -21 -26s-19.666 -9 -30.999 -9c-6.66699 0 -13 1 -19 3c-14.667 5.33301 -25.167 15 -31.5 29s-6.83301 28.333 -1.5 43l207 553c-18 11.333 -32.833 26.166 -44.5 44.499s-17.5 38.166 -17.5 59.499v2
c0 16.667 3.5 32.5 10.5 47.5s16.5 28 28.5 39s25.667 19.833 41 26.5s31.333 10 48 10s32.667 -3.33301 48 -10s29 -15.5 41 -26.5s21.5 -24 28.5 -39s10.5 -30.833 10.5 -47.5v-2c0 -21.333 -5.66699 -41 -17 -59s-26 -32.667 -44 -44l208 -554
c5.33301 -14.667 4.83301 -29 -1.5 -43s-16.833 -23.667 -31.5 -29c-5.33301 -2 -11.666 -3 -18.999 -3c-11.333 0 -21.666 3 -30.999 9s-16 14.667 -20 26zM245.997 275.002h162l-81 215z" />
    <glyph glyph-name="AE" unicode="&#xc6;" horiz-adv-x="1045" 
d="M488 278v315h-20l-181 -315h201zM35 45c0 13.333 3.33203 24.998 9.99902 34.998l337 577c7.33301 13.333 16.833 23.833 28.5 31.5s26.167 11.5 43.5 11.5h481c15.333 0 28.333 -5.33301 39 -16s16 -23.667 16 -39s-5.33301 -28.333 -16 -39s-23.667 -16 -39 -16h-324
v-182h279c15.333 0 28.333 -5.5 39 -16.5s16 -24.167 16 -39.5s-5.33301 -28.166 -16 -38.499s-23.667 -15.5 -39 -15.5h-279v-188h329c15.333 0 28.333 -5.33301 39 -16s16 -23.667 16 -39s-5.33301 -28.333 -16 -39s-23.667 -16 -39 -16h-390c-17.333 0 -32 6 -44 18
s-18 26.667 -18 44v107h-264l-81 -141c-13.333 -22.667 -31.333 -34 -54 -34c-15.333 0 -28.166 4.83301 -38.499 14.5s-15.5 21.834 -15.5 36.501z" />
    <glyph glyph-name="Ccedilla" unicode="&#xc7;" horiz-adv-x="771" 
d="M409 -131c-4 -9.33301 -8.83203 -16.499 -14.499 -21.499s-13.834 -7.5 -24.501 -7.5c-6 0 -13 1.33301 -21 4s-15.667 6 -23 10s-13.5 8.66699 -18.5 14s-7.5 10.666 -7.5 15.999c0 8 2.66699 15.667 8 23l71 103h91zM440.001 0.000976562
c-50 0 -97.166 9.50098 -141.499 28.501s-83.166 44.667 -116.499 77s-59.833 70.333 -79.5 114s-29.5 90.5 -29.5 140.5c0 49.333 9.83301 95.833 29.5 139.5s46.167 81.834 79.5 114.501s72.166 58.5 116.499 77.5s91.5 28.5 141.5 28.5c44 0 85.5 -6.83301 124.5 -20.5
s74.5 -32.834 106.5 -57.501c12 -10 19 -22.667 21 -38s-1.66699 -29.333 -11 -42c-10 -12.667 -23 -20 -39 -22s-29.667 1.66699 -41 11c-44.667 36.667 -98.334 55 -161.001 55c-34.667 0 -67.5 -6.5 -98.5 -19.5s-58.167 -30.5 -81.5 -52.5
c-22.667 -23.333 -40.5 -49.666 -53.5 -78.999s-19.5 -61 -19.5 -95s6.5 -66 19.5 -96s30.833 -56 53.5 -78c23.333 -22 50.5 -39.5 81.5 -52.5s63.833 -19.5 98.5 -19.5c61.333 0 115 18.333 161 55c11.333 8.66699 25 12 41 10s29 -9 39 -21
c9.33301 -12.667 13 -26.834 11 -42.501s-9 -28.167 -21 -37.5c-32 -24.667 -67.5 -43.834 -106.5 -57.501s-80.5 -20.5 -124.5 -20.5z" />
    <glyph glyph-name="Egrave" unicode="&#xc8;" horiz-adv-x="593" 
d="M387 790c-14 0 -26.333 1.66699 -37 5s-21.667 10.666 -33 21.999l-68 64c-11.333 10 -17 20 -17 30c0 4.66699 2.16699 9.33398 6.5 14.001s10 8.83398 17 12.501s14.833 6.66699 23.5 9s17 3.5 25 3.5c20 0 36 -9.66699 48 -29l57 -88c2 -3.33301 4 -7 6 -11
s3 -7.66699 3 -11c0 -6.66699 -2.83301 -11.834 -8.5 -15.501s-13.167 -5.5 -22.5 -5.5zM159 0c-15.333 0 -28.333 5.33301 -39 16s-16 23.667 -16 39v590c0 15.333 5.33301 28.333 16 39s23.667 16 39 16h1h2h324c14.667 0 27.5 -5.33301 38.5 -16s16.5 -23.667 16.5 -39
s-5.5 -28.5 -16.5 -39.5s-23.833 -16.5 -38.5 -16.5h-271v-183h233c15.333 0 28.333 -5.5 39 -16.5s16 -23.833 16 -38.5c0 -15.333 -5.33301 -28.5 -16 -39.5s-23.667 -16.5 -39 -16.5h-233v-184h271c14.667 0 27.5 -5.5 38.5 -16.5s16.5 -24.167 16.5 -39.5
s-5.5 -28.333 -16.5 -39s-23.833 -16 -38.5 -16h-324h-2v1z" />
    <glyph glyph-name="Eacute" unicode="&#xc9;" horiz-adv-x="593" 
d="M262 790c-8.66699 0 -15.833 1.83301 -21.5 5.5s-8.5 8.83398 -8.5 15.501c0 3.33301 0.833008 7 2.5 11s3.5 7.66699 5.5 11l57 88c12 19.333 28 29 48 29c8 0 16.167 -1.16699 24.5 -3.5s16 -5.33301 23 -9s12.833 -7.83398 17.5 -12.501s7 -9.33398 7 -14.001
c0 -10 -5.66699 -20 -17 -30l-67 -64c-12 -11.333 -23.333 -18.666 -34 -21.999s-23 -5 -37 -5zM159.001 0c-15.333 0 -28.333 5.33301 -39 16s-16 23.667 -16 39v590c0 15.333 5.33301 28.333 16 39s23.667 16 39 16h1h2h324c14.667 0 27.5 -5.33301 38.5 -16
s16.5 -23.667 16.5 -39s-5.5 -28.5 -16.5 -39.5s-23.833 -16.5 -38.5 -16.5h-271v-183h233c15.333 0 28.333 -5.5 39 -16.5s16 -23.833 16 -38.5c0 -15.333 -5.33301 -28.5 -16 -39.5s-23.667 -16.5 -39 -16.5h-233v-184h271c14.667 0 27.5 -5.5 38.5 -16.5
s16.5 -24.167 16.5 -39.5s-5.5 -28.333 -16.5 -39s-23.833 -16 -38.5 -16h-324h-2v1z" />
    <glyph glyph-name="Ecircumflex" unicode="&#xca;" horiz-adv-x="593" 
d="M270 817c-13.333 -11.333 -25.499 -18.666 -36.499 -21.999s-23.5 -5 -37.5 -5c-7.33301 0 -13.666 1.66699 -18.999 5s-8 8.33301 -8 15c0 3.33301 1.16699 7.16602 3.5 11.499s5.16602 8.5 8.49902 12.5l66 83c7.33301 9.33301 15.333 16.5 24 21.5s20 7.5 34 7.5h36
c14 0 25.333 -2.5 34 -7.5s16.667 -12.167 24 -21.5l66 -83c3.33301 -4 6.16602 -8.16699 8.49902 -12.5s3.5 -8.16602 3.5 -11.499c0 -6.66699 -2.83301 -11.667 -8.5 -15s-12.5 -5 -20.5 -5c-14 0 -26.5 1.66699 -37.5 5s-23.167 10.666 -36.5 21.999l-52 45zM159.001 0
c-15.333 0 -28.333 5.33301 -39 16s-16 23.667 -16 39v590c0 15.333 5.33301 28.333 16 39s23.667 16 39 16h1h2h324c14.667 0 27.5 -5.33301 38.5 -16s16.5 -23.667 16.5 -39s-5.5 -28.5 -16.5 -39.5s-23.833 -16.5 -38.5 -16.5h-271v-183h233
c15.333 0 28.333 -5.5 39 -16.5s16 -23.833 16 -38.5c0 -15.333 -5.33301 -28.5 -16 -39.5s-23.667 -16.5 -39 -16.5h-233v-184h271c14.667 0 27.5 -5.5 38.5 -16.5s16.5 -24.167 16.5 -39.5s-5.5 -28.333 -16.5 -39s-23.833 -16 -38.5 -16h-324h-2v1z" />
    <glyph glyph-name="Edieresis" unicode="&#xcb;" horiz-adv-x="670" 
d="M359 836c0 18 6.16699 33.333 18.5 46s27.5 19 45.5 19s33.333 -6.33301 46 -19s19 -28 19 -46s-6.33301 -33.167 -19 -45.5s-28 -18.5 -46 -18.5s-33.167 6.16699 -45.5 18.5s-18.5 27.5 -18.5 45.5zM159 836c0 18 6.16699 33.333 18.5 46s27.5 19 45.5 19
s33.333 -6.33301 46 -19s19 -28 19 -46s-6.33301 -33.167 -19 -45.5s-28 -18.5 -46 -18.5s-33.167 6.16699 -45.5 18.5s-18.5 27.5 -18.5 45.5zM159 0c-15.333 0 -28.333 5.33301 -39 16s-16 23.667 -16 39v590c0 15.333 5.33301 28.333 16 39s23.667 16 39 16h1h2h324
c14.667 0 27.5 -5.33301 38.5 -16s16.5 -23.667 16.5 -39s-5.5 -28.5 -16.5 -39.5s-23.833 -16.5 -38.5 -16.5h-271v-183h233c15.333 0 28.333 -5.5 39 -16.5s16 -23.833 16 -38.5c0 -15.333 -5.33301 -28.5 -16 -39.5s-23.667 -16.5 -39 -16.5h-233v-184h271
c14.667 0 27.5 -5.5 38.5 -16.5s16.5 -24.167 16.5 -39.5s-5.5 -28.333 -16.5 -39s-23.833 -16 -38.5 -16h-324h-2v1z" />
    <glyph glyph-name="Igrave" unicode="&#xcc;" horiz-adv-x="348" 
d="M278 790c-14 0 -26.333 1.66699 -37 5s-21.667 10.666 -33 21.999l-68 64c-11.333 10 -17 20 -17 30c0 4.66699 2.16699 9.33398 6.5 14.001s10 8.83398 17 12.501s14.833 6.66699 23.5 9s17 3.5 25 3.5c20 0 36 -9.66699 48 -29l57 -88c2 -3.33301 4 -7 6 -11
s3 -7.66699 3 -11c0 -6.66699 -2.83301 -11.834 -8.5 -15.501s-13.167 -5.5 -22.5 -5.5zM161 55c0 -15.333 5.33301 -28.333 16 -39s23.667 -16 39 -16s28.5 5.33301 39.5 16s16.5 23.667 16.5 39v590c0 15.333 -5.5 28.333 -16.5 39s-24.167 16 -39.5 16
s-28.333 -5.33301 -39 -16s-16 -23.667 -16 -39v-590z" />
    <glyph glyph-name="Iacute" unicode="&#xcd;" horiz-adv-x="274" 
d="M77 790c-8.66699 0 -15.833 1.83301 -21.5 5.5s-8.5 8.83398 -8.5 15.501c0 3.33301 0.833008 7 2.5 11s3.5 7.66699 5.5 11l57 88c12 19.333 28 29 48 29c8 0 16.167 -1.16699 24.5 -3.5s16 -5.33301 23 -9s12.833 -7.83398 17.5 -12.501s7 -9.33398 7 -14.001
c0 -10 -5.66699 -20 -17 -30l-67 -64c-12 -11.333 -23.333 -18.666 -34 -21.999s-23 -5 -37 -5zM83.001 55c0 -15.333 5.33301 -28.333 16 -39s23.667 -16 39 -16s28.5 5.33301 39.5 16s16.5 23.667 16.5 39v590c0 15.333 -5.5 28.333 -16.5 39s-24.167 16 -39.5 16
s-28.333 -5.33301 -39 -16s-16 -23.667 -16 -39v-590z" />
    <glyph glyph-name="Icircumflex" unicode="&#xce;" horiz-adv-x="274" 
d="M103 817c-13.333 -11.333 -25.499 -18.666 -36.499 -21.999s-23.5 -5 -37.5 -5c-7.33301 0 -13.666 1.66699 -18.999 5s-8 8.33301 -8 15c0 3.33301 1.16699 7.16602 3.5 11.499s5.16602 8.5 8.49902 12.5l66 83c7.33301 9.33301 15.333 16.5 24 21.5s20 7.5 34 7.5h36
c14 0 25.333 -2.5 34 -7.5s16.667 -12.167 24 -21.5l66 -83c3.33301 -4 6.16602 -8.16699 8.49902 -12.5s3.5 -8.16602 3.5 -11.499c0 -6.66699 -2.83301 -11.667 -8.5 -15s-12.5 -5 -20.5 -5c-14 0 -26.5 1.66699 -37.5 5s-23.167 10.666 -36.5 21.999l-52 45zM102.001 55
c0 -15.333 5.33301 -28.333 16 -39s23.667 -16 39 -16s28.5 5.33301 39.5 16s16.5 23.667 16.5 39v590c0 15.333 -5.5 28.333 -16.5 39s-24.167 16 -39.5 16s-28.333 -5.33301 -39 -16s-16 -23.667 -16 -39v-590z" />
    <glyph glyph-name="Idieresis" unicode="&#xcf;" horiz-adv-x="274" 
d="M192 836c0 18 6.16699 33.333 18.5 46s27.5 19 45.5 19s33.333 -6.33301 46 -19s19 -28 19 -46s-6.33301 -33.167 -19 -45.5s-28 -18.5 -46 -18.5s-33.167 6.16699 -45.5 18.5s-18.5 27.5 -18.5 45.5zM-8 836c0 18 6.16699 33.333 18.5 46s27.5 19 45.5 19
s33.333 -6.33301 46 -19s19 -28 19 -46s-6.33301 -33.167 -19 -45.5s-28 -18.5 -46 -18.5s-33.167 6.16699 -45.5 18.5s-18.5 27.5 -18.5 45.5zM102 55c0 -15.333 5.33301 -28.333 16 -39s23.667 -16 39 -16s28.5 5.33301 39.5 16s16.5 23.667 16.5 39v590
c0 15.333 -5.5 28.333 -16.5 39s-24.167 16 -39.5 16s-28.333 -5.33301 -39 -16s-16 -23.667 -16 -39v-590z" />
    <glyph glyph-name="Eth" unicode="&#xd0;" horiz-adv-x="812" 
d="M262 412h40c16 0 29.833 -5.83301 41.5 -17.5s17.5 -25.834 17.5 -42.501c0 -16 -5.83301 -29.833 -17.5 -41.5s-25.5 -17.5 -41.5 -17.5h-40v-182h62c32.667 0 63.5 6.33301 92.5 19s54.333 29.834 76 51.501s38.667 47 51 76s18.5 60.167 18.5 93.5
c0 32.667 -6.16699 63.5 -18.5 92.5s-29.333 54.167 -51 75.5s-47 38.333 -76 51s-59.833 19 -92.5 19h-62v-177zM114 293c-16 0 -29.833 5.83398 -41.5 17.501s-17.5 25.5 -17.5 41.5c0 16.667 5.83301 30.834 17.5 42.501s25.5 17.5 41.5 17.5h37v233
c0 15.333 5.33301 28.333 16 39s23.667 16 39 16h118c48 0 93.333 -9.16699 136 -27.5s79.667 -43.333 111 -75s56.166 -68.667 74.499 -111s27.5 -87.5 27.5 -135.5c0 -48.667 -9.16699 -94.334 -27.5 -137.001s-43.166 -79.834 -74.499 -111.501s-68.333 -56.667 -111 -75
s-88 -27.5 -136 -27.5h-118c-15.333 -0 -28.333 5.33301 -39 16s-16 23.667 -16 39v238h-37z" />
    <glyph glyph-name="Ntilde" unicode="&#xd1;" horiz-adv-x="790" 
d="M257 803c-3.33301 -5.33301 -7.66699 -10 -13 -14s-12 -6 -20 -6c-10 0 -18.667 3.33301 -26 10s-11 14.334 -11 23.001c0 3.33301 0.333008 7.16602 1 11.499s1.66699 8.16602 3 11.499c10.667 29.333 23.667 51.833 39 67.5s36.333 23.5 63 23.5
c14 0 27.667 -2.16699 41 -6.5s26.166 -9 38.499 -14l34.5 -13.5c10.667 -4 20.667 -6 30 -6c11.333 0 20.333 2.5 27 7.5s13 13.167 19 24.5c3.33301 5.33301 7.83301 10 13.5 14s12.167 6 19.5 6c10 0 18.667 -3.33301 26 -10s11 -14.334 11 -23.001
c0 -3.33301 -0.333008 -7.16602 -1 -11.499s-1.66699 -8.16602 -3 -11.499c-10.667 -29.333 -23.667 -51.833 -39 -67.5s-36.333 -23.5 -63 -23.5c-14 0 -27.667 2 -41 6s-26.166 8.5 -38.499 13.5l-35 14c-11 4.33301 -20.833 6.5 -29.5 6.5
c-11.333 0 -20.333 -2.5 -27 -7.5s-13 -13.167 -19 -24.5zM213.999 470l0.000976562 -415c0 -15.333 -5.33301 -28.333 -16 -39s-23.334 -16 -38.001 -16c-15.333 -0 -28.333 5.33301 -39 16s-16 23.667 -16 39v581v1c-0.666992 8.66699 1 17.167 5 25.5
s9.66699 15.166 17 20.499c12.667 8.66699 26.334 11.834 41.001 9.50098s26.334 -9.5 35.001 -21.5l323 -447v412c0 14.667 5.16699 27.334 15.5 38.001s23.166 16 38.499 16s28.333 -5.33301 39 -16s16 -23.334 16 -38.001v-581c0 -15.333 -5.33301 -28.333 -16 -39
s-23.667 -16 -39 -16c-16 0 -29.667 6.66699 -41 20c-2.66699 2.66699 -4.33398 4.66699 -5.00098 6z" />
    <glyph glyph-name="Ograve" unicode="&#xd2;" horiz-adv-x="850" 
d="M480 790c-14 0 -26.333 1.66699 -37 5s-21.667 10.666 -33 21.999l-68 64c-11.333 10 -17 20 -17 30c0 4.66699 2.16699 9.33398 6.5 14.001s10 8.83398 17 12.501s14.833 6.66699 23.5 9s17 3.5 25 3.5c20 0 36 -9.66699 48 -29l57 -88c2 -3.33301 4 -7 6 -11
s3 -7.66699 3 -11c0 -6.66699 -2.83301 -11.834 -8.5 -15.501s-13.167 -5.5 -22.5 -5.5zM575 186c20.667 21.333 37.167 47.166 49.5 77.499s18.5 62.5 18.5 96.5s-6.16699 66.167 -18.5 96.5s-28.833 56.5 -49.5 78.5c-21.333 22.667 -45.5 40.167 -72.5 52.5
s-55.5 18.5 -85.5 18.5c-32 0 -61.667 -6.16699 -89 -18.5s-51.666 -29.833 -72.999 -52.5c-21.333 -22 -38 -48.167 -50 -78.5s-18 -62.5 -18 -96.5s6 -66.167 18 -96.5s28.667 -56.166 50 -77.499c21.333 -22.667 45.666 -40.334 72.999 -53.001s57 -19 89 -19
c30 0 58.5 6.33301 85.5 19s51.167 30.334 72.5 53.001zM417 720c46 0 89.833 -9.5 131.5 -28.5s77.5 -45.167 107.5 -78.5c31.333 -33.333 56 -71.333 74 -114s27 -89 27 -139s-9 -96.5 -27 -139.5s-42.667 -80.833 -74 -113.5c-30 -32.667 -65.833 -58.667 -107.5 -78
s-85.5 -29 -131.5 -29c-48 0 -93.167 9.66699 -135.5 29s-78.833 45.333 -109.5 78c-31.333 32.667 -55.666 70.5 -72.999 113.5s-26 89.5 -26 139.5s8.66699 96.333 26 139s41.666 80.667 72.999 114c30.667 33.333 67.167 59.5 109.5 78.5s87.5 28.5 135.5 28.5z" />
    <glyph glyph-name="Oacute" unicode="&#xd3;" horiz-adv-x="850" 
d="M356 790c-8.66699 0 -15.833 1.83301 -21.5 5.5s-8.5 8.83398 -8.5 15.501c0 3.33301 0.833008 7 2.5 11s3.5 7.66699 5.5 11l57 88c12 19.333 28 29 48 29c8 0 16.167 -1.16699 24.5 -3.5s16 -5.33301 23 -9s12.833 -7.83398 17.5 -12.501s7 -9.33398 7 -14.001
c0 -10 -5.66699 -20 -17 -30l-67 -64c-12 -11.333 -23.333 -18.666 -34 -21.999s-23 -5 -37 -5zM575.001 186c20.667 21.333 37.167 47.166 49.5 77.499s18.5 62.5 18.5 96.5s-6.16699 66.167 -18.5 96.5s-28.833 56.5 -49.5 78.5c-21.333 22.667 -45.5 40.167 -72.5 52.5
s-55.5 18.5 -85.5 18.5c-32 0 -61.667 -6.16699 -89 -18.5s-51.666 -29.833 -72.999 -52.5c-21.333 -22 -38 -48.167 -50 -78.5s-18 -62.5 -18 -96.5s6 -66.167 18 -96.5s28.667 -56.166 50 -77.499c21.333 -22.667 45.666 -40.334 72.999 -53.001s57 -19 89 -19
c30 0 58.5 6.33301 85.5 19s51.167 30.334 72.5 53.001zM417.001 720c46 0 89.833 -9.5 131.5 -28.5s77.5 -45.167 107.5 -78.5c31.333 -33.333 56 -71.333 74 -114s27 -89 27 -139s-9 -96.5 -27 -139.5s-42.667 -80.833 -74 -113.5c-30 -32.667 -65.833 -58.667 -107.5 -78
s-85.5 -29 -131.5 -29c-48 0 -93.167 9.66699 -135.5 29s-78.833 45.333 -109.5 78c-31.333 32.667 -55.666 70.5 -72.999 113.5s-26 89.5 -26 139.5s8.66699 96.333 26 139s41.666 80.667 72.999 114c30.667 33.333 67.167 59.5 109.5 78.5s87.5 28.5 135.5 28.5z" />
    <glyph glyph-name="Ocircumflex" unicode="&#xd4;" horiz-adv-x="850" 
d="M362 817c-13.333 -11.333 -25.499 -18.666 -36.499 -21.999s-23.5 -5 -37.5 -5c-7.33301 0 -13.666 1.66699 -18.999 5s-8 8.33301 -8 15c0 3.33301 1.16699 7.16602 3.5 11.499s5.16602 8.5 8.49902 12.5l66 83c7.33301 9.33301 15.333 16.5 24 21.5s20 7.5 34 7.5h36
c14 0 25.333 -2.5 34 -7.5s16.667 -12.167 24 -21.5l66 -83c3.33301 -4 6.16602 -8.16699 8.49902 -12.5s3.5 -8.16602 3.5 -11.499c0 -6.66699 -2.83301 -11.667 -8.5 -15s-12.5 -5 -20.5 -5c-14 0 -26.5 1.66699 -37.5 5s-23.167 10.666 -36.5 21.999l-52 45zM575.001 186
c20.667 21.333 37.167 47.166 49.5 77.499s18.5 62.5 18.5 96.5s-6.16699 66.167 -18.5 96.5s-28.833 56.5 -49.5 78.5c-21.333 22.667 -45.5 40.167 -72.5 52.5s-55.5 18.5 -85.5 18.5c-32 0 -61.667 -6.16699 -89 -18.5s-51.666 -29.833 -72.999 -52.5
c-21.333 -22 -38 -48.167 -50 -78.5s-18 -62.5 -18 -96.5s6 -66.167 18 -96.5s28.667 -56.166 50 -77.499c21.333 -22.667 45.666 -40.334 72.999 -53.001s57 -19 89 -19c30 0 58.5 6.33301 85.5 19s51.167 30.334 72.5 53.001zM417.001 720c46 0 89.833 -9.5 131.5 -28.5
s77.5 -45.167 107.5 -78.5c31.333 -33.333 56 -71.333 74 -114s27 -89 27 -139s-9 -96.5 -27 -139.5s-42.667 -80.833 -74 -113.5c-30 -32.667 -65.833 -58.667 -107.5 -78s-85.5 -29 -131.5 -29c-48 0 -93.167 9.66699 -135.5 29s-78.833 45.333 -109.5 78
c-31.333 32.667 -55.666 70.5 -72.999 113.5s-26 89.5 -26 139.5s8.66699 96.333 26 139s41.666 80.667 72.999 114c30.667 33.333 67.167 59.5 109.5 78.5s87.5 28.5 135.5 28.5z" />
    <glyph glyph-name="Otilde" unicode="&#xd5;" horiz-adv-x="850" 
d="M303 803c-3.33301 -5.33301 -7.66699 -10 -13 -14s-12 -6 -20 -6c-10 0 -18.667 3.33301 -26 10s-11 14.334 -11 23.001c0 3.33301 0.333008 7.16602 1 11.499s1.66699 8.16602 3 11.499c10.667 29.333 23.667 51.833 39 67.5s36.333 23.5 63 23.5
c14 0 27.667 -2.16699 41 -6.5s26.166 -9 38.499 -14l34.5 -13.5c10.667 -4 20.667 -6 30 -6c11.333 0 20.333 2.5 27 7.5s13 13.167 19 24.5c3.33301 5.33301 7.83301 10 13.5 14s12.167 6 19.5 6c10 0 18.667 -3.33301 26 -10s11 -14.334 11 -23.001
c0 -3.33301 -0.333008 -7.16602 -1 -11.499s-1.66699 -8.16602 -3 -11.499c-10.667 -29.333 -23.667 -51.833 -39 -67.5s-36.333 -23.5 -63 -23.5c-14 0 -27.667 2 -41 6s-26.166 8.5 -38.499 13.5l-35 14c-11 4.33301 -20.833 6.5 -29.5 6.5
c-11.333 0 -20.333 -2.5 -27 -7.5s-13 -13.167 -19 -24.5zM574.999 186c20.667 21.333 37.167 47.166 49.5 77.499s18.5 62.5 18.5 96.5s-6.16699 66.167 -18.5 96.5s-28.833 56.5 -49.5 78.5c-21.333 22.667 -45.5 40.167 -72.5 52.5s-55.5 18.5 -85.5 18.5
c-32 0 -61.667 -6.16699 -89 -18.5s-51.666 -29.833 -72.999 -52.5c-21.333 -22 -38 -48.167 -50 -78.5s-18 -62.5 -18 -96.5s6 -66.167 18 -96.5s28.667 -56.166 50 -77.499c21.333 -22.667 45.666 -40.334 72.999 -53.001s57 -19 89 -19c30 0 58.5 6.33301 85.5 19
s51.167 30.334 72.5 53.001zM416.999 720c46 0 89.833 -9.5 131.5 -28.5s77.5 -45.167 107.5 -78.5c31.333 -33.333 56 -71.333 74 -114s27 -89 27 -139s-9 -96.5 -27 -139.5s-42.667 -80.833 -74 -113.5c-30 -32.667 -65.833 -58.667 -107.5 -78s-85.5 -29 -131.5 -29
c-48 0 -93.167 9.66699 -135.5 29s-78.833 45.333 -109.5 78c-31.333 32.667 -55.666 70.5 -72.999 113.5s-26 89.5 -26 139.5s8.66699 96.333 26 139s41.666 80.667 72.999 114c30.667 33.333 67.167 59.5 109.5 78.5s87.5 28.5 135.5 28.5z" />
    <glyph glyph-name="Odieresis" unicode="&#xd6;" horiz-adv-x="850" 
d="M451 836c0 18 6.16699 33.333 18.5 46s27.5 19 45.5 19s33.333 -6.33301 46 -19s19 -28 19 -46s-6.33301 -33.167 -19 -45.5s-28 -18.5 -46 -18.5s-33.167 6.16699 -45.5 18.5s-18.5 27.5 -18.5 45.5zM251 836c0 18 6.16699 33.333 18.5 46s27.5 19 45.5 19
s33.333 -6.33301 46 -19s19 -28 19 -46s-6.33301 -33.167 -19 -45.5s-28 -18.5 -46 -18.5s-33.167 6.16699 -45.5 18.5s-18.5 27.5 -18.5 45.5zM575 186c20.667 21.333 37.167 47.166 49.5 77.499s18.5 62.5 18.5 96.5s-6.16699 66.167 -18.5 96.5s-28.833 56.5 -49.5 78.5
c-21.333 22.667 -45.5 40.167 -72.5 52.5s-55.5 18.5 -85.5 18.5c-32 0 -61.667 -6.16699 -89 -18.5s-51.666 -29.833 -72.999 -52.5c-21.333 -22 -38 -48.167 -50 -78.5s-18 -62.5 -18 -96.5s6 -66.167 18 -96.5s28.667 -56.166 50 -77.499
c21.333 -22.667 45.666 -40.334 72.999 -53.001s57 -19 89 -19c30 0 58.5 6.33301 85.5 19s51.167 30.334 72.5 53.001zM417 720c46 0 89.833 -9.5 131.5 -28.5s77.5 -45.167 107.5 -78.5c31.333 -33.333 56 -71.333 74 -114s27 -89 27 -139s-9 -96.5 -27 -139.5
s-42.667 -80.833 -74 -113.5c-30 -32.667 -65.833 -58.667 -107.5 -78s-85.5 -29 -131.5 -29c-48 0 -93.167 9.66699 -135.5 29s-78.833 45.333 -109.5 78c-31.333 32.667 -55.666 70.5 -72.999 113.5s-26 89.5 -26 139.5s8.66699 96.333 26 139s41.666 80.667 72.999 114
c30.667 33.333 67.167 59.5 109.5 78.5s87.5 28.5 135.5 28.5z" />
    <glyph glyph-name="multiply" unicode="&#xd7;" horiz-adv-x="620" 
d="M394 353l131 -128c11.333 -11.333 17 -24.666 17 -39.999s-5.16699 -28.166 -15.5 -38.499s-23.166 -15.5 -38.499 -15.5c-8.66699 0 -16.167 1.5 -22.5 4.5s-12.166 6.83301 -17.499 11.5l-128 132l-129 -131c-10 -11.333 -23 -17 -39 -17c-14.667 0 -27 5 -37 15
s-15 22.333 -15 37c0 16 6 29.333 18 40l130 128l-132 128c-4.66699 5.33301 -8.5 11.166 -11.5 17.499s-4.5 13.833 -4.5 22.5c0 15.333 5.16699 28.166 15.5 38.499s23.166 15.5 38.499 15.5s28.666 -5.66699 39.999 -17l128 -131l129 131c10 11.333 22.667 17 38 17
s28 -5 38 -15s15 -22.667 15 -38s-6 -28.333 -18 -39z" />
    <glyph glyph-name="Oslash" unicode="&#xd8;" horiz-adv-x="850" 
d="M440 99c34.667 0 66.667 6.5 96 19.5s54.5 30.833 75.5 53.5s37.333 49.167 49 79.5s17.5 62.5 17.5 96.5v2c0 26.667 -3.66699 52 -11 76s-17.666 46.333 -30.999 67l-335 -350c19.333 -14 40.666 -24.833 63.999 -32.5s48.333 -11.5 75 -11.5zM200 350
c0 -26.667 3.66797 -52 11.001 -76s17.666 -46.333 30.999 -67l334 349c-19.333 14 -40.5 25 -63.5 33s-47.833 12 -74.5 12c-34.667 0 -66.667 -6.5 -96 -19.5s-54.5 -30.833 -75.5 -53.5s-37.333 -49.167 -49 -79.5s-17.5 -62.5 -17.5 -96.5v-2zM438.001 -12
c-42.667 0 -82.167 5.83496 -118.5 17.502s-69.5 28.167 -99.5 49.5l-48 -48c-10 -11.333 -22.667 -17 -38 -17c-12.667 0 -23 3.83301 -31 11.5s-12 17.167 -12 28.5c0 7.33301 1.66699 14.166 5 20.499s7.33301 11.833 12 16.5l47 49c-26 32 -46.167 67.667 -60.5 107
s-21.5 81 -21.5 125v2c0 49.333 9 95.833 27 139.5s43.333 82 76 115s71.334 59.167 116.001 78.5s94 29 148 29c42 0 81.333 -6 118 -18s70 -28.667 100 -50l48 49c11.333 11.333 24 17 38 17c12.667 0 23 -3.83301 31 -11.5s12 -16.834 12 -27.501
c0 -8 -1.66699 -15.167 -5 -21.5s-7.33301 -11.833 -12 -16.5l-47 -49c26 -32 46.167 -67.667 60.5 -107s21.5 -81 21.5 -125v-2c0 -49.333 -9 -95.833 -27 -139.5s-43.333 -82 -76 -115s-71.334 -59.167 -116.001 -78.5s-94 -29 -148 -29z" />
    <glyph glyph-name="Ugrave" unicode="&#xd9;" horiz-adv-x="760" 
d="M444 790c-14 0 -26.333 1.66699 -37 5s-21.667 10.666 -33 21.999l-68 64c-11.333 10 -17 20 -17 30c0 4.66699 2.16699 9.33398 6.5 14.001s10 8.83398 17 12.501s14.833 6.66699 23.5 9s17 3.5 25 3.5c20 0 36 -9.66699 48 -29l57 -88c2 -3.33301 4 -7 6 -11
s3 -7.66699 3 -11c0 -6.66699 -2.83301 -11.834 -8.5 -15.501s-13.167 -5.5 -22.5 -5.5zM671 289c0 -40 -7.50195 -77.5 -22.502 -112.5s-35.667 -65.5 -62 -91.5s-57 -46.667 -92 -62s-72.5 -23 -112.5 -23s-77.667 7.66699 -113 23s-66 36 -92 62s-46.5 56.5 -61.5 91.5
s-22.5 72.5 -22.5 112.5v356c0 15.333 5.33301 28.333 16 39s23.667 16 39 16s28.5 -5.33301 39.5 -16s16.5 -23.667 16.5 -39v-356c0 -24.667 4.66699 -47.834 14 -69.501s22 -40.5 38 -56.5s34.833 -28.667 56.5 -38s44.834 -14 69.501 -14s47.834 4.66699 69.501 14
s40.5 22 56.5 38s28.667 34.833 38 56.5s14 44.834 14 69.501v356c0 15.333 5.5 28.333 16.5 39s24.167 16 39.5 16s28.333 -5.33301 39 -16s16 -23.667 16 -39v-356z" />
    <glyph glyph-name="Uacute" unicode="&#xda;" horiz-adv-x="760" 
d="M320 790c-8.66699 0 -15.833 1.83301 -21.5 5.5s-8.5 8.83398 -8.5 15.501c0 3.33301 0.833008 7 2.5 11s3.5 7.66699 5.5 11l57 88c12 19.333 28 29 48 29c8 0 16.167 -1.16699 24.5 -3.5s16 -5.33301 23 -9s12.833 -7.83398 17.5 -12.501s7 -9.33398 7 -14.001
c0 -10 -5.66699 -20 -17 -30l-67 -64c-12 -11.333 -23.333 -18.666 -34 -21.999s-23 -5 -37 -5zM671.001 289c0 -40 -7.50195 -77.5 -22.502 -112.5s-35.667 -65.5 -62 -91.5s-57 -46.667 -92 -62s-72.5 -23 -112.5 -23s-77.667 7.66699 -113 23s-66 36 -92 62
s-46.5 56.5 -61.5 91.5s-22.5 72.5 -22.5 112.5v356c0 15.333 5.33301 28.333 16 39s23.667 16 39 16s28.5 -5.33301 39.5 -16s16.5 -23.667 16.5 -39v-356c0 -24.667 4.66699 -47.834 14 -69.501s22 -40.5 38 -56.5s34.833 -28.667 56.5 -38s44.834 -14 69.501 -14
s47.834 4.66699 69.501 14s40.5 22 56.5 38s28.667 34.833 38 56.5s14 44.834 14 69.501v356c0 15.333 5.5 28.333 16.5 39s24.167 16 39.5 16s28.333 -5.33301 39 -16s16 -23.667 16 -39v-356z" />
    <glyph glyph-name="Ucircumflex" unicode="&#xdb;" horiz-adv-x="760" 
d="M328 817c-13.333 -11.333 -25.499 -18.666 -36.499 -21.999s-23.5 -5 -37.5 -5c-7.33301 0 -13.666 1.66699 -18.999 5s-8 8.33301 -8 15c0 3.33301 1.16699 7.16602 3.5 11.499s5.16602 8.5 8.49902 12.5l66 83c7.33301 9.33301 15.333 16.5 24 21.5s20 7.5 34 7.5h36
c14 0 25.333 -2.5 34 -7.5s16.667 -12.167 24 -21.5l66 -83c3.33301 -4 6.16602 -8.16699 8.49902 -12.5s3.5 -8.16602 3.5 -11.499c0 -6.66699 -2.83301 -11.667 -8.5 -15s-12.5 -5 -20.5 -5c-14 0 -26.5 1.66699 -37.5 5s-23.167 10.666 -36.5 21.999l-52 45zM671.001 289
c0 -40 -7.50195 -77.5 -22.502 -112.5s-35.667 -65.5 -62 -91.5s-57 -46.667 -92 -62s-72.5 -23 -112.5 -23s-77.667 7.66699 -113 23s-66 36 -92 62s-46.5 56.5 -61.5 91.5s-22.5 72.5 -22.5 112.5v356c0 15.333 5.33301 28.333 16 39s23.667 16 39 16
s28.5 -5.33301 39.5 -16s16.5 -23.667 16.5 -39v-356c0 -24.667 4.66699 -47.834 14 -69.501s22 -40.5 38 -56.5s34.833 -28.667 56.5 -38s44.834 -14 69.501 -14s47.834 4.66699 69.501 14s40.5 22 56.5 38s28.667 34.833 38 56.5s14 44.834 14 69.501v356
c0 15.333 5.5 28.333 16.5 39s24.167 16 39.5 16s28.333 -5.33301 39 -16s16 -23.667 16 -39v-356z" />
    <glyph glyph-name="Udieresis" unicode="&#xdc;" horiz-adv-x="760" 
d="M416 836c0 18 6.16699 33.333 18.5 46s27.5 19 45.5 19s33.333 -6.33301 46 -19s19 -28 19 -46s-6.33301 -33.167 -19 -45.5s-28 -18.5 -46 -18.5s-33.167 6.16699 -45.5 18.5s-18.5 27.5 -18.5 45.5zM216 836c0 18 6.16699 33.333 18.5 46s27.5 19 45.5 19
s33.333 -6.33301 46 -19s19 -28 19 -46s-6.33301 -33.167 -19 -45.5s-28 -18.5 -46 -18.5s-33.167 6.16699 -45.5 18.5s-18.5 27.5 -18.5 45.5zM671 289c0 -40 -7.50195 -77.5 -22.502 -112.5s-35.667 -65.5 -62 -91.5s-57 -46.667 -92 -62s-72.5 -23 -112.5 -23
s-77.667 7.66699 -113 23s-66 36 -92 62s-46.5 56.5 -61.5 91.5s-22.5 72.5 -22.5 112.5v356c0 15.333 5.33301 28.333 16 39s23.667 16 39 16s28.5 -5.33301 39.5 -16s16.5 -23.667 16.5 -39v-356c0 -24.667 4.66699 -47.834 14 -69.501s22 -40.5 38 -56.5
s34.833 -28.667 56.5 -38s44.834 -14 69.501 -14s47.834 4.66699 69.501 14s40.5 22 56.5 38s28.667 34.833 38 56.5s14 44.834 14 69.501v356c0 15.333 5.5 28.333 16.5 39s24.167 16 39.5 16s28.333 -5.33301 39 -16s16 -23.667 16 -39v-356z" />
    <glyph glyph-name="Yacute" unicode="&#xdd;" horiz-adv-x="716" 
d="M303 790c-8.66699 0 -15.833 1.83301 -21.5 5.5s-8.5 8.83398 -8.5 15.501c0 3.33301 0.833008 7 2.5 11s3.5 7.66699 5.5 11l57 88c12 19.333 28 29 48 29c8 0 16.167 -1.16699 24.5 -3.5s16 -5.33301 23 -9s12.833 -7.83398 17.5 -12.501s7 -9.33398 7 -14.001
c0 -10 -5.66699 -20 -17 -30l-67 -64c-12 -11.333 -23.333 -18.666 -34 -21.999s-23 -5 -37 -5zM579.001 682c12 -9.33301 19.166 -21.333 21.499 -36s-0.833984 -28 -9.50098 -40l-205 -281v-270c0 -15.333 -5.33301 -28.333 -16 -39s-23.667 -16 -39 -16
c-14.667 -0 -27.5 5.33301 -38.5 16s-16.5 23.667 -16.5 39v270l-203 281c-9.33301 12 -13 25.333 -11 40s9.33301 26.667 22 36s26.334 12.833 41.001 10.5s26.334 -9.83301 35.001 -22.5l171 -234l171 234c9.33301 12.667 21.5 20.167 36.5 22.5s28.5 -1.16699 40.5 -10.5
z" />
    <glyph glyph-name="germandbls" unicode="&#xdf;" horiz-adv-x="620" 
d="M308 47c0 12 3.83105 22.1709 11.498 30.5039s18.167 14.166 31.5 17.499c36 5.33301 64.333 16.333 85 33s31 40.334 31 71.001v2c0 28.667 -10.667 51.334 -32 68.001s-49 29.334 -83 38.001c-11.333 3.33301 -21.5 9.16602 -30.5 17.499s-13.5 20.166 -13.5 35.499
c0 12 2.5 22 7.5 30s11.167 14.667 18.5 20c26 14.667 47.833 32 65.5 52s26.5 44.667 26.5 74v2c0 29.333 -9.16699 52.666 -27.5 69.999s-42.833 26 -73.5 26c-33.333 0 -60.333 -11.5 -81 -34.5s-31 -54.167 -31 -93.5v-452c0 -16.667 -5.83301 -30.667 -17.5 -42
s-26.167 -17 -43.5 -17c-16.667 0 -30.667 5.66699 -42 17s-17 25.333 -17 42v448c0 36 5.5 68.5 16.5 97.5s26.833 53.667 47.5 74s45.667 36 75 47s62.333 16.5 99 16.5c34 0 64.333 -4.83301 91 -14.5s49.334 -23 68.001 -40s32.834 -37 42.501 -60
s14.5 -47.5 14.5 -73.5v-2c0 -22.667 -3 -42.834 -9 -60.501s-14.167 -33.334 -24.5 -47.001s-22.166 -25.667 -35.499 -36s-27.333 -19.5 -42 -27.5c19.333 -6.66699 38.166 -15 56.499 -25s34.5 -22.167 48.5 -36.5s25.333 -31.166 34 -50.499s13 -41.333 13 -66v-2
c0 -32.667 -6.5 -61.334 -19.5 -86.001s-30 -45.167 -51 -61.5s-45 -28.833 -72 -37.5s-54.5 -13.334 -82.5 -14.001c-17.333 0 -30.833 4.66699 -40.5 14s-14.5 21.333 -14.5 36z" />
    <glyph glyph-name="agrave" unicode="&#xe0;" horiz-adv-x="574" 
d="M387 570c-14 0 -26.333 1.66699 -37 5s-21.667 10.666 -33 21.999l-68 64c-11.333 10 -17 20 -17 30c0 4.66699 2.16699 9.33398 6.5 14.001s10 8.83398 17 12.501s14.833 6.66699 23.5 9s17 3.5 25 3.5c20 0 36 -9.66699 48 -29l57 -88c2 -3.33301 4 -7 6 -11
s3 -7.66699 3 -11c0 -6.66699 -2.83301 -11.834 -8.5 -15.501s-13.167 -5.5 -22.5 -5.5zM394 146c12 13.333 21.5 28.666 28.5 45.999s10.5 36.333 10.5 57c0 21.333 -3.5 40.666 -10.5 57.999s-16.5 32.333 -28.5 45c-12 13.333 -26.167 23.5 -42.5 30.5
s-33.166 10.5 -50.499 10.5c-18 0 -35.167 -3.5 -51.5 -10.5s-30.166 -17.167 -41.499 -30.5c-12 -12.667 -21.333 -27.667 -28 -45s-10 -36.666 -10 -57.999c0 -41.333 12.667 -75.666 38 -102.999c11.333 -12.667 25.166 -22.334 41.499 -29.001s33.5 -10 51.5 -10
c17.333 0 34.166 3.33301 50.499 10s30.5 16.334 42.5 29.001zM539 446v-197v-196c0 -14.667 -5.16699 -27.167 -15.5 -37.5s-22.833 -15.5 -37.5 -15.5c-13.333 0 -24.5 4.16699 -33.5 12.5s-15.167 18.5 -18.5 30.5c-19.333 -13.333 -40 -23.833 -62 -31.5
s-45.667 -11.5 -71 -11.5c-34 0 -65.5 6.5 -94.5 19.5s-54.167 30.833 -75.5 53.5c-21.333 23.333 -38 50 -50 80s-18 62 -18 96c0 34.667 6 67 18 97s28.667 56.333 50 79c21.333 23.333 46.5 41.666 75.5 54.999s60.5 20 94.5 20c25.333 0 49 -4 71 -12
s42.667 -18.667 62 -32c3.33301 12.667 9.5 23.167 18.5 31.5s20.167 12.5 33.5 12.5c14.667 0 27.167 -5.16699 37.5 -15.5s15.5 -23.166 15.5 -38.499z" />
    <glyph glyph-name="aacute" unicode="&#xe1;" horiz-adv-x="574" 
d="M353 570c-8.66699 0 -15.833 1.83301 -21.5 5.5s-8.5 8.83398 -8.5 15.501c0 3.33301 0.833008 7 2.5 11s3.5 7.66699 5.5 11l57 88c12 19.333 28 29 48 29c8 0 16.167 -1.16699 24.5 -3.5s16 -5.33301 23 -9s12.833 -7.83398 17.5 -12.501s7 -9.33398 7 -14.001
c0 -10 -5.66699 -20 -17 -30l-67 -64c-12 -11.333 -23.333 -18.666 -34 -21.999s-23 -5 -37 -5zM394.001 146c12 13.333 21.5 28.666 28.5 45.999s10.5 36.333 10.5 57c0 21.333 -3.5 40.666 -10.5 57.999s-16.5 32.333 -28.5 45c-12 13.333 -26.167 23.5 -42.5 30.5
s-33.166 10.5 -50.499 10.5c-18 0 -35.167 -3.5 -51.5 -10.5s-30.166 -17.167 -41.499 -30.5c-12 -12.667 -21.333 -27.667 -28 -45s-10 -36.666 -10 -57.999c0 -41.333 12.667 -75.666 38 -102.999c11.333 -12.667 25.166 -22.334 41.499 -29.001s33.5 -10 51.5 -10
c17.333 0 34.166 3.33301 50.499 10s30.5 16.334 42.5 29.001zM539.001 446v-197v-196c0 -14.667 -5.16699 -27.167 -15.5 -37.5s-22.833 -15.5 -37.5 -15.5c-13.333 0 -24.5 4.16699 -33.5 12.5s-15.167 18.5 -18.5 30.5c-19.333 -13.333 -40 -23.833 -62 -31.5
s-45.667 -11.5 -71 -11.5c-34 0 -65.5 6.5 -94.5 19.5s-54.167 30.833 -75.5 53.5c-21.333 23.333 -38 50 -50 80s-18 62 -18 96c0 34.667 6 67 18 97s28.667 56.333 50 79c21.333 23.333 46.5 41.666 75.5 54.999s60.5 20 94.5 20c25.333 0 49 -4 71 -12
s42.667 -18.667 62 -32c3.33301 12.667 9.5 23.167 18.5 31.5s20.167 12.5 33.5 12.5c14.667 0 27.167 -5.16699 37.5 -15.5s15.5 -23.166 15.5 -38.499z" />
    <glyph glyph-name="acircumflex" unicode="&#xe2;" horiz-adv-x="574" 
d="M248 597c-13.333 -11.333 -25.499 -18.666 -36.499 -21.999s-23.5 -5 -37.5 -5c-7.33301 0 -13.666 1.66699 -18.999 5s-8 8.33301 -8 15c0 3.33301 1.16699 7.16602 3.5 11.499s5.16602 8.5 8.49902 12.5l66 83c7.33301 9.33301 15.333 16.5 24 21.5s20 7.5 34 7.5h36
c14 0 25.333 -2.5 34 -7.5s16.667 -12.167 24 -21.5l66 -83c3.33301 -4 6.16602 -8.16699 8.49902 -12.5s3.5 -8.16602 3.5 -11.499c0 -6.66699 -2.83301 -11.667 -8.5 -15s-12.5 -5 -20.5 -5c-14 0 -26.5 1.66699 -37.5 5s-23.167 10.666 -36.5 21.999l-52 45zM394.001 146
c12 13.333 21.5 28.666 28.5 45.999s10.5 36.333 10.5 57c0 21.333 -3.5 40.666 -10.5 57.999s-16.5 32.333 -28.5 45c-12 13.333 -26.167 23.5 -42.5 30.5s-33.166 10.5 -50.499 10.5c-18 0 -35.167 -3.5 -51.5 -10.5s-30.166 -17.167 -41.499 -30.5
c-12 -12.667 -21.333 -27.667 -28 -45s-10 -36.666 -10 -57.999c0 -41.333 12.667 -75.666 38 -102.999c11.333 -12.667 25.166 -22.334 41.499 -29.001s33.5 -10 51.5 -10c17.333 0 34.166 3.33301 50.499 10s30.5 16.334 42.5 29.001zM539.001 446v-197v-196
c0 -14.667 -5.16699 -27.167 -15.5 -37.5s-22.833 -15.5 -37.5 -15.5c-13.333 0 -24.5 4.16699 -33.5 12.5s-15.167 18.5 -18.5 30.5c-19.333 -13.333 -40 -23.833 -62 -31.5s-45.667 -11.5 -71 -11.5c-34 0 -65.5 6.5 -94.5 19.5s-54.167 30.833 -75.5 53.5
c-21.333 23.333 -38 50 -50 80s-18 62 -18 96c0 34.667 6 67 18 97s28.667 56.333 50 79c21.333 23.333 46.5 41.666 75.5 54.999s60.5 20 94.5 20c25.333 0 49 -4 71 -12s42.667 -18.667 62 -32c3.33301 12.667 9.5 23.167 18.5 31.5s20.167 12.5 33.5 12.5
c14.667 0 27.167 -5.16699 37.5 -15.5s15.5 -23.166 15.5 -38.499z" />
    <glyph glyph-name="atilde" unicode="&#xe3;" horiz-adv-x="574" 
d="M188 590c-3.33301 -5.33301 -7.66699 -10 -13 -14s-12 -6 -20 -6c-10 0 -18.667 3.33301 -26 10s-11 14.334 -11 23.001c0 3.33301 0.333008 7.16602 1 11.499s1.66699 8.16602 3 11.499c10.667 29.333 23.667 51.833 39 67.5s36.333 23.5 63 23.5
c14 0 27.667 -2.16699 41 -6.5s26.166 -9 38.499 -14l34.5 -13.5c10.667 -4 20.667 -6 30 -6c11.333 0 20.333 2.5 27 7.5s13 13.167 19 24.5c3.33301 5.33301 7.83301 10 13.5 14s12.167 6 19.5 6c10 0 18.667 -3.33301 26 -10s11 -14.334 11 -23.001
c0 -3.33301 -0.333008 -7.16602 -1 -11.499s-1.66699 -8.16602 -3 -11.499c-10.667 -29.333 -23.667 -51.833 -39 -67.5s-36.333 -23.5 -63 -23.5c-14 0 -27.667 2 -41 6s-26.166 8.5 -38.499 13.5l-35 14c-11 4.33301 -20.833 6.5 -29.5 6.5
c-11.333 0 -20.333 -2.5 -27 -7.5s-13 -13.167 -19 -24.5zM393.999 146c12 13.333 21.5 28.666 28.5 45.999s10.5 36.333 10.5 57c0 21.333 -3.5 40.666 -10.5 57.999s-16.5 32.333 -28.5 45c-12 13.333 -26.167 23.5 -42.5 30.5s-33.166 10.5 -50.499 10.5
c-18 0 -35.167 -3.5 -51.5 -10.5s-30.166 -17.167 -41.499 -30.5c-12 -12.667 -21.333 -27.667 -28 -45s-10 -36.666 -10 -57.999c0 -41.333 12.667 -75.666 38 -102.999c11.333 -12.667 25.166 -22.334 41.499 -29.001s33.5 -10 51.5 -10
c17.333 0 34.166 3.33301 50.499 10s30.5 16.334 42.5 29.001zM538.999 446v-197v-196c0 -14.667 -5.16699 -27.167 -15.5 -37.5s-22.833 -15.5 -37.5 -15.5c-13.333 0 -24.5 4.16699 -33.5 12.5s-15.167 18.5 -18.5 30.5c-19.333 -13.333 -40 -23.833 -62 -31.5
s-45.667 -11.5 -71 -11.5c-34 0 -65.5 6.5 -94.5 19.5s-54.167 30.833 -75.5 53.5c-21.333 23.333 -38 50 -50 80s-18 62 -18 96c0 34.667 6 67 18 97s28.667 56.333 50 79c21.333 23.333 46.5 41.666 75.5 54.999s60.5 20 94.5 20c25.333 0 49 -4 71 -12
s42.667 -18.667 62 -32c3.33301 12.667 9.5 23.167 18.5 31.5s20.167 12.5 33.5 12.5c14.667 0 27.167 -5.16699 37.5 -15.5s15.5 -23.166 15.5 -38.499z" />
    <glyph glyph-name="adieresis" unicode="&#xe4;" horiz-adv-x="574" 
d="M337 634c0 18 6.16699 33.333 18.5 46s27.5 19 45.5 19s33.333 -6.33301 46 -19s19 -28 19 -46s-6.33301 -33.167 -19 -45.5s-28 -18.5 -46 -18.5s-33.167 6.16699 -45.5 18.5s-18.5 27.5 -18.5 45.5zM137 634c0 18 6.16699 33.333 18.5 46s27.5 19 45.5 19
s33.333 -6.33301 46 -19s19 -28 19 -46s-6.33301 -33.167 -19 -45.5s-28 -18.5 -46 -18.5s-33.167 6.16699 -45.5 18.5s-18.5 27.5 -18.5 45.5zM394 146c12 13.333 21.5 28.666 28.5 45.999s10.5 36.333 10.5 57c0 21.333 -3.5 40.666 -10.5 57.999s-16.5 32.333 -28.5 45
c-12 13.333 -26.167 23.5 -42.5 30.5s-33.166 10.5 -50.499 10.5c-18 0 -35.167 -3.5 -51.5 -10.5s-30.166 -17.167 -41.499 -30.5c-12 -12.667 -21.333 -27.667 -28 -45s-10 -36.666 -10 -57.999c0 -41.333 12.667 -75.666 38 -102.999
c11.333 -12.667 25.166 -22.334 41.499 -29.001s33.5 -10 51.5 -10c17.333 0 34.166 3.33301 50.499 10s30.5 16.334 42.5 29.001zM539 446v-197v-196c0 -14.667 -5.16699 -27.167 -15.5 -37.5s-22.833 -15.5 -37.5 -15.5c-13.333 0 -24.5 4.16699 -33.5 12.5
s-15.167 18.5 -18.5 30.5c-19.333 -13.333 -40 -23.833 -62 -31.5s-45.667 -11.5 -71 -11.5c-34 0 -65.5 6.5 -94.5 19.5s-54.167 30.833 -75.5 53.5c-21.333 23.333 -38 50 -50 80s-18 62 -18 96c0 34.667 6 67 18 97s28.667 56.333 50 79
c21.333 23.333 46.5 41.666 75.5 54.999s60.5 20 94.5 20c25.333 0 49 -4 71 -12s42.667 -18.667 62 -32c3.33301 12.667 9.5 23.167 18.5 31.5s20.167 12.5 33.5 12.5c14.667 0 27.167 -5.16699 37.5 -15.5s15.5 -23.166 15.5 -38.499z" />
    <glyph glyph-name="aring" unicode="&#xe5;" horiz-adv-x="574" 
d="M382 146c12 13.333 21.5 28.666 28.5 45.999s10.5 36.333 10.5 57c0 21.333 -3.5 40.666 -10.5 57.999s-16.5 32.333 -28.5 45c-12 13.333 -26.167 23.5 -42.5 30.5s-33.166 10.5 -50.499 10.5c-18 0 -35.167 -3.5 -51.5 -10.5s-30.166 -17.167 -41.499 -30.5
c-12 -12.667 -21.333 -27.667 -28 -45s-10 -36.666 -10 -57.999c0 -41.333 12.667 -75.666 38 -102.999c11.333 -12.667 25.166 -22.334 41.499 -29.001s33.5 -10 51.5 -10c17.333 0 34.166 3.33301 50.499 10s30.5 16.334 42.5 29.001zM527 446v-197v-196
c0 -14.667 -5.16699 -27.167 -15.5 -37.5s-22.833 -15.5 -37.5 -15.5c-13.333 0 -24.5 4.16699 -33.5 12.5s-15.167 18.5 -18.5 30.5c-19.333 -13.333 -40 -23.833 -62 -31.5s-45.667 -11.5 -71 -11.5c-34 0 -65.5 6.5 -94.5 19.5s-54.167 30.833 -75.5 53.5
c-21.333 23.333 -38 50 -50 80s-18 62 -18 96c0 34.667 6 67 18 97s28.667 56.333 50 79c21.333 23.333 46.5 41.666 75.5 54.999s60.5 20 94.5 20c25.333 0 49 -4 71 -12s42.667 -18.667 62 -32c3.33301 12.667 9.5 23.167 18.5 31.5s20.167 12.5 33.5 12.5
c14.667 0 27.167 -5.16699 37.5 -15.5s15.5 -23.166 15.5 -38.499zM290 646c13.333 0 24.666 4.5 33.999 13.5s14 20.167 14 33.5v2c0 13.333 -4.66699 24.5 -14 33.5s-20.666 13.5 -33.999 13.5s-24.666 -4.5 -33.999 -13.5s-14 -20.167 -14 -33.5v-2
c0 -13.333 4.66699 -24.5 14 -33.5s20.666 -13.5 33.999 -13.5zM290 570c-16.667 0 -32.667 3.33301 -48 10s-29 15.667 -41 27s-21.5 24.333 -28.5 39s-10.5 30.334 -10.5 47.001v2c0 16.667 3.5 32.5 10.5 47.5s16.5 28 28.5 39s25.667 19.833 41 26.5s31.333 10 48 10
s32.667 -3.33301 48 -10s29 -15.5 41 -26.5s21.5 -24 28.5 -39s10.5 -30.833 10.5 -47.5v-2c0 -16.667 -3.5 -32.334 -10.5 -47.001s-16.5 -27.667 -28.5 -39s-25.667 -20.333 -41 -27s-31.333 -10 -48 -10z" />
    <glyph glyph-name="ae" unicode="&#xe6;" horiz-adv-x="954" 
d="M705 413c-22 -1.33301 -41.166 -5.66699 -57.499 -13s-30.166 -16.333 -41.499 -27s-20.166 -22 -26.499 -34s-10.5 -23.333 -12.5 -34h289c-2.66699 10 -7.83398 21 -15.501 33s-17.834 23.167 -30.501 33.5s-27.834 19.333 -45.501 27s-37.5 12.5 -59.5 14.5z
M389.001 148.999c12 13.333 21.667 28.833 29 46.5s11 37.167 11 58.5s-3.66699 41 -11 59s-17 33.333 -29 46c-12.667 14 -27.167 24.5 -43.5 31.5s-33.5 10.5 -51.5 10.5c-18.667 0 -36.167 -3.5 -52.5 -10.5s-30.5 -17.5 -42.5 -31.5c-12 -12.667 -21.5 -28 -28.5 -46
s-10.5 -37.667 -10.5 -59s3.5 -40.833 10.5 -58.5s16.5 -33.167 28.5 -46.5c12 -12.667 26.167 -22.5 42.5 -29.5s33.833 -10.5 52.5 -10.5c18 0 35.167 3.5 51.5 10.5s30.833 16.833 43.5 29.5zM705.001 -0.000976562c-33.333 0 -64.167 6 -92.5 18s-53.5 28.333 -75.5 49
v-13c0 -15.333 -5.33301 -28.166 -16 -38.499s-23.334 -15.5 -38.001 -15.5c-13.333 0 -24.666 4.16699 -33.999 12.5s-15.666 18.833 -18.999 31.5c-19.333 -14 -40.5 -24.833 -63.5 -32.5s-47.167 -11.5 -72.5 -11.5c-34.667 0 -66.834 6.66699 -96.501 20
s-55.5 31.666 -77.5 54.999c-21.333 23.333 -38.166 50.333 -50.499 81s-18.5 63.334 -18.5 98.001c0 36 6.16699 69.167 18.5 99.5s29.166 57.166 50.499 80.499c22 23.333 47.833 41.833 77.5 55.5s61.834 20.5 96.501 20.5c25.333 0 49.5 -4 72.5 -12
s44.167 -18.667 63.5 -32c3.33301 12.667 9.66602 23.167 18.999 31.5s20.666 12.5 33.999 12.5c14.667 0 27.334 -5.33301 38.001 -16s16 -23.667 16 -39v-12c22 20.667 47.167 37 75.5 49s59.166 18 92.499 18s64.5 -5.83301 93.5 -17.5s54.5 -28 76.5 -49
s39.667 -46 53 -75s21 -60.5 23 -94.5v-6v-4.5c0 -1.66699 -0.333008 -3.16699 -1 -4.5c-1.33301 -12 -7 -21.833 -17 -29.5s-22 -11.5 -36 -11.5h-325c2.66699 -11.333 6.83398 -23.166 12.501 -35.499s13.167 -22.833 22.5 -31.5c10.667 -12 25.167 -22.333 43.5 -31
s36.5 -13.667 54.5 -15c18.667 -1.33301 37.834 0.166992 57.501 4.5s35.834 11.5 48.501 21.5c11.333 11.333 25.166 16.666 41.499 15.999s28.166 -5 35.499 -13c6.66699 -7.33301 11.167 -17.5 13.5 -30.5s-2.16699 -25.167 -13.5 -36.5
c-48.667 -44.667 -109.667 -67 -183 -67z" />
    <glyph glyph-name="ccedilla" unicode="&#xe7;" horiz-adv-x="571" 
d="M309 -131c-4 -9.33301 -8.83203 -16.499 -14.499 -21.499s-13.834 -7.5 -24.501 -7.5c-6 0 -13 1.33301 -21 4s-15.667 6 -23 10s-13.5 8.66699 -18.5 14s-7.5 10.666 -7.5 15.999c0 8 2.66699 15.667 8 23l71 103h91zM312.001 0.000976562
c-34.667 0 -67.333 6.49512 -98 19.4951s-57.5 30.833 -80.5 53.5s-41.333 49.167 -55 79.5s-20.5 62.5 -20.5 96.5c0 34.667 6.83301 67.167 20.5 97.5s32 56.833 55 79.5s49.833 40.667 80.5 54s63.334 20 98.001 20c30 0 58.667 -5 86 -15s51.666 -23.333 72.999 -40
c11.333 -9.33301 18 -21.166 20 -35.499s-1 -27.166 -9 -38.499c-10 -12 -22.167 -19 -36.5 -21s-27.166 1.66699 -38.499 11c-13.333 9.33301 -27.833 17 -43.5 23s-32.834 9 -51.501 9c-20 0 -39 -3.83301 -57 -11.5s-33.833 -18.167 -47.5 -31.5
s-24.334 -28.666 -32.001 -45.999s-11.5 -35.666 -11.5 -54.999s3.83301 -37.666 11.5 -54.999s18.334 -32.5 32.001 -45.5s29.5 -23.333 47.5 -31s37 -11.5 57 -11.5c18 0 35 3 51 9s30.667 13.667 44 23c11.333 8.66699 24.166 12 38.499 10s26.5 -9 36.5 -21
c8 -11.333 11 -24 9 -38s-8.66699 -26 -20 -36c-21.333 -15.333 -45.666 -28 -72.999 -38s-56 -15 -86 -15z" />
    <glyph glyph-name="egrave" unicode="&#xe8;" horiz-adv-x="609" 
d="M361 570c-14 0 -26.333 1.66699 -37 5s-21.667 10.666 -33 21.999l-68 64c-11.333 10 -17 20 -17 30c0 4.66699 2.16699 9.33398 6.5 14.001s10 8.83398 17 12.501s14.833 6.66699 23.5 9s17 3.5 25 3.5c20 0 36 -9.66699 48 -29l57 -88c2 -3.33301 4 -7 6 -11
s3 -7.66699 3 -11c0 -6.66699 -2.83301 -11.834 -8.5 -15.501s-13.167 -5.5 -22.5 -5.5zM302 405c-21.333 -1.33301 -40 -5.49902 -56 -12.499s-29.5 -15.833 -40.5 -26.5s-19.667 -22 -26 -34s-10.5 -23 -12.5 -33h283c-2.66699 10 -7.66699 20.833 -15 32.5
s-17.333 22.667 -30 33s-27.5 19.166 -44.5 26.499s-36.5 12 -58.5 14zM302 0.000976562c-34 0 -65.8281 6.66699 -95.4951 20s-55.5 31.333 -77.5 54s-39.333 49.167 -52 79.5s-19 62.5 -19 96.5s6.33301 66.167 19 96.5s30 56.833 52 79.5s47.833 40.667 77.5 54
s61.5 20 95.5 20c32.667 0 63.167 -5.83301 91.5 -17.5s53.166 -27.667 74.499 -48s38.666 -44.666 51.999 -72.999s21 -59.5 23 -93.5v-5v-4.5c0 -1.66699 -0.333008 -3.16699 -1 -4.5c-1.33301 -12 -6.83301 -21.667 -16.5 -29s-21.5 -11 -35.5 -11h-318
c2.66699 -11.333 6.66699 -23 12 -35s12.666 -22.333 21.999 -31c10.667 -12 25 -22.167 43 -30.5s35.667 -13.166 53 -14.499c18 -1.33301 36.667 0.166992 56 4.5s35.333 11.166 48 20.499c5.33301 5.33301 11.666 9.33301 18.999 12s14.5 4 21.5 4
s13.667 -1.16699 20 -3.5s11.166 -5.5 14.499 -9.5c6.66699 -7.33301 11.167 -17.333 13.5 -30s-2.16699 -24.334 -13.5 -35.001c-48 -44 -107.667 -66 -179 -66z" />
    <glyph glyph-name="eacute" unicode="&#xe9;" horiz-adv-x="609" 
d="M237 570c-8.66699 0 -15.833 1.83301 -21.5 5.5s-8.5 8.83398 -8.5 15.501c0 3.33301 0.833008 7 2.5 11s3.5 7.66699 5.5 11l57 88c12 19.333 28 29 48 29c8 0 16.167 -1.16699 24.5 -3.5s16 -5.33301 23 -9s12.833 -7.83398 17.5 -12.501s7 -9.33398 7 -14.001
c0 -10 -5.66699 -20 -17 -30l-67 -64c-12 -11.333 -23.333 -18.666 -34 -21.999s-23 -5 -37 -5zM302.001 405c-21.333 -1.33301 -40 -5.49902 -56 -12.499s-29.5 -15.833 -40.5 -26.5s-19.667 -22 -26 -34s-10.5 -23 -12.5 -33h283c-2.66699 10 -7.66699 20.833 -15 32.5
s-17.333 22.667 -30 33s-27.5 19.166 -44.5 26.499s-36.5 12 -58.5 14zM302.001 0.000976562c-34 0 -65.8281 6.66699 -95.4951 20s-55.5 31.333 -77.5 54s-39.333 49.167 -52 79.5s-19 62.5 -19 96.5s6.33301 66.167 19 96.5s30 56.833 52 79.5s47.833 40.667 77.5 54
s61.5 20 95.5 20c32.667 0 63.167 -5.83301 91.5 -17.5s53.166 -27.667 74.499 -48s38.666 -44.666 51.999 -72.999s21 -59.5 23 -93.5v-5v-4.5c0 -1.66699 -0.333008 -3.16699 -1 -4.5c-1.33301 -12 -6.83301 -21.667 -16.5 -29s-21.5 -11 -35.5 -11h-318
c2.66699 -11.333 6.66699 -23 12 -35s12.666 -22.333 21.999 -31c10.667 -12 25 -22.167 43 -30.5s35.667 -13.166 53 -14.499c18 -1.33301 36.667 0.166992 56 4.5s35.333 11.166 48 20.499c5.33301 5.33301 11.666 9.33301 18.999 12s14.5 4 21.5 4
s13.667 -1.16699 20 -3.5s11.166 -5.5 14.499 -9.5c6.66699 -7.33301 11.167 -17.333 13.5 -30s-2.16699 -24.334 -13.5 -35.001c-48 -44 -107.667 -66 -179 -66z" />
    <glyph glyph-name="ecircumflex" unicode="&#xea;" horiz-adv-x="609" 
d="M248 597c-13.333 -11.333 -25.499 -18.666 -36.499 -21.999s-23.5 -5 -37.5 -5c-7.33301 0 -13.666 1.66699 -18.999 5s-8 8.33301 -8 15c0 3.33301 1.16699 7.16602 3.5 11.499s5.16602 8.5 8.49902 12.5l66 83c7.33301 9.33301 15.333 16.5 24 21.5s20 7.5 34 7.5h36
c14 0 25.333 -2.5 34 -7.5s16.667 -12.167 24 -21.5l66 -83c3.33301 -4 6.16602 -8.16699 8.49902 -12.5s3.5 -8.16602 3.5 -11.499c0 -6.66699 -2.83301 -11.667 -8.5 -15s-12.5 -5 -20.5 -5c-14 0 -26.5 1.66699 -37.5 5s-23.167 10.666 -36.5 21.999l-52 45zM302.001 405
c-21.333 -1.33301 -40 -5.49902 -56 -12.499s-29.5 -15.833 -40.5 -26.5s-19.667 -22 -26 -34s-10.5 -23 -12.5 -33h283c-2.66699 10 -7.66699 20.833 -15 32.5s-17.333 22.667 -30 33s-27.5 19.166 -44.5 26.499s-36.5 12 -58.5 14zM302.001 0.000976562
c-34 0 -65.8281 6.66699 -95.4951 20s-55.5 31.333 -77.5 54s-39.333 49.167 -52 79.5s-19 62.5 -19 96.5s6.33301 66.167 19 96.5s30 56.833 52 79.5s47.833 40.667 77.5 54s61.5 20 95.5 20c32.667 0 63.167 -5.83301 91.5 -17.5s53.166 -27.667 74.499 -48
s38.666 -44.666 51.999 -72.999s21 -59.5 23 -93.5v-5v-4.5c0 -1.66699 -0.333008 -3.16699 -1 -4.5c-1.33301 -12 -6.83301 -21.667 -16.5 -29s-21.5 -11 -35.5 -11h-318c2.66699 -11.333 6.66699 -23 12 -35s12.666 -22.333 21.999 -31c10.667 -12 25 -22.167 43 -30.5
s35.667 -13.166 53 -14.499c18 -1.33301 36.667 0.166992 56 4.5s35.333 11.166 48 20.499c5.33301 5.33301 11.666 9.33301 18.999 12s14.5 4 21.5 4s13.667 -1.16699 20 -3.5s11.166 -5.5 14.499 -9.5c6.66699 -7.33301 11.167 -17.333 13.5 -30
s-2.16699 -24.334 -13.5 -35.001c-48 -44 -107.667 -66 -179 -66z" />
    <glyph glyph-name="edieresis" unicode="&#xeb;" horiz-adv-x="584" 
d="M339 634c0 18 6.16699 33.333 18.5 46s27.5 19 45.5 19s33.333 -6.33301 46 -19s19 -28 19 -46s-6.33301 -33.167 -19 -45.5s-28 -18.5 -46 -18.5s-33.167 6.16699 -45.5 18.5s-18.5 27.5 -18.5 45.5zM139 634c0 18 6.16699 33.333 18.5 46s27.5 19 45.5 19
s33.333 -6.33301 46 -19s19 -28 19 -46s-6.33301 -33.167 -19 -45.5s-28 -18.5 -46 -18.5s-33.167 6.16699 -45.5 18.5s-18.5 27.5 -18.5 45.5zM305 405c-21.333 -1.33301 -40 -5.49902 -56 -12.499s-29.5 -15.833 -40.5 -26.5s-19.667 -22 -26 -34s-10.5 -23 -12.5 -33h283
c-2.66699 10 -7.66699 20.833 -15 32.5s-17.333 22.667 -30 33s-27.5 19.166 -44.5 26.499s-36.5 12 -58.5 14zM305 0.000976562c-34 0 -65.8281 6.66699 -95.4951 20s-55.5 31.333 -77.5 54s-39.333 49.167 -52 79.5s-19 62.5 -19 96.5s6.33301 66.167 19 96.5
s30 56.833 52 79.5s47.833 40.667 77.5 54s61.5 20 95.5 20c32.667 0 63.167 -5.83301 91.5 -17.5s53.166 -27.667 74.499 -48s38.666 -44.666 51.999 -72.999s21 -59.5 23 -93.5v-5v-4.5c0 -1.66699 -0.333008 -3.16699 -1 -4.5c-1.33301 -12 -6.83301 -21.667 -16.5 -29
s-21.5 -11 -35.5 -11h-318c2.66699 -11.333 6.66699 -23 12 -35s12.666 -22.333 21.999 -31c10.667 -12 25 -22.167 43 -30.5s35.667 -13.166 53 -14.499c18 -1.33301 36.667 0.166992 56 4.5s35.333 11.166 48 20.499c5.33301 5.33301 11.666 9.33301 18.999 12
s14.5 4 21.5 4s13.667 -1.16699 20 -3.5s11.166 -5.5 14.499 -9.5c6.66699 -7.33301 11.167 -17.333 13.5 -30s-2.16699 -24.334 -13.5 -35.001c-48 -44 -107.667 -66 -179 -66z" />
    <glyph glyph-name="igrave" unicode="&#xec;" horiz-adv-x="281" 
d="M179 570c-14 0 -26.333 1.66699 -37 5s-21.667 10.666 -33 21.999l-68 64c-11.333 10 -17 20 -17 30c0 4.66699 2.16699 9.33398 6.5 14.001s10 8.83398 17 12.501s14.833 6.66699 23.5 9s17 3.5 25 3.5c20 0 36 -9.66699 48 -29l57 -88c2 -3.33301 4 -7 6 -11
s3 -7.66699 3 -11c0 -6.66699 -2.83301 -11.834 -8.5 -15.501s-13.167 -5.5 -22.5 -5.5zM118 499c15.333 0 28.166 -5.16699 38.499 -15.5s15.5 -23.5 15.5 -39.5v-390c0 -15.333 -5.16699 -28.166 -15.5 -38.499s-23.166 -15.5 -38.499 -15.5s-28.166 5.16699 -38.499 15.5
s-15.5 23.166 -15.5 38.499v390c0 16 5.16699 29.167 15.5 39.5s23.166 15.5 38.499 15.5z" />
    <glyph glyph-name="iacute" unicode="&#xed;" horiz-adv-x="281" 
d="M44 570c-8.66699 0 -15.833 1.83301 -21.5 5.5s-8.5 8.83398 -8.5 15.501c0 3.33301 0.833008 7 2.5 11s3.5 7.66699 5.5 11l57 88c12 19.333 28 29 48 29c8 0 16.167 -1.16699 24.5 -3.5s16 -5.33301 23 -9s12.833 -7.83398 17.5 -12.501s7 -9.33398 7 -14.001
c0 -10 -5.66699 -20 -17 -30l-67 -64c-12 -11.333 -23.333 -18.666 -34 -21.999s-23 -5 -37 -5zM104.001 499c15.333 0 28.166 -5.16699 38.499 -15.5s15.5 -23.5 15.5 -39.5v-390c0 -15.333 -5.16699 -28.166 -15.5 -38.499s-23.166 -15.5 -38.499 -15.5
s-28.166 5.16699 -38.499 15.5s-15.5 23.166 -15.5 38.499v390c0 16 5.16699 29.167 15.5 39.5s23.166 15.5 38.499 15.5z" />
    <glyph glyph-name="icircumflex" unicode="&#xee;" horiz-adv-x="281" 
d="M110 597c-13.333 -11.333 -25.499 -18.666 -36.499 -21.999s-23.5 -5 -37.5 -5c-7.33301 0 -13.666 1.66699 -18.999 5s-8 8.33301 -8 15c0 3.33301 1.16699 7.16602 3.5 11.499s5.16602 8.5 8.49902 12.5l66 83c7.33301 9.33301 15.333 16.5 24 21.5s20 7.5 34 7.5h36
c14 0 25.333 -2.5 34 -7.5s16.667 -12.167 24 -21.5l66 -83c3.33301 -4 6.16602 -8.16699 8.49902 -12.5s3.5 -8.16602 3.5 -11.499c0 -6.66699 -2.83301 -11.667 -8.5 -15s-12.5 -5 -20.5 -5c-14 0 -26.5 1.66699 -37.5 5s-23.167 10.666 -36.5 21.999l-52 45zM163.001 499
c15.333 0 28.166 -5.16699 38.499 -15.5s15.5 -23.5 15.5 -39.5v-390c0 -15.333 -5.16699 -28.166 -15.5 -38.499s-23.166 -15.5 -38.499 -15.5s-28.166 5.16699 -38.499 15.5s-15.5 23.166 -15.5 38.499v390c0 16 5.16699 29.167 15.5 39.5s23.166 15.5 38.499 15.5z" />
    <glyph glyph-name="idieresis" unicode="&#xef;" horiz-adv-x="281" 
d="M194 634c0 18 6.16699 33.333 18.5 46s27.5 19 45.5 19s33.333 -6.33301 46 -19s19 -28 19 -46s-6.33301 -33.167 -19 -45.5s-28 -18.5 -46 -18.5s-33.167 6.16699 -45.5 18.5s-18.5 27.5 -18.5 45.5zM-6 634c0 18 6.16699 33.333 18.5 46s27.5 19 45.5 19
s33.333 -6.33301 46 -19s19 -28 19 -46s-6.33301 -33.167 -19 -45.5s-28 -18.5 -46 -18.5s-33.167 6.16699 -45.5 18.5s-18.5 27.5 -18.5 45.5zM159 499c15.333 0 28.166 -5.16699 38.499 -15.5s15.5 -23.5 15.5 -39.5v-390c0 -15.333 -5.16699 -28.166 -15.5 -38.499
s-23.166 -15.5 -38.499 -15.5s-28.166 5.16699 -38.499 15.5s-15.5 23.166 -15.5 38.499v390c0 16 5.16699 29.167 15.5 39.5s23.166 15.5 38.499 15.5z" />
    <glyph glyph-name="eth" unicode="&#xf0;" horiz-adv-x="628" 
d="M485 247c0 20.667 -3.83496 40.168 -11.502 58.501s-18.334 34.166 -32.001 47.499s-30.167 24 -49.5 32s-40.666 12 -63.999 12s-44.166 -3.83301 -62.499 -11.5s-34.166 -18.334 -47.499 -32.001s-23.5 -29.667 -30.5 -48s-10.5 -38.166 -10.5 -59.499
c0 -20.667 3.83301 -40.334 11.5 -59.001s18.334 -35.167 32.001 -49.5s30 -25.666 49 -33.999s39.833 -12.5 62.5 -12.5c23.333 0 44.333 4.16699 63 12.5s34.667 19.5 48 33.5s23.666 30.5 30.999 49.5s11 39.167 11 60.5zM324.998 588.001l-108.999 -47.9971
c-5.33301 -2 -11 -3 -17 -3c-10.667 0 -19.667 3.66699 -27 11s-11 16.333 -11 27c0 9.33301 2.5 16.833 7.5 22.5s11.5 10.167 19.5 13.5l91 40c-6.66699 9.33301 -10 20 -10 32c0 15.333 5.33301 28.333 16 39s23.667 16 39 16c11.333 0 20.833 -2.5 28.5 -7.5
s14.167 -11.5 19.5 -19.5l11 -16l87 38c3.33301 1.33301 6.33301 2.33301 9 3s5.33398 1 8.00098 1c10.667 0 19.667 -3.83301 27 -11.5s11 -16.834 11 -27.501c0 -9.33301 -2.5 -16.833 -7.5 -22.5s-11.167 -10.167 -18.5 -13.5l-72 -31l90 -128
c14.667 -22 27.5 -42.833 38.5 -62.5s20.167 -39.334 27.5 -59.001s12.666 -39.5 15.999 -59.5s5 -41 5 -63c0 -36.667 -6.33301 -71.334 -19 -104.001s-30.834 -61.334 -54.501 -86.001s-52.667 -44.334 -87 -59.001s-73.166 -22 -116.499 -22
c-38.667 0 -74.5 6.83301 -107.5 20.5s-61.5 32.334 -85.5 56.001s-42.667 51.334 -56 83.001s-20 65.5 -20 101.5c0 35.333 6 67.5 18 96.5s28.333 54 49 75s45.167 37.167 73.5 48.5s58.833 17 91.5 17c28.667 0 53.667 -3.5 75 -10.5s42.666 -17.167 63.999 -30.5z" />
    <glyph glyph-name="ntilde" unicode="&#xf1;" 
d="M189 590c-3.33301 -5.33301 -7.66699 -10 -13 -14s-12 -6 -20 -6c-10 0 -18.667 3.33301 -26 10s-11 14.334 -11 23.001c0 3.33301 0.333008 7.16602 1 11.499s1.66699 8.16602 3 11.499c10.667 29.333 23.667 51.833 39 67.5s36.333 23.5 63 23.5
c14 0 27.667 -2.16699 41 -6.5s26.166 -9 38.499 -14l34.5 -13.5c10.667 -4 20.667 -6 30 -6c11.333 0 20.333 2.5 27 7.5s13 13.167 19 24.5c3.33301 5.33301 7.83301 10 13.5 14s12.167 6 19.5 6c10 0 18.667 -3.33301 26 -10s11 -14.334 11 -23.001
c0 -3.33301 -0.333008 -7.16602 -1 -11.499s-1.66699 -8.16602 -3 -11.499c-10.667 -29.333 -23.667 -51.833 -39 -67.5s-36.333 -23.5 -63 -23.5c-14 0 -27.667 2 -41 6s-26.166 8.5 -38.499 13.5l-35 14c-11 4.33301 -20.833 6.5 -29.5 6.5
c-11.333 0 -20.333 -2.5 -27 -7.5s-13 -13.167 -19 -24.5zM301.999 500c28.667 0 55.832 -5.5 81.499 -16.5s47.834 -26 66.501 -45s33.5 -41.167 44.5 -66.5s16.5 -52 16.5 -80v-239c0 -14.667 -5 -27.167 -15 -37.5s-22.333 -15.5 -37 -15.5
c-14 0 -26.333 5.16699 -37 15.5s-16 22.833 -16 37.5v239c0 14 -2.66699 27.167 -8 39.5s-12.833 23 -22.5 32s-20.834 16.167 -33.501 21.5s-26 8 -40 8s-27.167 -2.66699 -39.5 -8s-23 -12.5 -32 -21.5s-16 -19.667 -21 -32s-7.5 -25.5 -7.5 -39.5v-239
c0 -4 -0.666992 -7.33301 -2 -10c-2.66699 -12 -8.83398 -22.167 -18.501 -30.5s-21.167 -12.5 -34.5 -12.5c-15.333 0 -28 5.16699 -38 15.5s-15 22.833 -15 37.5v239v155c0 14.667 5 27.167 15 37.5s22.667 15.5 38 15.5c10.667 0 20.334 -2.83301 29.001 -8.5
s15.334 -13.167 20.001 -22.5c15.333 9.33301 32 16.833 50 22.5s36.667 8.5 56 8.5z" />
    <glyph glyph-name="ograve" unicode="&#xf2;" horiz-adv-x="640" 
d="M359 570c-14 0 -26.333 1.66699 -37 5s-21.667 10.666 -33 21.999l-68 64c-11.333 10 -17 20 -17 30c0 4.66699 2.16699 9.33398 6.5 14.001s10 8.83398 17 12.501s14.833 6.66699 23.5 9s17 3.5 25 3.5c20 0 36 -9.66699 48 -29l57 -88c2 -3.33301 4 -7 6 -11
s3 -7.66699 3 -11c0 -6.66699 -2.83301 -11.834 -8.5 -15.501s-13.167 -5.5 -22.5 -5.5zM203 353c-24 -28 -35.999 -62.667 -35.999 -104s12 -76.666 36 -105.999c26 -24.667 58 -37 96 -37c35.333 0 66 12.333 92 37c26 29.333 39 64.666 39 105.999s-13 76 -39 104
c-12.667 11.333 -26.834 20.5 -42.501 27.5s-32.167 10.5 -49.5 10.5c-19.333 0 -37 -3.5 -53 -10.5s-30.333 -16.167 -43 -27.5zM299.001 -3c-34.667 0 -66.334 6.83301 -95.001 20.5s-54.334 32.167 -77.001 55.5c-21.333 22 -38.166 48 -50.499 78s-18.5 62.667 -18.5 98
c0 34 6.16699 65.667 18.5 95s29.166 56 50.499 80c22.667 23.333 48.334 41.833 77.001 55.5s60.334 20.5 95.001 20.5c33.333 0 64.333 -6.83301 93 -20.5s53.334 -32.167 74.001 -55.5c22.667 -24 40 -50.667 52 -80s18 -61 18 -95c0 -35.333 -6 -68 -18 -98
s-29.333 -56 -52 -78c-20.667 -23.333 -45.334 -41.833 -74.001 -55.5s-59.667 -20.5 -93 -20.5z" />
    <glyph glyph-name="oacute" unicode="&#xf3;" horiz-adv-x="640" 
d="M232 570c-8.66699 0 -15.833 1.83301 -21.5 5.5s-8.5 8.83398 -8.5 15.501c0 3.33301 0.833008 7 2.5 11s3.5 7.66699 5.5 11l57 88c12 19.333 28 29 48 29c8 0 16.167 -1.16699 24.5 -3.5s16 -5.33301 23 -9s12.833 -7.83398 17.5 -12.501s7 -9.33398 7 -14.001
c0 -10 -5.66699 -20 -17 -30l-67 -64c-12 -11.333 -23.333 -18.666 -34 -21.999s-23 -5 -37 -5zM203.001 353c-24 -28 -35.999 -62.667 -35.999 -104s12 -76.666 36 -105.999c26 -24.667 58 -37 96 -37c35.333 0 66 12.333 92 37c26 29.333 39 64.666 39 105.999
s-13 76 -39 104c-12.667 11.333 -26.834 20.5 -42.501 27.5s-32.167 10.5 -49.5 10.5c-19.333 0 -37 -3.5 -53 -10.5s-30.333 -16.167 -43 -27.5zM299.002 -3c-34.667 0 -66.334 6.83301 -95.001 20.5s-54.334 32.167 -77.001 55.5c-21.333 22 -38.166 48 -50.499 78
s-18.5 62.667 -18.5 98c0 34 6.16699 65.667 18.5 95s29.166 56 50.499 80c22.667 23.333 48.334 41.833 77.001 55.5s60.334 20.5 95.001 20.5c33.333 0 64.333 -6.83301 93 -20.5s53.334 -32.167 74.001 -55.5c22.667 -24 40 -50.667 52 -80s18 -61 18 -95
c0 -35.333 -6 -68 -18 -98s-29.333 -56 -52 -78c-20.667 -23.333 -45.334 -41.833 -74.001 -55.5s-59.667 -20.5 -93 -20.5z" />
    <glyph glyph-name="ocircumflex" unicode="&#xf4;" horiz-adv-x="640" 
d="M244 597c-13.333 -11.333 -25.499 -18.666 -36.499 -21.999s-23.5 -5 -37.5 -5c-7.33301 0 -13.666 1.66699 -18.999 5s-8 8.33301 -8 15c0 3.33301 1.16699 7.16602 3.5 11.499s5.16602 8.5 8.49902 12.5l66 83c7.33301 9.33301 15.333 16.5 24 21.5s20 7.5 34 7.5h36
c14 0 25.333 -2.5 34 -7.5s16.667 -12.167 24 -21.5l66 -83c3.33301 -4 6.16602 -8.16699 8.49902 -12.5s3.5 -8.16602 3.5 -11.499c0 -6.66699 -2.83301 -11.667 -8.5 -15s-12.5 -5 -20.5 -5c-14 0 -26.5 1.66699 -37.5 5s-23.167 10.666 -36.5 21.999l-52 45zM203.001 353
c-24 -28 -35.999 -62.667 -35.999 -104s12 -76.666 36 -105.999c26 -24.667 58 -37 96 -37c35.333 0 66 12.333 92 37c26 29.333 39 64.666 39 105.999s-13 76 -39 104c-12.667 11.333 -26.834 20.5 -42.501 27.5s-32.167 10.5 -49.5 10.5c-19.333 0 -37 -3.5 -53 -10.5
s-30.333 -16.167 -43 -27.5zM299.002 -3c-34.667 0 -66.334 6.83301 -95.001 20.5s-54.334 32.167 -77.001 55.5c-21.333 22 -38.166 48 -50.499 78s-18.5 62.667 -18.5 98c0 34 6.16699 65.667 18.5 95s29.166 56 50.499 80c22.667 23.333 48.334 41.833 77.001 55.5
s60.334 20.5 95.001 20.5c33.333 0 64.333 -6.83301 93 -20.5s53.334 -32.167 74.001 -55.5c22.667 -24 40 -50.667 52 -80s18 -61 18 -95c0 -35.333 -6 -68 -18 -98s-29.333 -56 -52 -78c-20.667 -23.333 -45.334 -41.833 -74.001 -55.5s-59.667 -20.5 -93 -20.5z" />
    <glyph glyph-name="otilde" unicode="&#xf5;" horiz-adv-x="640" 
d="M184 590c-3.33301 -5.33301 -7.66699 -10 -13 -14s-12 -6 -20 -6c-10 0 -18.667 3.33301 -26 10s-11 14.334 -11 23.001c0 3.33301 0.333008 7.16602 1 11.499s1.66699 8.16602 3 11.499c10.667 29.333 23.667 51.833 39 67.5s36.333 23.5 63 23.5
c14 0 27.667 -2.16699 41 -6.5s26.166 -9 38.499 -14l34.5 -13.5c10.667 -4 20.667 -6 30 -6c11.333 0 20.333 2.5 27 7.5s13 13.167 19 24.5c3.33301 5.33301 7.83301 10 13.5 14s12.167 6 19.5 6c10 0 18.667 -3.33301 26 -10s11 -14.334 11 -23.001
c0 -3.33301 -0.333008 -7.16602 -1 -11.499s-1.66699 -8.16602 -3 -11.499c-10.667 -29.333 -23.667 -51.833 -39 -67.5s-36.333 -23.5 -63 -23.5c-14 0 -27.667 2 -41 6s-26.166 8.5 -38.499 13.5l-35 14c-11 4.33301 -20.833 6.5 -29.5 6.5
c-11.333 0 -20.333 -2.5 -27 -7.5s-13 -13.167 -19 -24.5zM202.999 353c-24 -28 -35.999 -62.667 -35.999 -104s12 -76.666 36 -105.999c26 -24.667 58 -37 96 -37c35.333 0 66 12.333 92 37c26 29.333 39 64.666 39 105.999s-13 76 -39 104
c-12.667 11.333 -26.834 20.5 -42.501 27.5s-32.167 10.5 -49.5 10.5c-19.333 0 -37 -3.5 -53 -10.5s-30.333 -16.167 -43 -27.5zM299 -3c-34.667 0 -66.334 6.83301 -95.001 20.5s-54.334 32.167 -77.001 55.5c-21.333 22 -38.166 48 -50.499 78s-18.5 62.667 -18.5 98
c0 34 6.16699 65.667 18.5 95s29.166 56 50.499 80c22.667 23.333 48.334 41.833 77.001 55.5s60.334 20.5 95.001 20.5c33.333 0 64.333 -6.83301 93 -20.5s53.334 -32.167 74.001 -55.5c22.667 -24 40 -50.667 52 -80s18 -61 18 -95c0 -35.333 -6 -68 -18 -98
s-29.333 -56 -52 -78c-20.667 -23.333 -45.334 -41.833 -74.001 -55.5s-59.667 -20.5 -93 -20.5z" />
    <glyph glyph-name="odieresis" unicode="&#xf6;" horiz-adv-x="640" 
d="M333 634c0 18 6.16699 33.333 18.5 46s27.5 19 45.5 19s33.333 -6.33301 46 -19s19 -28 19 -46s-6.33301 -33.167 -19 -45.5s-28 -18.5 -46 -18.5s-33.167 6.16699 -45.5 18.5s-18.5 27.5 -18.5 45.5zM133 634c0 18 6.16699 33.333 18.5 46s27.5 19 45.5 19
s33.333 -6.33301 46 -19s19 -28 19 -46s-6.33301 -33.167 -19 -45.5s-28 -18.5 -46 -18.5s-33.167 6.16699 -45.5 18.5s-18.5 27.5 -18.5 45.5zM203 353c-24 -28 -35.999 -62.667 -35.999 -104s12 -76.666 36 -105.999c26 -24.667 58 -37 96 -37c35.333 0 66 12.333 92 37
c26 29.333 39 64.666 39 105.999s-13 76 -39 104c-12.667 11.333 -26.834 20.5 -42.501 27.5s-32.167 10.5 -49.5 10.5c-19.333 0 -37 -3.5 -53 -10.5s-30.333 -16.167 -43 -27.5zM299.001 -3c-34.667 0 -66.334 6.83301 -95.001 20.5s-54.334 32.167 -77.001 55.5
c-21.333 22 -38.166 48 -50.499 78s-18.5 62.667 -18.5 98c0 34 6.16699 65.667 18.5 95s29.166 56 50.499 80c22.667 23.333 48.334 41.833 77.001 55.5s60.334 20.5 95.001 20.5c33.333 0 64.333 -6.83301 93 -20.5s53.334 -32.167 74.001 -55.5
c22.667 -24 40 -50.667 52 -80s18 -61 18 -95c0 -35.333 -6 -68 -18 -98s-29.333 -56 -52 -78c-20.667 -23.333 -45.334 -41.833 -74.001 -55.5s-59.667 -20.5 -93 -20.5z" />
    <glyph glyph-name="divide" unicode="&#xf7;" horiz-adv-x="620" 
d="M318 213c19.333 0 35.666 -6.5 48.999 -19.5s20 -28.833 20 -47.5v-5c0 -18.667 -6.66699 -34.334 -20 -47.001s-29.666 -19 -48.999 -19s-35.666 6.33301 -48.999 19s-20 28.334 -20 47.001v5c0 18.667 6.66699 34.5 20 47.5s29.666 19.5 48.999 19.5zM318 629
c19.333 0 35.666 -6.5 48.999 -19.5s20 -28.5 20 -46.5v-5c0 -18.667 -6.66699 -34.5 -20 -47.5s-29.666 -19.5 -48.999 -19.5s-35.666 6.5 -48.999 19.5s-20 28.833 -20 47.5v5c0 18 6.66699 33.5 20 46.5s29.666 19.5 48.999 19.5zM116 300
c-14.667 0 -27 5.16699 -37 15.5s-15 22.5 -15 36.5s5 26.167 15 36.5s22.333 15.5 37 15.5h404c14.667 0 27 -5.16699 37 -15.5s15 -22.5 15 -36.5s-5 -26.167 -15 -36.5s-22.333 -15.5 -37 -15.5h-404z" />
    <glyph glyph-name="oslash" unicode="&#xf8;" horiz-adv-x="640" 
d="M475 257c0 22 -4 42.668 -12 62.001l-204 -182c11.333 -8.66699 23.833 -15.334 37.5 -20.001s28.167 -7 43.5 -7c18 0 35 3.5 51 10.5s30.333 16.833 43 29.5c12.667 14 22.667 30 30 48s11 37.667 11 59zM205 257.001c0 -21.333 3.66699 -41.333 11 -60l202 179
c-23.333 18 -49.333 27 -78 27c-18.667 0 -36.167 -3.66699 -52.5 -11s-30.833 -17.333 -43.5 -30c-12 -13.333 -21.5 -28.833 -28.5 -46.5s-10.5 -37.167 -10.5 -58.5zM604 494.001c8.66699 -6 11.9961 -14.5029 9.99609 -25.5029s-8 -21.167 -18 -30.5l-50 -45
c24.667 -41.333 37 -86.666 37 -135.999c0 -72.667 -23.667 -132.667 -71 -180c-21.333 -24 -46.833 -42.833 -76.5 -56.5s-61.5 -20.5 -95.5 -20.5c-31.333 0 -60.666 5.66699 -87.999 17s-52 27 -74 47l-34 -30c-9.33301 -7.33301 -19 -12.666 -29 -15.999
s-18.667 -4.33301 -26 -3c-6 1.33301 -10.667 3 -14 5c-8.66699 6 -12.167 14.5 -10.5 25.5s7.83398 21.833 18.501 32.5l49 43c-24.667 40 -37 85.333 -37 136c0 34.667 6.16699 67.167 18.5 97.5s29.5 57.5 51.5 81.5c22.667 24 48.834 42.833 78.501 56.5
s61.834 20.5 96.501 20.5c31.333 0 60.5 -5.66699 87.5 -17s51.167 -27 72.5 -47l34 31c11.333 9.33301 23.833 15.333 37.5 18s24.5 1.33398 32.5 -3.99902z" />
    <glyph glyph-name="ugrave" unicode="&#xf9;" 
d="M355 570c-14 0 -26.333 1.66699 -37 5s-21.667 10.666 -33 21.999l-68 64c-11.333 10 -17 20 -17 30c0 4.66699 2.16699 9.33398 6.5 14.001s10 8.83398 17 12.501s14.833 6.66699 23.5 9s17 3.5 25 3.5c20 0 36 -9.66699 48 -29l57 -88c2 -3.33301 4 -7 6 -11
s3 -7.66699 3 -11c0 -6.66699 -2.83301 -11.834 -8.5 -15.501s-13.167 -5.5 -22.5 -5.5zM502 208c0 -28.667 -5.66699 -55.5 -17 -80.5s-26.5 -47 -45.5 -66s-41.333 -34 -67 -45s-52.834 -16.5 -81.501 -16.5s-55.5 5.5 -80.5 16.5s-47 26 -66 45s-34 41 -45 66
s-16.5 51.833 -16.5 80.5v239c0 14 5.16699 26.333 15.5 37s22.833 16 37.5 16c15.333 0 28 -5.33301 38 -16s15 -23 15 -37v-239c0 -28.667 9.83301 -52.834 29.5 -72.501s43.834 -29.5 72.501 -29.5c29.333 0 54 9.83301 74 29.5s30.333 43.834 31 72.501v239
c0 14 4.83301 26.333 14.5 37s22.167 16 37.5 16c14 0 26.5 -5.33301 37.5 -16s16.5 -23 16.5 -37v-239z" />
    <glyph glyph-name="uacute" unicode="&#xfa;" 
d="M228 570c-8.66699 0 -15.833 1.83301 -21.5 5.5s-8.5 8.83398 -8.5 15.501c0 3.33301 0.833008 7 2.5 11s3.5 7.66699 5.5 11l57 88c12 19.333 28 29 48 29c8 0 16.167 -1.16699 24.5 -3.5s16 -5.33301 23 -9s12.833 -7.83398 17.5 -12.501s7 -9.33398 7 -14.001
c0 -10 -5.66699 -20 -17 -30l-67 -64c-12 -11.333 -23.333 -18.666 -34 -21.999s-23 -5 -37 -5zM502.001 208c0 -28.667 -5.66699 -55.5 -17 -80.5s-26.5 -47 -45.5 -66s-41.333 -34 -67 -45s-52.834 -16.5 -81.501 -16.5s-55.5 5.5 -80.5 16.5s-47 26 -66 45s-34 41 -45 66
s-16.5 51.833 -16.5 80.5v239c0 14 5.16699 26.333 15.5 37s22.833 16 37.5 16c15.333 0 28 -5.33301 38 -16s15 -23 15 -37v-239c0 -28.667 9.83301 -52.834 29.5 -72.501s43.834 -29.5 72.501 -29.5c29.333 0 54 9.83301 74 29.5s30.333 43.834 31 72.501v239
c0 14 4.83301 26.333 14.5 37s22.167 16 37.5 16c14 0 26.5 -5.33301 37.5 -16s16.5 -23 16.5 -37v-239z" />
    <glyph glyph-name="ucircumflex" unicode="&#xfb;" 
d="M240 597c-13.333 -11.333 -25.499 -18.666 -36.499 -21.999s-23.5 -5 -37.5 -5c-7.33301 0 -13.666 1.66699 -18.999 5s-8 8.33301 -8 15c0 3.33301 1.16699 7.16602 3.5 11.499s5.16602 8.5 8.49902 12.5l66 83c7.33301 9.33301 15.333 16.5 24 21.5s20 7.5 34 7.5h36
c14 0 25.333 -2.5 34 -7.5s16.667 -12.167 24 -21.5l66 -83c3.33301 -4 6.16602 -8.16699 8.49902 -12.5s3.5 -8.16602 3.5 -11.499c0 -6.66699 -2.83301 -11.667 -8.5 -15s-12.5 -5 -20.5 -5c-14 0 -26.5 1.66699 -37.5 5s-23.167 10.666 -36.5 21.999l-52 45zM502.001 208
c0 -28.667 -5.66699 -55.5 -17 -80.5s-26.5 -47 -45.5 -66s-41.333 -34 -67 -45s-52.834 -16.5 -81.501 -16.5s-55.5 5.5 -80.5 16.5s-47 26 -66 45s-34 41 -45 66s-16.5 51.833 -16.5 80.5v239c0 14 5.16699 26.333 15.5 37s22.833 16 37.5 16c15.333 0 28 -5.33301 38 -16
s15 -23 15 -37v-239c0 -28.667 9.83301 -52.834 29.5 -72.501s43.834 -29.5 72.501 -29.5c29.333 0 54 9.83301 74 29.5s30.333 43.834 31 72.501v239c0 14 4.83301 26.333 14.5 37s22.167 16 37.5 16c14 0 26.5 -5.33301 37.5 -16s16.5 -23 16.5 -37v-239z" />
    <glyph glyph-name="udieresis" unicode="&#xfc;" 
d="M328 633c0 18 6.16699 33.333 18.5 46s27.5 19 45.5 19s33.333 -6.33301 46 -19s19 -28 19 -46s-6.33301 -33.167 -19 -45.5s-28 -18.5 -46 -18.5s-33.167 6.16699 -45.5 18.5s-18.5 27.5 -18.5 45.5zM128 633c0 18 6.16699 33.333 18.5 46s27.5 19 45.5 19
s33.333 -6.33301 46 -19s19 -28 19 -46s-6.33301 -33.167 -19 -45.5s-28 -18.5 -46 -18.5s-33.167 6.16699 -45.5 18.5s-18.5 27.5 -18.5 45.5zM502 208c0 -28.667 -5.66699 -55.5 -17 -80.5s-26.5 -47 -45.5 -66s-41.333 -34 -67 -45s-52.834 -16.5 -81.501 -16.5
s-55.5 5.5 -80.5 16.5s-47 26 -66 45s-34 41 -45 66s-16.5 51.833 -16.5 80.5v239c0 14 5.16699 26.333 15.5 37s22.833 16 37.5 16c15.333 0 28 -5.33301 38 -16s15 -23 15 -37v-239c0 -28.667 9.83301 -52.834 29.5 -72.501s43.834 -29.5 72.501 -29.5
c29.333 0 54 9.83301 74 29.5s30.333 43.834 31 72.501v239c0 14 4.83301 26.333 14.5 37s22.167 16 37.5 16c14 0 26.5 -5.33301 37.5 -16s16.5 -23 16.5 -37v-239z" />
    <glyph glyph-name="yacute" unicode="&#xfd;" horiz-adv-x="588" 
d="M218 570c-8.66699 0 -15.833 1.83301 -21.5 5.5s-8.5 8.83398 -8.5 15.501c0 3.33301 0.833008 7 2.5 11s3.5 7.66699 5.5 11l57 88c12 19.333 28 29 48 29c8 0 16.167 -1.16699 24.5 -3.5s16 -5.33301 23 -9s12.833 -7.83398 17.5 -12.501s7 -9.33398 7 -14.001
c0 -10 -5.66699 -20 -17 -30l-67 -64c-12 -11.333 -23.333 -18.666 -34 -21.999s-23 -5 -37 -5zM416.001 500c14.667 0 27.332 -5.00293 37.999 -15.0029s16 -22.667 16 -38v-236v-142c0 -33.333 -6.16699 -64.666 -18.5 -93.999s-29.333 -54.666 -51 -75.999
s-47 -38.166 -76 -50.499s-60.167 -18.5 -93.5 -18.5c-18 0 -35.833 2.33301 -53.5 7s-34.167 10.667 -49.5 18c-14 6 -23.333 15.833 -28 29.5s-4 27.5 2 41.5c6.66699 12 17.167 20.333 31.5 25s27.5 3.66699 39.5 -3c20 -9.33301 39.333 -14 58 -14
c30 0.666992 56.333 9.5 79 26.5s38 38.5 46 64.5c-14 -8 -29.167 -14 -45.5 -18s-32.833 -6 -49.5 -6c-28.667 0 -55.667 5.5 -81 16.5s-47.5 26 -66.5 45s-34 41.333 -45 67s-16.5 52.834 -16.5 81.501v236c0 15.333 5.33301 28 16 38s22.667 15 36 15
c15.333 0 28 -5 38 -15s15 -22.667 15 -38v-236c0 -14.667 2.66699 -28.167 8 -40.5s12.833 -23 22.5 -32s20.834 -16.167 33.501 -21.5s26 -8 40 -8c28.667 0 53 9.66699 73 29s30 43.666 30 72.999v236c0 15.333 4.83301 28 14.5 38s22.167 15 37.5 15z" />
    <glyph glyph-name="thorn" unicode="&#xfe;" horiz-adv-x="660" 
 />
    <glyph glyph-name="ydieresis" unicode="&#xff;" horiz-adv-x="588" 
d="M296 634c0 18 6.16699 33.333 18.5 46s27.5 19 45.5 19s33.333 -6.33301 46 -19s19 -28 19 -46s-6.33301 -33.167 -19 -45.5s-28 -18.5 -46 -18.5s-33.167 6.16699 -45.5 18.5s-18.5 27.5 -18.5 45.5zM96 634c0 18 6.16699 33.333 18.5 46s27.5 19 45.5 19
s33.333 -6.33301 46 -19s19 -28 19 -46s-6.33301 -33.167 -19 -45.5s-28 -18.5 -46 -18.5s-33.167 6.16699 -45.5 18.5s-18.5 27.5 -18.5 45.5zM416 500c14.667 0 27.332 -5.00293 37.999 -15.0029s16 -22.667 16 -38v-236v-142c0 -33.333 -6.16699 -64.666 -18.5 -93.999
s-29.333 -54.666 -51 -75.999s-47 -38.166 -76 -50.499s-60.167 -18.5 -93.5 -18.5c-18 0 -35.833 2.33301 -53.5 7s-34.167 10.667 -49.5 18c-14 6 -23.333 15.833 -28 29.5s-4 27.5 2 41.5c6.66699 12 17.167 20.333 31.5 25s27.5 3.66699 39.5 -3
c20 -9.33301 39.333 -14 58 -14c30 0.666992 56.333 9.5 79 26.5s38 38.5 46 64.5c-14 -8 -29.167 -14 -45.5 -18s-32.833 -6 -49.5 -6c-28.667 0 -55.667 5.5 -81 16.5s-47.5 26 -66.5 45s-34 41.333 -45 67s-16.5 52.834 -16.5 81.501v236c0 15.333 5.33301 28 16 38
s22.667 15 36 15c15.333 0 28 -5 38 -15s15 -22.667 15 -38v-236c0 -14.667 2.66699 -28.167 8 -40.5s12.833 -23 22.5 -32s20.834 -16.167 33.501 -21.5s26 -8 40 -8c28.667 0 53 9.66699 73 29s30 43.666 30 72.999v236c0 15.333 4.83301 28 14.5 38s22.167 15 37.5 15z
" />
    <glyph glyph-name="OE" unicode="&#x152;" horiz-adv-x="1443" 
d="M575 186c20.667 21.333 37.167 47.166 49.5 77.499s18.5 62.5 18.5 96.5s-6.16699 66.167 -18.5 96.5s-28.833 56.5 -49.5 78.5c-21.333 22.667 -45.5 40.167 -72.5 52.5s-55.5 18.5 -85.5 18.5c-32 0 -61.667 -6.16699 -89 -18.5s-51.666 -29.833 -72.999 -52.5
c-21.333 -22 -38 -48.167 -50 -78.5s-18 -62.5 -18 -96.5s6 -66.167 18 -96.5s28.667 -56.166 50 -77.499c21.333 -22.667 45.666 -40.334 72.999 -53.001s57 -19 89 -19c30 0 58.5 6.33301 85.5 19s51.167 30.334 72.5 53.001zM715 0
c-15.333 0 -28.334 5.33496 -39.001 16.002s-16 23.667 -16 39v56c-1.33301 -0.666992 -2.16602 -1.33398 -2.49902 -2.00098s-0.833008 -1.33398 -1.5 -2.00098c-30 -32.667 -65.833 -58.667 -107.5 -78s-85.5 -29 -131.5 -29c-48 0 -93.167 9.66699 -135.5 29
s-78.833 45.333 -109.5 78c-31.333 32.667 -55.666 70.5 -72.999 113.5s-26 89.5 -26 139.5s8.66699 96.333 26 139s41.666 80.667 72.999 114c30.667 33.333 67.167 59.5 109.5 78.5s87.5 28.5 135.5 28.5c46 0 89.833 -9.5 131.5 -28.5s77.5 -45.167 107.5 -78.5
c0.666992 -1.33301 2 -3 4 -5v37c0 15.333 5.33301 28.333 16 39s23.667 16 39 16h327c14.667 0 27.5 -5.33301 38.5 -16s16.5 -23.667 16.5 -39s-5.5 -28.5 -16.5 -39.5s-23.833 -16.5 -38.5 -16.5h-271v-183h233c15.333 0 28.333 -5.5 39 -16.5s16 -23.833 16 -38.5
c0 -15.333 -5.33301 -28.5 -16 -39.5s-23.667 -16.5 -39 -16.5h-233v-184h271c14.667 0 27.5 -5.5 38.5 -16.5s16.5 -24.167 16.5 -39.5s-5.5 -28.333 -16.5 -39s-23.833 -16 -38.5 -16h-324h-2v1z" />
    <glyph glyph-name="oe" unicode="&#x153;" horiz-adv-x="1055" 
d="M716 413c-22 -1.33301 -41.166 -5.66699 -57.499 -13s-30.166 -16.333 -41.499 -27s-20.166 -22 -26.499 -34s-10.5 -23.333 -12.5 -34h289c-2.66699 10 -7.83398 21 -15.501 33s-17.834 23.167 -30.501 33.5s-27.834 19.333 -45.501 27s-37.5 12.5 -59.5 14.5z
M207.001 358.999c-12 -13.333 -21.5 -28.833 -28.5 -46.5s-10.5 -37.167 -10.5 -58.5s3.5 -41 10.5 -59s16.5 -34 28.5 -48c12.667 -12.667 27.167 -22.5 43.5 -29.5s33.833 -10.5 52.5 -10.5c18 0 35 3.5 51 10.5s30.333 16.833 43 29.5c12.667 14 22.667 30 30 48
s11 37.667 11 59s-3.66699 40.833 -11 58.5s-17.333 33.167 -30 46.5c-12.667 12.667 -27 22.667 -43 30s-33 11 -51 11c-18.667 0 -36.167 -3.66699 -52.5 -11s-30.833 -17.333 -43.5 -30zM716.001 -0.000976562c-44.667 0 -85 10.501 -121 31.501s-65 48.833 -87 83.5
c-10.667 -16 -21.667 -29.667 -33 -41c-21.333 -24 -46.833 -42.833 -76.5 -56.5s-61.5 -20.5 -95.5 -20.5c-34.667 0 -66.834 6.83301 -96.501 20.5s-55.834 32.5 -78.501 56.5c-22 23.333 -39.167 50.166 -51.5 80.499s-18.5 63.5 -18.5 99.5
c0 34.667 6.16699 67.167 18.5 97.5s29.5 57.5 51.5 81.5c22.667 24 48.834 42.833 78.501 56.5s61.834 20.5 96.501 20.5c34 0 65.833 -6.83301 95.5 -20.5s55.167 -32.5 76.5 -56.5c12 -13.333 22.333 -27 31 -41c22 36 51.167 64.667 87.5 86s77.166 32 122.499 32
c33.333 0 64.5 -5.83301 93.5 -17.5s54.5 -28 76.5 -49s39.667 -46 53 -75s21 -60.5 23 -94.5v-6v-4.5c0 -1.66699 -0.333008 -3.16699 -1 -4.5c-1.33301 -12 -7 -21.833 -17 -29.5s-22 -11.5 -36 -11.5h-325c2.66699 -11.333 6.83398 -23.166 12.501 -35.499
s13.167 -22.833 22.5 -31.5c10.667 -12 25.167 -22.333 43.5 -31s36.5 -13.667 54.5 -15c18.667 -1.33301 37.834 0.166992 57.501 4.5s35.834 11.5 48.501 21.5c11.333 11.333 25.166 16.666 41.499 15.999s28.166 -5 35.499 -13c6.66699 -7.33301 11.167 -17.5 13.5 -30.5
s-2.16699 -25.167 -13.5 -36.5c-48.667 -44.667 -109.667 -67 -183 -67z" />
    <glyph glyph-name="Scaron" unicode="&#x160;" horiz-adv-x="640" 
d="M90 101c-11.333 9.33301 -17.6641 21 -18.9971 35s2.33398 26.667 11.001 38c9.33301 11.333 21 17.666 35 18.999s26.667 -2.66699 38 -12c10.667 -9.33301 23.334 -18.5 38.001 -27.5s30.334 -17.333 47.001 -25s34 -13.667 52 -18s36 -6.5 54 -6.5
c25.333 0 48.666 3.33301 69.999 10s39.666 15.667 54.999 27c28.667 21.333 43 45.333 43 72c0 11.333 -3 22 -9 32c-3.33301 5.33301 -7.33301 10.333 -12 15s-10.667 9.66699 -18 15c-14.667 9.33301 -33.667 18.166 -57 26.499s-50 15.166 -80 20.499h-2
c-23.333 4.66699 -45.833 10 -67.5 16s-42.167 13.667 -61.5 23s-36.833 20.333 -52.5 33s-29.167 27.667 -40.5 45c-15.333 24.667 -23 52 -23 82s7.5 57.5 22.5 82.5s34.167 46.167 57.5 63.5s49.833 30.5 79.5 39.5s60.834 13.5 93.501 13.5c24 0 46.5 -2.66699 67.5 -8
s40.5 -12 58.5 -20s34.667 -16.667 50 -26l42 -26c11.333 -8 18.5 -19 21.5 -33s0.5 -26.667 -7.5 -38c-7.33301 -12 -18 -19.5 -32 -22.5s-27 -0.5 -39 7.5c-25.333 17.333 -50.833 32.333 -76.5 45s-53.834 19 -84.501 19c-22.667 0 -43.667 -3.16699 -63 -9.5
s-35.666 -14.5 -48.999 -24.5s-23 -20.333 -29 -31s-9 -21.334 -9 -32.001c0 -11.333 2.33301 -20.666 7 -27.999c5.33301 -8.66699 14.333 -17.334 27 -26.001c13.333 -9.33301 30.666 -17.666 51.999 -24.999s45.666 -13.666 72.999 -18.999h2
c25.333 -5.33301 49.666 -11.333 72.999 -18s45 -14.667 65 -24c20.667 -10 39.667 -21.667 57 -35s31.666 -29.333 42.999 -48c16 -25.333 24 -53.666 24 -84.999c0 -32 -8 -61.333 -24 -88s-36.667 -49 -62 -67c-24.667 -18 -52.667 -32 -84 -42s-65 -15 -101 -15
c-27.333 0 -53.333 3.16699 -78 9.5s-47.834 14.333 -69.501 24s-41.667 20.334 -60 32.001s-34.5 23.167 -48.5 34.5zM344.002 866l51.999 45c13.333 11.333 25.5 18.666 36.5 21.999s23.5 5 37.5 5c8 0 14.833 -1.66699 20.5 -5s8.5 -8.33301 8.5 -15
c0 -3.33301 -1.16699 -7.16602 -3.5 -11.499s-5.16602 -8.5 -8.49902 -12.5l-66 -83c-7.33301 -9.33301 -15.333 -16.5 -24 -21.5s-20 -7.5 -34 -7.5h-36c-14 0 -25.333 2.5 -34 7.5s-16.667 12.167 -24 21.5l-66 83c-3.33301 4 -6.16602 8.16699 -8.49902 12.5
s-3.5 8.16602 -3.5 11.499c0 6.66699 2.66699 11.667 8 15s11.666 5 18.999 5c14 0 26.5 -1.66699 37.5 -5s23.167 -10.666 36.5 -21.999z" />
    <glyph glyph-name="scaron" unicode="&#x161;" horiz-adv-x="497" 
d="M76 69c-11.333 9.33301 -17.6689 21.1641 -19.002 35.4971s2.66699 27.166 12 38.499c9.33301 12 21.333 18.667 36 20s27.667 -2.66699 39 -12c12.667 -11.333 29.334 -21.666 50.001 -30.999s40.667 -13.666 60 -12.999c13.333 0 26 1.83301 38 5.5s22 8.16699 30 13.5
c7.33301 6 12.166 11.5 14.499 16.5s3.5 9.5 3.5 13.5c0 3.33301 -1 6.66602 -3 9.99902c-1.33301 3.33301 -5.66602 7.33301 -12.999 12c-7.33301 5.33301 -18 10.5 -32 15.5s-30 9.16699 -48 12.5h-1c-15.333 3.33301 -30.333 7 -45 11s-28.667 9 -42 15
c-13.333 6.66699 -25.833 14.667 -37.5 24s-22.167 20.666 -31.5 33.999c-11.333 18.667 -17 39.667 -17 63s5.66699 44.333 17 63s25.333 34.334 42 47.001c36 24.667 77 37 123 37c17.333 0 33.333 -1.83301 48 -5.5s28.334 -8.33398 41.001 -14.001s24 -11.667 34 -18
l27 -17.5c12 -8 19.5 -19.167 22.5 -33.5s0.833008 -27.833 -6.5 -40.5c-8 -12 -19.167 -19.5 -33.5 -22.5s-27.833 -0.166992 -40.5 8.5c-16 10.667 -31.333 19.5 -46 26.5s-30 10.5 -46 10.5c-12.667 0 -24.167 -1.66699 -34.5 -5s-18.833 -7.66602 -25.5 -12.999
c-6.66699 -4.66699 -11 -9 -13 -13s-3 -7.33301 -3 -10c0 -3.33301 0.666992 -6 2 -8c2 -3.33301 5.66699 -6.66602 11 -9.99902c6.66699 -4.66699 16.167 -9 28.5 -13s27.166 -7.66699 44.499 -11l1 -1h1c16.667 -3.33301 32.667 -7.16602 48 -11.499
s30.333 -10.166 45 -17.499c13.333 -6 26.333 -13.833 39 -23.5s23.334 -21.5 32.001 -35.5c12.667 -21.333 19 -43.333 19 -66c0 -24.667 -6 -46.834 -18 -66.501s-27 -36.167 -45 -49.5c-18 -12.667 -38 -22.5 -60 -29.5s-45.333 -10.5 -70 -10.5
c-39.333 0.666992 -73.833 8.33398 -103.5 23.001s-54.5 30 -74.5 46zM269.997 673.998l51.999 45c13.333 11.333 25.5 18.666 36.5 21.999s23.5 5 37.5 5c8 0 14.833 -1.66699 20.5 -5s8.5 -8.33301 8.5 -15c0 -3.33301 -1.16699 -7.16602 -3.5 -11.499
s-5.16602 -8.5 -8.49902 -12.5l-66 -83c-7.33301 -9.33301 -15.333 -16.5 -24 -21.5s-20 -7.5 -34 -7.5h-36c-14 0 -25.333 2.5 -34 7.5s-16.667 12.167 -24 21.5l-66 83c-3.33301 4 -6.16602 8.16699 -8.49902 12.5s-3.5 8.16602 -3.5 11.499
c0 6.66699 2.66699 11.667 8 15s11.666 5 18.999 5c14 0 26.5 -1.66699 37.5 -5s23.167 -10.666 36.5 -21.999z" />
    <glyph glyph-name="Ydieresis" unicode="&#x178;" horiz-adv-x="716" 
d="M366 836c0 18 6.16699 33.333 18.5 46s27.5 19 45.5 19s33.333 -6.33301 46 -19s19 -28 19 -46s-6.33301 -33.167 -19 -45.5s-28 -18.5 -46 -18.5s-33.167 6.16699 -45.5 18.5s-18.5 27.5 -18.5 45.5zM166 836c0 18 6.16699 33.333 18.5 46s27.5 19 45.5 19
s33.333 -6.33301 46 -19s19 -28 19 -46s-6.33301 -33.167 -19 -45.5s-28 -18.5 -46 -18.5s-33.167 6.16699 -45.5 18.5s-18.5 27.5 -18.5 45.5zM579 682c12 -9.33301 19.166 -21.333 21.499 -36s-0.833984 -28 -9.50098 -40l-205 -281v-270
c0 -15.333 -5.33301 -28.333 -16 -39s-23.667 -16 -39 -16c-14.667 -0 -27.5 5.33301 -38.5 16s-16.5 23.667 -16.5 39v270l-203 281c-9.33301 12 -13 25.333 -11 40s9.33301 26.667 22 36s26.334 12.833 41.001 10.5s26.334 -9.83301 35.001 -22.5l171 -234l171 234
c9.33301 12.667 21.5 20.167 36.5 22.5s28.5 -1.16699 40.5 -10.5z" />
    <glyph glyph-name="florin" unicode="&#x192;" horiz-adv-x="506" 
d="M121 -7c-20.667 0 -36.667 4.66895 -48 14.002s-17 21.666 -17 36.999c0 13.333 4.5 24.666 13.5 33.999s21.167 14.666 36.5 15.999c18 1.33301 32 7.33301 42 18s17 27 21 49l35 195h-34c-14 0 -26 4.83301 -36 14.5s-15 21.5 -15 35.5s5 26 15 36s22 15 36 15h51
l18 94c9.33301 50.667 27.333 89.167 54 115.5s67 39.5 121 39.5c17.333 0 34.666 -1 51.999 -3c12 -1.33301 22.5 -6.66602 31.5 -15.999s13.5 -21 13.5 -35s-4.83301 -25.833 -14.5 -35.5s-21.5 -14.5 -35.5 -14.5c-2 0 -5.16699 0.333008 -9.5 1s-9.16602 1 -14.499 1
c-23.333 0 -41.333 -6 -54 -18s-21.667 -32 -27 -60l-12 -69h81c14.667 0 26.834 -5 36.501 -15s14.5 -22 14.5 -36s-4.83301 -25.833 -14.5 -35.5s-21.834 -14.5 -36.501 -14.5h-99l-38 -213c-9.33301 -54 -28 -92.5 -56 -115.5s-65 -34.5 -111 -34.5z" />
    <glyph glyph-name="circumflex" unicode="&#x2c6;" horiz-adv-x="500" 
d="M242 617c-13.333 -11.333 -25.499 -18.666 -36.499 -21.999s-23.5 -5 -37.5 -5c-7.33301 0 -13.666 1.66699 -18.999 5s-8 8.33301 -8 15c0 3.33301 1.16699 7.16602 3.5 11.499s5.16602 8.5 8.49902 12.5l66 83c7.33301 9.33301 15.333 16.5 24 21.5s20 7.5 34 7.5h36
c14 0 25.333 -2.5 34 -7.5s16.667 -12.167 24 -21.5l66 -83c3.33301 -4 6.16602 -8.16699 8.49902 -12.5s3.5 -8.16602 3.5 -11.499c0 -6.66699 -2.83301 -11.667 -8.5 -15s-12.5 -5 -20.5 -5c-14 0 -26.5 1.66699 -37.5 5s-23.167 10.666 -36.5 21.999l-52 45z" />
    <glyph glyph-name="tilde" unicode="&#x2dc;" horiz-adv-x="500" 
d="M175 603c-3.33301 -5.33301 -7.66699 -10 -13 -14s-12 -6 -20 -6c-10 0 -18.667 3.33301 -26 10s-11 14.334 -11 23.001c0 3.33301 0.333008 7.16602 1 11.499s1.66699 8.16602 3 11.499c10.667 29.333 23.667 51.833 39 67.5s36.333 23.5 63 23.5
c14 0 27.667 -2.16699 41 -6.5s26.166 -9 38.499 -14l34.5 -13.5c10.667 -4 20.667 -6 30 -6c11.333 0 20.333 2.5 27 7.5s13 13.167 19 24.5c3.33301 5.33301 7.83301 10 13.5 14s12.167 6 19.5 6c10 0 18.667 -3.33301 26 -10s11 -14.334 11 -23.001
c0 -3.33301 -0.333008 -7.16602 -1 -11.499s-1.66699 -8.16602 -3 -11.499c-10.667 -29.333 -23.667 -51.833 -39 -67.5s-36.333 -23.5 -63 -23.5c-14 0 -27.667 2 -41 6s-26.166 8.5 -38.499 13.5l-35 14c-11 4.33301 -20.833 6.5 -29.5 6.5
c-11.333 0 -20.333 -2.5 -27 -7.5s-13 -13.167 -19 -24.5z" />
    <glyph glyph-name="endash" unicode="&#x2013;" horiz-adv-x="528" 
d="M123 249c-15.333 0 -28.666 5.66699 -39.999 17s-17 24.666 -17 39.999c0 16 5.66699 29.667 17 41s24.666 17 39.999 17h312c15.333 0 28.666 -5.66699 39.999 -17s17 -25 17 -41c0 -15.333 -5.66699 -28.666 -17 -39.999s-24.666 -17 -39.999 -17h-312z" />
    <glyph glyph-name="emdash" unicode="&#x2014;" horiz-adv-x="898" 
d="M123 249c-15.333 0 -28.666 5.66699 -39.999 17s-17 24.666 -17 39.999c0 16 5.66699 29.667 17 41s24.666 17 39.999 17h682c15.333 0 28.666 -5.66699 39.999 -17s17 -25 17 -41c0 -15.333 -5.66699 -28.666 -17 -39.999s-24.666 -17 -39.999 -17h-682z" />
    <glyph glyph-name="quoteleft" unicode="&#x2018;" horiz-adv-x="230" 
d="M252 676c0 -7.33301 -2.16797 -13.166 -6.50098 -17.499s-10.166 -7.5 -17.499 -9.5c-47.333 -14.667 -70 -44.334 -68 -89.001c14.667 -4 27.834 -11.833 39.501 -23.5s17.5 -26.5 17.5 -44.5v-8c0 -19.333 -6.16699 -35.333 -18.5 -48s-28.833 -19 -49.5 -19
c-22 0 -39.5 7.83301 -52.5 23.5s-19.5 37.167 -19.5 64.5v10c0 34 4.33301 63 13 87s21 43.667 37 59c13.333 13.333 28.666 23.833 45.999 31.5s33.333 11.5 48 11.5c10.667 0 18.5 -2.66699 23.5 -8s7.5 -12 7.5 -20z" />
    <glyph glyph-name="quoteright" unicode="&#x2019;" horiz-adv-x="230" 
d="M59 446c0 7.33301 2.16797 13.167 6.50098 17.5s9.83301 7.5 16.5 9.5c47.333 14.667 70 44.667 68 90c-14.667 3.33301 -27.834 10.833 -39.501 22.5s-17.5 26.5 -17.5 44.5v8c0 19.333 6.16699 35.333 18.5 48s28.833 19 49.5 19c22 0 39.5 -7.83301 52.5 -23.5
s19.5 -37.167 19.5 -64.5v-10c0 -34 -4.33301 -63 -13 -87s-20.667 -43.667 -36 -59c-13.333 -13.333 -28.833 -23.833 -46.5 -31.5s-33.5 -11.5 -47.5 -11.5c-10.667 0 -18.5 2.66699 -23.5 8s-7.5 12 -7.5 20z" />
    <glyph glyph-name="quotesinglbase" unicode="&#x201a;" horiz-adv-x="230" 
d="M54 -117c0 7.33301 2.16699 13.333 6.5 18s9.83301 7.66699 16.5 9c47.333 15.333 70 45.333 68 90c-14.667 4 -27.834 11.833 -39.501 23.5s-17.5 26.5 -17.5 44.5v8c0 19.333 6.16699 35.333 18.5 48s28.833 19 49.5 19c22.667 0 40.334 -7.83301 53.001 -23.5
s19 -37.167 19 -64.5v-11c0 -34 -4.33301 -62.833 -13 -86.5s-20.667 -43.5 -36 -59.5c-13.333 -13.333 -28.833 -23.833 -46.5 -31.5s-33.5 -11.5 -47.5 -11.5c-10.667 0 -18.5 2.83301 -23.5 8.5s-7.5 12.167 -7.5 19.5z" />
    <glyph glyph-name="quotedblleft" unicode="&#x201c;" horiz-adv-x="522" 
d="M236 676c0 -7.33301 -2.16797 -13.166 -6.50098 -17.499s-10.166 -7.5 -17.499 -9.5c-47.333 -14.667 -70 -44.334 -68 -89.001c14.667 -4 27.834 -11.833 39.501 -23.5s17.5 -26.5 17.5 -44.5v-8c0 -19.333 -6.16699 -35.333 -18.5 -48s-28.833 -19 -49.5 -19
c-22 0 -39.5 7.83301 -52.5 23.5s-19.5 37.167 -19.5 64.5v10c0 34 4.33301 63 13 87s21 43.667 37 59c13.333 13.333 28.666 23.833 45.999 31.5s33.333 11.5 48 11.5c10.667 0 18.5 -2.66699 23.5 -8s7.5 -12 7.5 -20zM467.999 676
c0 -7.33301 -2.16895 -13.166 -6.50195 -17.499s-10.166 -7.5 -17.499 -9.5c-47.333 -14.667 -70 -44.334 -68 -89.001c14.667 -4 27.834 -11.833 39.501 -23.5s17.5 -26.5 17.5 -44.5v-8c0 -19.333 -6.16699 -35.333 -18.5 -48s-28.833 -19 -49.5 -19
c-22 0 -39.5 7.83301 -52.5 23.5s-19.5 37.167 -19.5 64.5v10c0 34 4.33301 63 13 87s20.667 43.667 36 59c13.333 13.333 28.833 23.833 46.5 31.5s33.5 11.5 47.5 11.5c10.667 0 18.667 -2.66699 24 -8s8 -12 8 -20z" />
    <glyph glyph-name="quotedblright" unicode="&#x201d;" horiz-adv-x="522" 
d="M290 446c0 7.33301 2.16797 13.167 6.50098 17.5s10.166 7.5 17.499 9.5c47.333 14.667 70 44.667 68 90c-14.667 3.33301 -27.834 10.833 -39.501 22.5s-17.5 26.5 -17.5 44.5v8c0 19.333 6.16699 35.333 18.5 48s28.833 19 49.5 19c22 0 39.5 -7.83301 52.5 -23.5
s19.5 -37.167 19.5 -64.5v-10c0 -34 -4.33301 -63 -13 -87s-21 -43.667 -37 -59c-13.333 -13.333 -28.666 -23.833 -45.999 -31.5s-33.333 -11.5 -48 -11.5c-10.667 0 -18.5 2.66699 -23.5 8s-7.5 12 -7.5 20zM59.001 446.001c0 7.33301 2.16797 13.167 6.50098 17.5
s9.83301 7.5 16.5 9.5c47.333 14.667 70 44.667 68 90c-14.667 3.33301 -27.834 10.833 -39.501 22.5s-17.5 26.5 -17.5 44.5v8c0 19.333 6.16699 35.333 18.5 48s28.833 19 49.5 19c22 0 39.5 -7.83301 52.5 -23.5s19.5 -37.167 19.5 -64.5v-10c0 -34 -4.33301 -63 -13 -87
s-20.667 -43.667 -36 -59c-13.333 -13.333 -28.833 -23.833 -46.5 -31.5s-33.5 -11.5 -47.5 -11.5c-10.667 0 -18.5 2.66699 -23.5 8s-7.5 12 -7.5 20z" />
    <glyph glyph-name="quotedblbase" unicode="&#x201e;" horiz-adv-x="410" 
d="M285 -117c0 7.33301 2.16797 13.333 6.50098 18s10.166 7.66699 17.499 9c47.333 15.333 70 45.333 68 90c-14.667 4 -27.834 11.833 -39.501 23.5s-17.5 26.5 -17.5 44.5v8c0 19.333 6.16699 35.333 18.5 48s28.833 19 49.5 19c22 0 39.5 -8 52.5 -24
s19.5 -37.333 19.5 -64v-11c0 -34 -4.33301 -62.833 -13 -86.5s-21 -43.5 -37 -59.5c-13.333 -13.333 -28.666 -23.833 -45.999 -31.5s-33.333 -11.5 -48 -11.5c-10.667 0 -18.5 2.83301 -23.5 8.5s-7.5 12.167 -7.5 19.5zM54.001 -117c0 7.33301 2.16699 13.333 6.5 18
s9.83301 7.66699 16.5 9c47.333 15.333 70 45.333 68 90c-14.667 4 -27.834 11.833 -39.501 23.5s-17.5 26.5 -17.5 44.5v8c0 19.333 6.16699 35.333 18.5 48s28.833 19 49.5 19c22.667 0 40.334 -7.83301 53.001 -23.5s19 -37.167 19 -64.5v-11
c0 -34 -4.33301 -62.833 -13 -86.5s-20.667 -43.5 -36 -59.5c-13.333 -13.333 -28.833 -23.833 -46.5 -31.5s-33.5 -11.5 -47.5 -11.5c-10.667 0 -18.5 2.83301 -23.5 8.5s-7.5 12.167 -7.5 19.5z" />
    <glyph glyph-name="bullet" unicode="&#x2022;" horiz-adv-x="470" 
d="M253 211c-19.333 0 -37.668 3.66699 -55.001 11s-32.5 17.333 -45.5 30s-23.167 27.5 -30.5 44.5s-11 35.167 -11 54.5v2c0 19.333 3.83301 37.666 11.5 54.999s18 32.333 31 45s28 22.667 45 30s35.167 11 54.5 11c18.667 0 36.667 -3.66699 54 -11
s32.333 -17.333 45 -30s22.834 -27.667 30.501 -45s11.5 -35.666 11.5 -54.999v-2c0 -19.333 -3.66699 -37.5 -11 -54.5s-17.5 -31.833 -30.5 -44.5s-28 -22.667 -45 -30s-35.167 -11 -54.5 -11z" />
    <glyph glyph-name="ellipsis" unicode="&#x2026;" horiz-adv-x="680" 
d="M656 67c0 20.667 7.16699 38.334 21.5 53.001s31.833 22 52.5 22s38.334 -7.33301 53.001 -22s22 -32.334 22 -53.001s-7.33301 -38.167 -22 -52.5s-32.334 -21.5 -53.001 -21.5s-38.167 7.16699 -52.5 21.5s-21.5 31.833 -21.5 52.5zM369 67
c0 20.667 7.16699 38.334 21.5 53.001s31.833 22 52.5 22s38.334 -7.33301 53.001 -22s22 -32.334 22 -53.001s-7.33301 -38.167 -22 -52.5s-32.334 -21.5 -53.001 -21.5s-38.167 7.16699 -52.5 21.5s-21.5 31.833 -21.5 52.5zM82 67c0 20.667 7.16699 38.334 21.5 53.001
s31.833 22 52.5 22s38.334 -7.33301 53.001 -22s22 -32.334 22 -53.001s-7.33301 -38.167 -22 -52.5s-32.334 -21.5 -53.001 -21.5s-38.167 7.16699 -52.5 21.5s-21.5 31.833 -21.5 52.5z" />
    <glyph glyph-name="guilsinglleft" unicode="&#x2039;" horiz-adv-x="311" 
d="M241 486c14 0 25.667 -4.83105 35 -14.498s14.333 -21.5 15 -35.5c0 -12 -4.33301 -23.333 -13 -34l-107 -140l105 -136c4 -4.66699 7.33301 -10 10 -16s4 -12 4 -18c0 -13.333 -4.66699 -25 -14 -35s-21 -15 -35 -15c-9.33301 0 -17.833 2.16699 -25.5 6.5
s-14.167 10.166 -19.5 17.499l-126 162c-4.66699 6 -8.33398 11.667 -11.001 17s-4 11.333 -4 18c0 7.33301 1.33301 13.666 4 18.999s6.33398 11 11.001 17l129 165c4.66699 6 10.5 11.167 17.5 15.5s15.167 6.5 24.5 6.5z" />
    <glyph glyph-name="guilsinglright" unicode="&#x203a;" horiz-adv-x="311" 
d="M117 486c9.33301 0 17.5 -2.16895 24.5 -6.50195s12.833 -9.5 17.5 -15.5l129 -165c4.66699 -6 8.33398 -11.667 11.001 -17s4 -11.666 4 -18.999c0 -6.66699 -1.33301 -12.667 -4 -18s-6.33398 -11 -11.001 -17l-126 -162
c-5.33301 -7.33301 -11.833 -13.166 -19.5 -17.499s-16.167 -6.5 -25.5 -6.5c-14 0 -25.667 5 -35 15s-14 21.667 -14 35c0 6 1.33301 12 4 18s6 11.333 10 16l105 136l-107 140c-8.66699 10.667 -13 22 -13 34c0.666992 14 5.66699 25.833 15 35.5s21 14.5 35 14.5z" />
    <glyph glyph-name="trademark" unicode="&#x2122;" horiz-adv-x="690" 
d="M544 700c6.66699 -0.666992 12.334 -3 17.001 -7s7 -9.33301 7 -16v-253c0 -6 -2.33301 -11.333 -7 -16s-10.334 -7 -17.001 -7c-7.33301 0 -13.166 2.33301 -17.499 7s-6.5 10 -6.5 16v181l-61 -86c-5.33301 -6.66699 -12 -10 -20 -10
c-8.66699 0 -15.334 3.33301 -20.001 10l-62 86v-181c0 -6 -2.16699 -11.333 -6.5 -16s-9.83301 -7 -16.5 -7c-6 0 -11.333 2.33301 -16 7s-7 10 -7 16v253c0 6.66699 2.33301 12.167 7 16.5s10 6.5 16 6.5h2c7.33301 0 13.666 -3.33301 18.999 -10l84 -118l84 118
c6.66699 6.66699 13.334 10 20.001 10h1zM251 677c0 -6.66699 -2.33203 -12.5 -6.99902 -17.5s-10 -7.5 -16 -7.5h-68v-228c0 -6 -2.16699 -11.333 -6.5 -16s-9.83301 -7 -16.5 -7s-12.334 2.33301 -17.001 7s-7 10 -7 16v228h-68c-6.66699 0 -12.167 2.5 -16.5 7.5
s-6.5 10.833 -6.5 17.5s2.16699 12.167 6.5 16.5s9.83301 6.5 16.5 6.5h183c6 0 11.333 -2.16699 16 -6.5s7 -9.83301 7 -16.5z" />
    <glyph glyph-name=".null" horiz-adv-x="0" 
 />
    <glyph glyph-name="nonmarkingreturn" horiz-adv-x="300" 
 />
    <glyph glyph-name="percent" horiz-adv-x="824" 
d="M644 69c23.333 0 41.666 9.83398 54.999 29.501s20 43.167 20 70.5v2c0 28 -7.16699 52 -21.5 72s-32.833 30 -55.5 30c-23.333 0 -41.666 -9.83301 -54.999 -29.5s-20 -43.167 -20 -70.5v-2c0 -28.667 7.16699 -52.834 21.5 -72.501s32.833 -29.5 55.5 -29.5z
M221 427.001c23.333 0 41.666 9.83398 54.999 29.501s20 43.167 20 70.5v2c0 28 -7.16699 52 -21.5 72s-32.833 30 -55.5 30c-23.333 0 -41.666 -9.83301 -54.999 -29.5s-20 -43.167 -20 -70.5v-2c0 -28.667 7.16699 -52.834 21.5 -72.501s32.833 -29.5 55.5 -29.5z
M642 -7.99805c-24.667 0 -47 4.66699 -67 14s-37.167 22.166 -51.5 38.499s-25.5 35.166 -33.5 56.499s-12 44 -12 68v2c0 24.667 4 47.834 12 69.501s19.333 40.667 34 57s32.167 29.166 52.5 38.499s42.833 14 67.5 14s47 -4.66699 67 -14s37.167 -22.166 51.5 -38.499
s25.5 -35.166 33.5 -56.499s12 -44 12 -68v-2c0 -24 -4 -46.833 -12 -68.5s-19.333 -40.667 -34 -57s-32.167 -29.333 -52.5 -39s-42.833 -14.5 -67.5 -14.5zM161 34.002c0 5.33301 0.832031 10.166 2.49902 14.499s3.83398 8.16602 6.50098 11.499l459 627
c3.33301 6 8 10.5 14 13.5s12.667 4.5 20 4.5c11.333 0 20.833 -3.66699 28.5 -11s11.5 -16.666 11.5 -27.999c0 -5.33301 -0.833008 -10.166 -2.5 -14.499s-3.83398 -8.16602 -6.50098 -11.499l-459 -627c-8 -12 -19.667 -18 -35 -18c-11.333 0 -20.666 3.66699 -27.999 11
s-11 16.666 -11 27.999zM218.999 350.002c-24.667 0 -46.998 4.66699 -66.998 14s-37.167 22.166 -51.5 38.499s-25.5 35.166 -33.5 56.499s-12 44 -12 68v2c0 24.667 4 47.834 12 69.501s19.333 40.667 34 57s32.167 29.166 52.5 38.499s42.833 14 67.5 14
s47.167 -4.66699 67.5 -14s37.666 -22.166 51.999 -38.499s25.333 -35.166 33 -56.499s11.5 -44 11.5 -68v-2c0 -24 -4 -46.833 -12 -68.5s-19.167 -40.667 -33.5 -57s-31.833 -29.333 -52.5 -39s-43.334 -14.5 -68.001 -14.5z" />
    </font>
</defs>
</svg>
