<?xml version="1.0" encoding="utf-8"?>
<!-- Generator: Adobe Illustrator 16.0.0, SVG Export Plug-In . SVG Version: 6.00 Build 0)  -->
<!DOCTYPE svg PUBLIC "-//W3C//DTD SVG 1.1//EN" "http://www.w3.org/Graphics/SVG/1.1/DTD/svg11.dtd">
<svg version="1.1" id="Ñëîé_1" xmlns="http://www.w3.org/2000/svg" xmlns:xlink="http://www.w3.org/1999/xlink" x="0px" y="0px"
	 width="107.81px" height="121.464px" viewBox="0 0 107.81 121.464" enable-background="new 0 0 107.81 121.464"
	 xml:space="preserve">
<g>
	<radialGradient id="SVGID_1_" cx="40.5181" cy="50.6313" r="94.5027" gradientUnits="userSpaceOnUse">
		<stop  offset="0" style="stop-color:#FF0002"/>
		<stop  offset="1" style="stop-color:#A30001"/>
	</radialGradient>
	<path fill="url(#SVGID_1_)" d="M59.13,121.464C23.973,103.885,7.269,76.909,2.775,62.523C-2.469,45.737-1.878,18.059,18.803,5.65
		C44.046-9.496,65.852,8.752,65.852,25.814c10.34-14.994,30.919-7.341,36.192-2.068c8.79,8.789,9.823,36.191-13.443,50.668
		C53.483,96.266,59.13,121.464,59.13,121.464z"/>
	<radialGradient id="SVGID_2_" cx="6.3945" cy="11.854" r="204.0477" gradientUnits="userSpaceOnUse">
		<stop  offset="0" style="stop-color:#FF0002"/>
		<stop  offset="1" style="stop-color:#AD0001"/>
	</radialGradient>
	<path fill="url(#SVGID_2_)" d="M4.788,60.865C1.081,49,0.477,31.348,8.664,18.355c-9.267,13.107-8.767,31.716-4.91,44.061
		c4.226,13.529,19.935,38.897,52.997,55.428c0,0-0.177-0.8-0.265-2.222C24.319,99.083,8.958,74.214,4.788,60.865z M85.5,72.048
		C74.694,78.771,68.01,85.827,63.884,92.284c4.184-6.026,10.636-12.497,20.581-18.685c5.579-3.471,9.665-7.735,12.53-12.295
		C94.207,65.276,90.44,68.974,85.5,72.048z"/>
	<radialGradient id="SVGID_3_" cx="84.9814" cy="0.9971" r="163.5296" gradientUnits="userSpaceOnUse">
		<stop  offset="0" style="stop-color:#FF0002"/>
		<stop  offset="1" style="stop-color:#A30001"/>
	</radialGradient>
	<path fill="url(#SVGID_3_)" d="M102.044,23.746c-5.273-5.273-25.852-12.926-36.192,2.068c0-17.062-21.806-35.31-47.049-20.164
		C9.999,10.932,4.846,18.983,2.223,27.781c2.857-7.571,8.821-15.409,16.58-20.063C44.046-7.428,64.301,8.752,64.818,28.916
		c10.34-14.994,26.11-11.116,35.417-3.877c5.669,4.41,8.331,18.182,5.039,29.605C110.035,42.214,107.583,29.285,102.044,23.746z"/>
</g>
</svg>
