<?xml version="1.0" encoding="utf-8"?>
<!-- Generator: Adobe Illustrator 16.0.0, SVG Export Plug-In . SVG Version: 6.00 Build 0)  -->
<!DOCTYPE svg PUBLIC "-//W3C//DTD SVG 1.1//EN" "http://www.w3.org/Graphics/SVG/1.1/DTD/svg11.dtd">
<svg version="1.1" id="Layer_1" xmlns="http://www.w3.org/2000/svg" xmlns:xlink="http://www.w3.org/1999/xlink" x="0px" y="0px"
	 width="150px" height="150px" viewBox="0 0 150 150" enable-background="new 0 0 150 150" xml:space="preserve">
<path opacity="0.7" fill="#FFFFFF" d="M10.74,53.697c-0.024-3.712,0.826-7.921,3.361-10.027c4.361-3.617,8.328-0.604,9.685,3.451
	c1.005,3.002,1.082,6.339,0.431,9.503c-0.868,4.124-2.924,7.902-5.915,10.875c-0.518,0.501-0.953,0.626-1.602,0.11
	C11.431,63.462,10.751,55.577,10.74,53.697z M123.141,41.851H62.792v14.458c0,0,40.584,0,41.672,0c2.782,0,2.976,1.963,1.976,3.91
	c-2.094,4.079-4.95,7.711-8.41,10.697c-3.754,3.234-3.836,3.22-8.731,3.22c-2.571,0-13.172,0-13.172,0v10.403c0,0,6.132,0,11.133,0
	c3.462,0,6.022,0.102,8.358,0.924c11.058,3.893,14.089,17.03,9.99,26.633c-5.517,12.909-17.385,14.771-29.056,9.193
	c-25.407-12.141-29.548-55.191-20.359-76.391c4.976-11.477,13.891-19.175,24.62-20.209c7.537-0.421,14.998,1.713,21.176,6.056
	c0.023-0.023,0.05-0.044,0.072-0.069c7.953-7.225,18.888-10.214,29.412-8.041c0.027,0.008,0.062,0.013,0.092,0.02
	c0,0,0,0,0.031-0.012c5.053-2.825,10.375-5.14,15.885-6.906c2.498-0.755,1.627-3.642-1.196-3.683
	c-3.884-0.136-8.835,0.494-12.478,1.854c-12.193-3.396-24.203-0.708-34.07,7.223c-0.034-0.024-0.067-0.049-0.102-0.071
	c-3.527-5.774-10.841-9.306-19.029-8.482c-5.096,0.514-9.486,2.199-13.257,4.747C48.325,30.188,44.986,64.512,47.817,84.624
	c3.162,22.438,14.525,47.835,38.964,52.647c9.121,1.795,18.718,0.086,26.756-5c0.245-0.201,0.486-0.402,0.72-0.607
	c14.104-12.26,14.261-35.627,3.201-49.862c-1.592-2.048-3.411-3.944-5.425-5.641l0,0c7.488-8.567,12.269-19.168,13.729-30.454
	C125.762,45.718,126.061,41.851,123.141,41.851z M19.498,134.072l3.043,1.568l3.204,1.651c2.028,1.045,4.454-0.358,4.556-2.635
	c0,0,0.007-0.146,0.026-0.577c0.398-8.715-3.14-14.439-7.25-21.805c-0.347-0.619-0.692-1.239-1.029-1.862
	c-2.207-4.071-4.213-8.337-4.716-13.009c-0.023-0.219-0.043-0.438-0.063-0.654c3.56-3.956,6.956-8.698,10.45-13.373
	c4.091-4.268,7.032-9.497,8.54-15.207c1.315-5.186,1.798-11.358,0.941-17.059c-2.037-13.545-13.484-22.74-27.598-16.504
	C1.628,38.128-1.04,47.541,2.601,58.213c1.272,3.729,3.409,7.195,6.343,10.082c1.501,1.825,3.171,3.525,5.004,5.067
	c0.079,0.082,0.159,0.158,0.243,0.237c0,0-4.038,4.59-7.165,8.145l-4.187,4.752l5.578,8.582c0.2,0.301,0.396,0.604,0.597,0.9
	c6.335,9.557,16.421,23.881,11.273,36.197C19.922,133.053,19.498,134.072,19.498,134.072z"/>
</svg>
