<svg id="Layer_1" data-name="Layer 1" xmlns="http://www.w3.org/2000/svg" viewBox="0 0 80.12 14.71"><defs><style>.cls-1{fill:#003a69;}</style></defs><title>logo</title><path class="cls-1" d="M10.77,5.69A3.94,3.94,0,0,0,7.58,4.15,3.68,3.68,0,0,0,3.86,8a3.62,3.62,0,0,0,3.78,3.8,4.18,4.18,0,0,0,3.13-1.48v4.35a10.26,10.26,0,0,1-3.2.65,7.77,7.77,0,0,1-5.24-2.06A6.83,6.83,0,0,1,.08,8,7.31,7.31,0,0,1,2.14,2.89,7.57,7.57,0,0,1,7.45.63a8.52,8.52,0,0,1,3.32.7V5.69Z" transform="translate(-0.08 -0.63)"/><path class="cls-1" d="M24.61,15H20.09L16.67,9.6h0V15H13V1h5.43c2.76,0,4.85,1.32,4.85,4.3a3.76,3.76,0,0,1-3.06,3.95Zm-8-7.71H17c1.19,0,2.52-.22,2.52-1.74S18.17,3.78,17,3.78H16.63V7.26Z" transform="translate(-0.08 -0.63)"/><path class="cls-1" d="M29.18,4.08V6.41h4.09V9.48H29.18v2.41H33.5V15H25.55V1H33.5V4.08H29.18Z" transform="translate(-0.08 -0.63)"/><path class="cls-1" d="M35.7,1h5.15a7,7,0,1,1,0,14H35.7V1Zm3.63,10.89h0.82c2.17,0,4-1.19,4-3.91a3.68,3.68,0,0,0-4-3.91H39.33v7.82Z" transform="translate(-0.08 -0.63)"/><path class="cls-1" d="M53.19,4.08V6.41h4.09V9.48H53.19v2.41H57.5V15H49.56V1H57.5V4.08H53.19Z" transform="translate(-0.08 -0.63)"/><path class="cls-1" d="M71.32,15H66.8L63.38,9.6h0V15H59.71V1h5.43C67.9,1,70,2.32,70,5.3a3.76,3.76,0,0,1-3.06,3.95Zm-8-7.71h0.35c1.19,0,2.52-.22,2.52-1.74s-1.33-1.74-2.52-1.74H63.34V7.26Z" transform="translate(-0.08 -0.63)"/><path class="cls-1" d="M75.89,4.08V6.41H80V9.48H75.89v2.41H80.2V15H72.26V1H80.2V4.08H75.89Z" transform="translate(-0.08 -0.63)"/></svg>